G75*
G70*
%OFA0B0*%
%FSLAX24Y24*%
%IPPOS*%
%LPD*%
%AMOC8*
5,1,8,0,0,1.08239X$1,22.5*
%
%ADD10C,0.1340*%
%ADD11C,0.0680*%
%ADD12C,0.1780*%
%ADD13OC8,0.0654*%
%ADD14C,0.1386*%
%ADD15OC8,0.0680*%
D10*
X002094Y002185D03*
X002002Y031261D03*
X031576Y031261D03*
X031498Y002108D03*
D11*
X022797Y002414D02*
X022797Y003014D01*
X021797Y003014D02*
X021797Y002414D01*
X020797Y002414D02*
X020797Y003014D01*
X015159Y003028D02*
X015159Y002428D01*
X014159Y002428D02*
X014159Y003028D01*
X013159Y003028D02*
X013159Y002428D01*
X012159Y002428D02*
X012159Y003028D01*
X010875Y003024D02*
X010875Y002424D01*
X009875Y002424D02*
X009875Y003024D01*
X008875Y003024D02*
X008875Y002424D01*
X009071Y010619D02*
X009071Y011219D01*
X009071Y013179D02*
X009071Y013779D01*
X010851Y013779D02*
X010851Y013179D01*
X010851Y011219D02*
X010851Y010619D01*
D12*
X017927Y006387D03*
X019777Y005206D03*
X017927Y004025D03*
D13*
X027372Y006120D03*
X027372Y006907D03*
X028356Y006907D03*
X028356Y006120D03*
D14*
X030234Y005053D03*
X025494Y005053D03*
D15*
X025474Y030441D03*
X025474Y031441D03*
X024474Y031441D03*
X023474Y031441D03*
X022474Y031441D03*
X021474Y031441D03*
X021474Y030441D03*
X022474Y030441D03*
X023474Y030441D03*
X024474Y030441D03*
X019340Y030407D03*
X019340Y031407D03*
X018340Y031407D03*
X018340Y030407D03*
X017340Y030407D03*
X017340Y031407D03*
M02*
