G75*
G70*
%OFA0B0*%
%FSLAX24Y24*%
%IPPOS*%
%LPD*%
%AMOC8*
5,1,8,0,0,1.08239X$1,22.5*
%
%ADD10C,0.0600*%
%ADD11C,0.1700*%
%ADD12OC8,0.0574*%
%ADD13C,0.1306*%
%ADD14OC8,0.0600*%
%ADD15C,0.0118*%
%ADD16C,0.0357*%
%ADD17C,0.0160*%
D10*
X008875Y002424D02*
X008875Y003024D01*
X009875Y003024D02*
X009875Y002424D01*
X010875Y002424D02*
X010875Y003024D01*
X012159Y003028D02*
X012159Y002428D01*
X013159Y002428D02*
X013159Y003028D01*
X014159Y003028D02*
X014159Y002428D01*
X015159Y002428D02*
X015159Y003028D01*
X020797Y003014D02*
X020797Y002414D01*
X021797Y002414D02*
X021797Y003014D01*
X022797Y003014D02*
X022797Y002414D01*
X010851Y010619D02*
X010851Y011219D01*
X010851Y013179D02*
X010851Y013779D01*
X009071Y013779D02*
X009071Y013179D01*
X009071Y011219D02*
X009071Y010619D01*
D11*
X017927Y006387D03*
X019777Y005206D03*
X017927Y004025D03*
D12*
X027372Y006120D03*
X027372Y006907D03*
X028356Y006907D03*
X028356Y006120D03*
D13*
X030234Y005053D03*
X025494Y005053D03*
D14*
X025474Y030441D03*
X025474Y031441D03*
X024474Y031441D03*
X023474Y031441D03*
X022474Y031441D03*
X021474Y031441D03*
X021474Y030441D03*
X022474Y030441D03*
X023474Y030441D03*
X024474Y030441D03*
X019340Y030407D03*
X019340Y031407D03*
X018340Y031407D03*
X018340Y030407D03*
X017340Y030407D03*
X017340Y031407D03*
D15*
X001220Y030503D02*
X001215Y002840D01*
X001223Y002853D01*
X001425Y003056D01*
X001674Y003199D01*
X001951Y003274D01*
X002237Y003274D01*
X002514Y003199D01*
X002763Y003056D01*
X002965Y002853D01*
X003109Y002605D01*
X003183Y002328D01*
X003183Y002041D01*
X003109Y001764D01*
X002965Y001516D01*
X002874Y001425D01*
X021036Y001437D01*
X021019Y001454D01*
X020965Y001584D01*
X020965Y001726D01*
X021019Y001857D01*
X021045Y001882D01*
X021045Y002000D01*
X020892Y001937D01*
X020702Y001937D01*
X020527Y002010D01*
X020392Y002144D01*
X020320Y002319D01*
X020320Y003109D01*
X020392Y003284D01*
X020527Y003419D01*
X020702Y003491D01*
X020892Y003491D01*
X021045Y003428D01*
X021045Y007049D01*
X020162Y006167D01*
X020174Y006163D01*
X020408Y006028D01*
X020599Y005837D01*
X020734Y005603D01*
X020804Y005342D01*
X020804Y005071D01*
X020734Y004810D01*
X020599Y004576D01*
X020408Y004384D01*
X020174Y004249D01*
X019912Y004179D01*
X019642Y004179D01*
X019381Y004249D01*
X019146Y004384D01*
X018955Y004576D01*
X018820Y004810D01*
X018750Y005071D01*
X018750Y005342D01*
X018759Y005373D01*
X018351Y004966D01*
X018557Y004847D01*
X018749Y004656D01*
X018884Y004422D01*
X018954Y004160D01*
X018954Y003890D01*
X018884Y003629D01*
X018749Y003395D01*
X018557Y003203D01*
X018323Y003068D01*
X018062Y002998D01*
X017792Y002998D01*
X017530Y003068D01*
X017296Y003203D01*
X017105Y003395D01*
X016970Y003629D01*
X016900Y003890D01*
X016900Y004160D01*
X016966Y004407D01*
X016930Y004372D01*
X015651Y004372D01*
X014567Y003289D01*
X014636Y003122D01*
X014636Y002333D01*
X014564Y002157D01*
X014429Y002023D01*
X014254Y001950D01*
X014064Y001950D01*
X013889Y002023D01*
X013755Y002157D01*
X013682Y002333D01*
X013682Y003122D01*
X013755Y003298D01*
X013889Y003432D01*
X014064Y003505D01*
X014116Y003505D01*
X015317Y004706D01*
X015455Y004844D01*
X016575Y004844D01*
X016511Y004908D01*
X016457Y005039D01*
X016457Y005181D01*
X016511Y005311D01*
X016576Y005377D01*
X016576Y009367D01*
X019132Y011923D01*
X019132Y011932D01*
X017969Y010769D01*
X017591Y010769D01*
X017526Y010704D01*
X017395Y010650D01*
X017254Y010650D01*
X017123Y010704D01*
X017023Y010804D01*
X016969Y010935D01*
X016969Y011076D01*
X017023Y011207D01*
X017123Y011307D01*
X017254Y011361D01*
X017395Y011361D01*
X017526Y011307D01*
X017591Y011242D01*
X017774Y011242D01*
X018961Y012429D01*
X018961Y012521D01*
X019015Y012652D01*
X019115Y012752D01*
X019246Y012806D01*
X019387Y012806D01*
X019518Y012752D01*
X019618Y012652D01*
X019672Y012521D01*
X019672Y012380D01*
X019627Y012272D01*
X019689Y012246D01*
X019789Y012146D01*
X019843Y012015D01*
X019843Y011874D01*
X019789Y011743D01*
X019689Y011643D01*
X019559Y011589D01*
X019466Y011589D01*
X017049Y009171D01*
X017049Y006921D01*
X017105Y007018D01*
X017296Y007209D01*
X017530Y007345D01*
X017792Y007415D01*
X018062Y007415D01*
X018323Y007345D01*
X018557Y007209D01*
X018749Y007018D01*
X018884Y006784D01*
X018954Y006523D01*
X018954Y006252D01*
X018948Y006231D01*
X019214Y006497D01*
X019353Y006635D01*
X019963Y006635D01*
X021949Y008622D01*
X021949Y008714D01*
X022003Y008845D01*
X022103Y008945D01*
X022234Y008999D01*
X022375Y008999D01*
X022506Y008945D01*
X022606Y008845D01*
X022629Y008790D01*
X024016Y010177D01*
X024016Y010269D01*
X024070Y010400D01*
X024170Y010500D01*
X024301Y010554D01*
X024442Y010554D01*
X024573Y010500D01*
X024673Y010400D01*
X024727Y010269D01*
X024727Y010128D01*
X024673Y009997D01*
X024573Y009897D01*
X024442Y009843D01*
X024350Y009843D01*
X021517Y007010D01*
X021517Y003409D01*
X021527Y003419D01*
X021702Y003491D01*
X021892Y003491D01*
X022067Y003419D01*
X022201Y003284D01*
X022274Y003109D01*
X022274Y002319D01*
X022201Y002144D01*
X022067Y002010D01*
X021892Y001937D01*
X021702Y001937D01*
X021527Y002010D01*
X021517Y002019D01*
X021517Y001958D01*
X021522Y001957D01*
X021622Y001857D01*
X021676Y001726D01*
X021676Y001584D01*
X021622Y001454D01*
X021606Y001437D01*
X030624Y001443D01*
X030483Y001688D01*
X030409Y001965D01*
X030409Y002251D01*
X030483Y002528D01*
X030626Y002777D01*
X030829Y002979D01*
X031077Y003123D01*
X031354Y003197D01*
X031641Y003197D01*
X031918Y003123D01*
X032166Y002979D01*
X032338Y002808D01*
X032338Y004996D01*
X029929Y002587D01*
X029861Y002518D01*
X029860Y002518D01*
X029859Y002517D01*
X029762Y002517D01*
X023274Y002481D01*
X023274Y002319D01*
X023201Y002144D01*
X023067Y002010D01*
X022892Y001937D01*
X022702Y001937D01*
X022527Y002010D01*
X022392Y002144D01*
X022320Y002319D01*
X022320Y003109D01*
X022392Y003284D01*
X022527Y003419D01*
X022702Y003491D01*
X022892Y003491D01*
X022971Y003459D01*
X022948Y003481D01*
X022894Y003612D01*
X022894Y003753D01*
X022948Y003884D01*
X023048Y003984D01*
X023179Y004038D01*
X023271Y004038D01*
X024273Y005040D01*
X024273Y005473D01*
X024412Y005612D01*
X025356Y006556D01*
X025356Y010857D01*
X025291Y010922D01*
X025237Y011053D01*
X025237Y011194D01*
X025291Y011325D01*
X025391Y011425D01*
X025521Y011479D01*
X025663Y011479D01*
X025710Y011460D01*
X025710Y013387D01*
X026674Y014350D01*
X026674Y014442D01*
X026705Y014519D01*
X015516Y014519D01*
X013625Y012801D01*
X013625Y012726D01*
X013571Y012595D01*
X013471Y012495D01*
X013340Y012441D01*
X013199Y012441D01*
X013068Y012495D01*
X012968Y012595D01*
X012914Y012726D01*
X012914Y012868D01*
X012968Y012998D01*
X013030Y013061D01*
X012969Y013086D01*
X012869Y013186D01*
X012815Y013317D01*
X012815Y013458D01*
X012869Y013589D01*
X012876Y013595D01*
X012876Y013928D01*
X012841Y013893D01*
X012710Y013839D01*
X012569Y013839D01*
X012438Y013893D01*
X012373Y013958D01*
X012266Y013958D01*
X012128Y014097D01*
X012128Y014097D01*
X010671Y015553D01*
X008949Y015553D01*
X008989Y015513D01*
X010302Y015513D01*
X010305Y015515D01*
X010446Y015515D01*
X010577Y015461D01*
X010677Y015360D01*
X010731Y015230D01*
X010731Y015088D01*
X010677Y014958D01*
X010577Y014858D01*
X010446Y014803D01*
X010415Y014803D01*
X010415Y013923D01*
X010425Y013955D01*
X010458Y014019D01*
X010500Y014078D01*
X010552Y014129D01*
X010610Y014171D01*
X010674Y014204D01*
X010743Y014227D01*
X010810Y014237D01*
X010810Y013520D01*
X010892Y013520D01*
X011310Y013520D01*
X011310Y013815D01*
X011298Y013886D01*
X011276Y013955D01*
X011243Y014019D01*
X011201Y014078D01*
X011150Y014129D01*
X011091Y014171D01*
X011027Y014204D01*
X010958Y014227D01*
X010892Y014237D01*
X010892Y013520D01*
X010892Y013438D01*
X011310Y013438D01*
X011310Y013143D01*
X011298Y013071D01*
X011276Y013003D01*
X011243Y012938D01*
X011201Y012880D01*
X012919Y012880D01*
X012914Y012763D02*
X011047Y012763D01*
X011027Y012753D02*
X011091Y012786D01*
X011150Y012829D01*
X011201Y012880D01*
X011273Y012997D02*
X012967Y012997D01*
X012942Y013113D02*
X011305Y013113D01*
X011310Y013230D02*
X012851Y013230D01*
X012815Y013347D02*
X011310Y013347D01*
X011310Y013580D02*
X012866Y013580D01*
X012876Y013696D02*
X011310Y013696D01*
X011310Y013813D02*
X012876Y013813D01*
X012817Y013463D02*
X010892Y013463D01*
X010892Y013438D02*
X010892Y012721D01*
X010958Y012731D01*
X011027Y012753D01*
X010892Y012763D02*
X010810Y012763D01*
X010810Y012721D02*
X010810Y013438D01*
X010892Y013438D01*
X010892Y013347D02*
X010810Y013347D01*
X010810Y013230D02*
X010892Y013230D01*
X010892Y013113D02*
X010810Y013113D01*
X010810Y012997D02*
X010892Y012997D01*
X010892Y012880D02*
X010810Y012880D01*
X010810Y012721D02*
X010743Y012731D01*
X010674Y012753D01*
X010610Y012786D01*
X010552Y012829D01*
X010500Y012880D01*
X010415Y012880D01*
X010458Y012938D02*
X010425Y013003D01*
X010415Y013034D01*
X010415Y011363D01*
X010425Y011395D01*
X010458Y011459D01*
X010500Y011518D01*
X010552Y011569D01*
X010610Y011611D01*
X010674Y011644D01*
X010743Y011667D01*
X010810Y011677D01*
X010810Y010960D01*
X010892Y010960D01*
X011310Y010960D01*
X011310Y011255D01*
X011298Y011326D01*
X011276Y011395D01*
X011243Y011459D01*
X011201Y011518D01*
X011150Y011569D01*
X011091Y011611D01*
X011027Y011644D01*
X010958Y011667D01*
X010892Y011677D01*
X010892Y010960D01*
X010892Y010878D01*
X011310Y010878D01*
X011310Y010600D01*
X012147Y011438D01*
X012215Y011505D01*
X012481Y011783D01*
X012481Y011883D01*
X012535Y012014D01*
X012635Y012114D01*
X012765Y012168D01*
X012907Y012168D01*
X013038Y012114D01*
X013138Y012014D01*
X013192Y011883D01*
X013192Y011742D01*
X013138Y011611D01*
X013038Y011511D01*
X012907Y011457D01*
X012823Y011457D01*
X012639Y011266D01*
X012639Y011262D01*
X012552Y011175D01*
X012486Y011106D01*
X012483Y011106D01*
X012481Y011104D01*
X009726Y008349D01*
X009726Y006498D01*
X009588Y006360D01*
X007757Y004529D01*
X004855Y004529D01*
X004790Y004464D01*
X004659Y004410D01*
X004517Y004410D01*
X004387Y004464D01*
X004287Y004564D01*
X004233Y004695D01*
X004233Y004836D01*
X004268Y004922D01*
X004242Y004922D01*
X004111Y004976D01*
X004011Y005076D01*
X003957Y005206D01*
X003957Y005348D01*
X004011Y005479D01*
X004096Y005564D01*
X004096Y011714D01*
X006826Y014444D01*
X006729Y014484D01*
X006629Y014584D01*
X006575Y014714D01*
X006575Y014804D01*
X005279Y016084D01*
X005278Y016084D01*
X005209Y016153D01*
X005140Y016221D01*
X005140Y016222D01*
X005080Y016282D01*
X005080Y024390D01*
X005033Y024370D01*
X004891Y024370D01*
X004761Y024425D01*
X001219Y024425D01*
X001219Y024541D02*
X004654Y024541D01*
X004661Y024525D02*
X004761Y024425D01*
X004661Y024525D02*
X004607Y024655D01*
X004607Y024797D01*
X004661Y024927D01*
X004718Y024984D01*
X004718Y027305D01*
X004620Y027264D01*
X004478Y027264D01*
X004347Y027318D01*
X004247Y027418D01*
X004193Y027549D01*
X004193Y027690D01*
X001220Y027690D01*
X001220Y027806D02*
X004241Y027806D01*
X004247Y027821D02*
X004193Y027690D01*
X004193Y027573D02*
X001220Y027573D01*
X001220Y027456D02*
X004232Y027456D01*
X004326Y027340D02*
X001219Y027340D01*
X001219Y027223D02*
X004718Y027223D01*
X004718Y027107D02*
X001219Y027107D01*
X001219Y026990D02*
X004718Y026990D01*
X004718Y026873D02*
X001219Y026873D01*
X001219Y026757D02*
X004718Y026757D01*
X004718Y026640D02*
X001219Y026640D01*
X001219Y026524D02*
X004718Y026524D01*
X004718Y026407D02*
X001219Y026407D01*
X001219Y026290D02*
X004718Y026290D01*
X004718Y026174D02*
X001219Y026174D01*
X001219Y026057D02*
X004718Y026057D01*
X004718Y025940D02*
X001219Y025940D01*
X001219Y025824D02*
X004718Y025824D01*
X004718Y025707D02*
X001219Y025707D01*
X001219Y025591D02*
X004718Y025591D01*
X004718Y025474D02*
X001219Y025474D01*
X001219Y025357D02*
X004718Y025357D01*
X004718Y025241D02*
X001219Y025241D01*
X001219Y025124D02*
X004718Y025124D01*
X004718Y025008D02*
X001219Y025008D01*
X001219Y024891D02*
X004646Y024891D01*
X004607Y024774D02*
X001219Y024774D01*
X001219Y024658D02*
X004607Y024658D01*
X004954Y024734D02*
X004962Y024726D01*
X004954Y024734D02*
X004954Y031253D01*
X005286Y031380D02*
X005759Y031380D01*
X005824Y031314D01*
X005954Y031260D01*
X006096Y031260D01*
X006227Y031314D01*
X006327Y031414D01*
X006352Y031475D01*
X006434Y031393D01*
X006565Y031339D01*
X006706Y031339D01*
X006837Y031393D01*
X006902Y031458D01*
X009668Y031458D01*
X009943Y031183D01*
X009943Y025808D01*
X009765Y025631D01*
X009765Y026920D01*
X009831Y026985D01*
X009885Y027116D01*
X009885Y027257D01*
X009831Y027388D01*
X009731Y027488D01*
X009600Y027542D01*
X009458Y027542D01*
X009328Y027488D01*
X009228Y027388D01*
X009174Y027257D01*
X009174Y027116D01*
X009228Y026985D01*
X009293Y026920D01*
X009293Y025690D01*
X006931Y023328D01*
X006095Y023328D01*
X006030Y023394D01*
X005899Y023448D01*
X005758Y023448D01*
X005627Y023394D01*
X005553Y023319D01*
X005553Y024162D01*
X005620Y024134D01*
X005761Y024134D01*
X005892Y024188D01*
X005992Y024288D01*
X006046Y024419D01*
X006046Y024560D01*
X005992Y024691D01*
X005927Y024756D01*
X005927Y027786D01*
X006001Y027712D01*
X006132Y027658D01*
X006273Y027658D01*
X006404Y027712D01*
X006448Y027756D01*
X006706Y027756D01*
X007126Y027336D01*
X007126Y027273D01*
X007180Y027143D01*
X007280Y027043D01*
X007411Y026989D01*
X007553Y026989D01*
X007683Y027043D01*
X007783Y027143D01*
X007837Y027273D01*
X007837Y027415D01*
X007783Y027546D01*
X007683Y027646D01*
X007553Y027700D01*
X007490Y027700D01*
X006958Y028231D01*
X006867Y028269D01*
X007935Y028269D01*
X008130Y028074D01*
X008130Y027982D01*
X008184Y027851D01*
X008250Y027786D01*
X008250Y027599D01*
X006618Y025967D01*
X006545Y025967D01*
X006414Y025913D01*
X006314Y025813D01*
X006260Y025683D01*
X006260Y025541D01*
X006314Y025410D01*
X006414Y025310D01*
X006545Y025256D01*
X006686Y025256D01*
X006817Y025310D01*
X006917Y025410D01*
X006971Y025541D01*
X006971Y025653D01*
X008584Y027265D01*
X008722Y027404D01*
X008722Y027786D01*
X008787Y027851D01*
X008841Y027982D01*
X008841Y028123D01*
X008787Y028254D01*
X008687Y028354D01*
X008557Y028408D01*
X008464Y028408D01*
X008131Y028742D01*
X006469Y028742D01*
X006404Y028807D01*
X006273Y028861D01*
X006132Y028861D01*
X006001Y028807D01*
X005937Y028743D01*
X005872Y028807D01*
X005742Y028861D01*
X005600Y028861D01*
X005469Y028807D01*
X005369Y028707D01*
X005315Y028576D01*
X005315Y028435D01*
X005369Y028304D01*
X005454Y028219D01*
X005454Y028176D01*
X005368Y028211D01*
X005226Y028211D01*
X005190Y028197D01*
X005190Y030986D01*
X005255Y031052D01*
X005310Y031182D01*
X005310Y031324D01*
X005286Y031380D01*
X005310Y031305D02*
X005847Y031305D01*
X006203Y031305D02*
X009821Y031305D01*
X009705Y031421D02*
X006865Y031421D01*
X006635Y031694D02*
X009765Y031694D01*
X010179Y031281D01*
X010179Y025710D01*
X008230Y023761D01*
X008230Y018839D01*
X010229Y016840D01*
X012029Y015002D01*
X012915Y015002D01*
X013112Y014805D01*
X013112Y013446D01*
X013171Y013387D01*
X013526Y013350D02*
X013526Y013458D01*
X013472Y013589D01*
X013372Y013689D01*
X013348Y013699D01*
X013348Y014903D01*
X013210Y015041D01*
X013013Y015238D01*
X012128Y015238D01*
X010465Y016936D01*
X010465Y016938D01*
X010397Y017006D01*
X010279Y017127D01*
X010277Y017127D01*
X008466Y018937D01*
X008466Y021557D01*
X008486Y021537D01*
X009731Y021537D01*
X009734Y021536D01*
X009875Y021536D01*
X009878Y021537D01*
X010533Y021537D01*
X010533Y019431D01*
X010671Y019293D01*
X011459Y019293D01*
X010712Y018546D01*
X010620Y018546D01*
X010489Y018492D01*
X010389Y018392D01*
X010335Y018261D01*
X010335Y018120D01*
X010389Y017989D01*
X010489Y017889D01*
X010620Y017835D01*
X010761Y017835D01*
X010892Y017889D01*
X010992Y017989D01*
X011046Y018120D01*
X011046Y018212D01*
X011871Y019037D01*
X011872Y019037D01*
X011940Y019106D01*
X012009Y019175D01*
X012009Y019176D01*
X012126Y019293D01*
X013022Y019293D01*
X013048Y019267D01*
X013179Y019213D01*
X013320Y019213D01*
X013451Y019267D01*
X013477Y019293D01*
X014234Y019293D01*
X014234Y018840D01*
X014214Y018820D01*
X014214Y018778D01*
X014195Y018740D01*
X014214Y018684D01*
X014214Y018633D01*
X014111Y018590D01*
X014011Y018490D01*
X013957Y018360D01*
X013957Y018218D01*
X014011Y018088D01*
X014111Y017988D01*
X014242Y017933D01*
X014311Y017933D01*
X014372Y017865D01*
X014372Y017856D01*
X014436Y017793D01*
X014495Y017725D01*
X014504Y017724D01*
X014510Y017718D01*
X014601Y017718D01*
X014691Y017712D01*
X014697Y017718D01*
X015385Y017718D01*
X014077Y016419D01*
X014008Y016350D01*
X013939Y016281D01*
X013939Y016281D01*
X013939Y016281D01*
X013939Y016183D01*
X013938Y016086D01*
X013939Y016085D01*
X013939Y014441D01*
X013873Y014376D01*
X013819Y014246D01*
X013819Y014104D01*
X013873Y013973D01*
X013973Y013873D01*
X014062Y013837D01*
X013526Y013350D01*
X013524Y013463D02*
X013651Y013463D01*
X013780Y013580D02*
X013476Y013580D01*
X013354Y013696D02*
X013908Y013696D01*
X014036Y013813D02*
X013348Y013813D01*
X013348Y013930D02*
X013917Y013930D01*
X013843Y014046D02*
X013348Y014046D01*
X013348Y014163D02*
X013819Y014163D01*
X013833Y014279D02*
X013348Y014279D01*
X013348Y014396D02*
X013893Y014396D01*
X013939Y014513D02*
X013348Y014513D01*
X013348Y014629D02*
X013939Y014629D01*
X013939Y014746D02*
X013348Y014746D01*
X013348Y014862D02*
X013939Y014862D01*
X013939Y014979D02*
X013272Y014979D01*
X013155Y015096D02*
X013939Y015096D01*
X013939Y015212D02*
X013038Y015212D01*
X012639Y014194D02*
X012364Y014194D01*
X010769Y015789D01*
X008506Y015789D01*
X004332Y011616D01*
X004332Y005297D01*
X004313Y005277D01*
X004640Y005417D02*
X007977Y005417D01*
X008093Y005534D02*
X004569Y005534D01*
X004569Y005524D02*
X004569Y011518D01*
X007835Y014784D01*
X007835Y014714D01*
X007889Y014584D01*
X007989Y014484D01*
X008120Y014429D01*
X008261Y014429D01*
X008392Y014484D01*
X008457Y014549D01*
X009361Y014549D01*
X009426Y014484D01*
X009557Y014429D01*
X009698Y014429D01*
X009829Y014484D01*
X009929Y014584D01*
X009943Y014616D01*
X009943Y010611D01*
X008683Y009351D01*
X008683Y007524D01*
X008649Y007605D01*
X008549Y007705D01*
X008419Y007759D01*
X008327Y007759D01*
X008190Y007895D01*
X006902Y007895D01*
X006837Y007961D01*
X006706Y008015D01*
X006565Y008015D01*
X006434Y007961D01*
X006334Y007860D01*
X006280Y007730D01*
X006280Y007588D01*
X006334Y007458D01*
X006434Y007358D01*
X006565Y007303D01*
X006706Y007303D01*
X006837Y007358D01*
X006902Y007423D01*
X007992Y007423D01*
X007992Y007332D01*
X008047Y007202D01*
X008147Y007102D01*
X008277Y007048D01*
X008419Y007048D01*
X008549Y007102D01*
X008649Y007202D01*
X008683Y007282D01*
X008683Y007020D01*
X008617Y006955D01*
X008563Y006824D01*
X008563Y006683D01*
X008617Y006552D01*
X008717Y006452D01*
X008848Y006398D01*
X008958Y006398D01*
X007561Y005002D01*
X004855Y005002D01*
X004790Y005067D01*
X004659Y005121D01*
X004633Y005121D01*
X004668Y005206D01*
X004668Y005348D01*
X004614Y005479D01*
X004569Y005524D01*
X004569Y005650D02*
X008210Y005650D01*
X008326Y005767D02*
X004569Y005767D01*
X004569Y005883D02*
X008443Y005883D01*
X008560Y006000D02*
X004569Y006000D01*
X004569Y006117D02*
X008676Y006117D01*
X008793Y006233D02*
X004569Y006233D01*
X004569Y006350D02*
X008910Y006350D01*
X008703Y006467D02*
X004569Y006467D01*
X004569Y006583D02*
X008605Y006583D01*
X008563Y006700D02*
X004569Y006700D01*
X004569Y006816D02*
X008563Y006816D01*
X008608Y006933D02*
X004569Y006933D01*
X004569Y007050D02*
X008272Y007050D01*
X008424Y007050D02*
X008683Y007050D01*
X008683Y007166D02*
X008614Y007166D01*
X008348Y007403D02*
X008092Y007659D01*
X006635Y007659D01*
X006310Y007516D02*
X004569Y007516D01*
X004569Y007399D02*
X006392Y007399D01*
X006280Y007633D02*
X004569Y007633D01*
X004569Y007749D02*
X006288Y007749D01*
X006339Y007866D02*
X004569Y007866D01*
X004569Y007982D02*
X006487Y007982D01*
X006784Y007982D02*
X008683Y007982D01*
X008683Y007866D02*
X008219Y007866D01*
X008442Y007749D02*
X008683Y007749D01*
X008683Y007633D02*
X008621Y007633D01*
X008683Y008099D02*
X004569Y008099D01*
X004569Y008216D02*
X008683Y008216D01*
X008683Y008332D02*
X004569Y008332D01*
X004569Y008449D02*
X008683Y008449D01*
X008683Y008566D02*
X004569Y008566D01*
X004569Y008682D02*
X008683Y008682D01*
X008683Y008799D02*
X004569Y008799D01*
X004569Y008915D02*
X008683Y008915D01*
X008683Y009032D02*
X004569Y009032D01*
X004569Y009149D02*
X008683Y009149D01*
X008683Y009265D02*
X004569Y009265D01*
X004569Y009382D02*
X008713Y009382D01*
X008830Y009498D02*
X004569Y009498D01*
X004569Y009615D02*
X008946Y009615D01*
X009063Y009732D02*
X004569Y009732D01*
X004569Y009848D02*
X009180Y009848D01*
X009296Y009965D02*
X004569Y009965D01*
X004569Y010081D02*
X009413Y010081D01*
X009341Y010214D02*
X009475Y010349D01*
X009548Y010524D01*
X009548Y011314D01*
X009475Y011489D01*
X009341Y011623D01*
X009166Y011696D01*
X008976Y011696D01*
X008800Y011623D01*
X008666Y011489D01*
X008593Y011314D01*
X008593Y010524D01*
X008666Y010349D01*
X008800Y010214D01*
X008976Y010142D01*
X009166Y010142D01*
X009341Y010214D01*
X009302Y010198D02*
X009529Y010198D01*
X009441Y010315D02*
X009646Y010315D01*
X009763Y010431D02*
X009509Y010431D01*
X009548Y010548D02*
X009879Y010548D01*
X009943Y010664D02*
X009548Y010664D01*
X009548Y010781D02*
X009943Y010781D01*
X009943Y010898D02*
X009548Y010898D01*
X009548Y011014D02*
X009943Y011014D01*
X009943Y011131D02*
X009548Y011131D01*
X009548Y011248D02*
X009943Y011248D01*
X009943Y011364D02*
X009527Y011364D01*
X009479Y011481D02*
X009943Y011481D01*
X009943Y011597D02*
X009367Y011597D01*
X008774Y011597D02*
X004648Y011597D01*
X004569Y011481D02*
X008663Y011481D01*
X008614Y011364D02*
X004569Y011364D01*
X004569Y011248D02*
X008593Y011248D01*
X008593Y011131D02*
X004569Y011131D01*
X004569Y011014D02*
X008593Y011014D01*
X008593Y010898D02*
X004569Y010898D01*
X004569Y010781D02*
X008593Y010781D01*
X008593Y010664D02*
X004569Y010664D01*
X004569Y010548D02*
X008593Y010548D01*
X008632Y010431D02*
X004569Y010431D01*
X004569Y010315D02*
X008700Y010315D01*
X008840Y010198D02*
X004569Y010198D01*
X004096Y010198D02*
X001216Y010198D01*
X001216Y010081D02*
X004096Y010081D01*
X004096Y009965D02*
X001216Y009965D01*
X001216Y009848D02*
X004096Y009848D01*
X004096Y009732D02*
X001216Y009732D01*
X001216Y009615D02*
X004096Y009615D01*
X004096Y009498D02*
X001216Y009498D01*
X001216Y009382D02*
X004096Y009382D01*
X004096Y009265D02*
X001216Y009265D01*
X001216Y009149D02*
X004096Y009149D01*
X004096Y009032D02*
X001216Y009032D01*
X001216Y008915D02*
X004096Y008915D01*
X004096Y008799D02*
X001216Y008799D01*
X001216Y008682D02*
X004096Y008682D01*
X004096Y008566D02*
X001216Y008566D01*
X001216Y008449D02*
X004096Y008449D01*
X004096Y008332D02*
X001216Y008332D01*
X001216Y008216D02*
X004096Y008216D01*
X004096Y008099D02*
X003146Y008099D01*
X003195Y008079D02*
X003064Y008133D01*
X002923Y008133D01*
X002792Y008079D01*
X002692Y007979D01*
X002638Y007848D01*
X002638Y007706D01*
X002692Y007576D01*
X002738Y007530D01*
X002738Y004658D01*
X002673Y004593D01*
X002618Y004462D01*
X002618Y004321D01*
X002673Y004190D01*
X002773Y004090D01*
X002903Y004036D01*
X003045Y004036D01*
X003175Y004090D01*
X003275Y004190D01*
X003330Y004321D01*
X003330Y004462D01*
X003275Y004593D01*
X003210Y004658D01*
X003210Y007491D01*
X003295Y007576D01*
X003349Y007706D01*
X003349Y007848D01*
X003295Y007979D01*
X003195Y008079D01*
X003291Y007982D02*
X004096Y007982D01*
X004096Y007866D02*
X003342Y007866D01*
X003349Y007749D02*
X004096Y007749D01*
X004096Y007633D02*
X003319Y007633D01*
X003235Y007516D02*
X004096Y007516D01*
X004096Y007399D02*
X003210Y007399D01*
X003210Y007283D02*
X004096Y007283D01*
X004096Y007166D02*
X003210Y007166D01*
X003210Y007050D02*
X004096Y007050D01*
X004096Y006933D02*
X003210Y006933D01*
X003210Y006816D02*
X004096Y006816D01*
X004096Y006700D02*
X003210Y006700D01*
X003210Y006583D02*
X004096Y006583D01*
X004096Y006467D02*
X003210Y006467D01*
X003210Y006350D02*
X004096Y006350D01*
X004096Y006233D02*
X003210Y006233D01*
X003210Y006117D02*
X004096Y006117D01*
X004096Y006000D02*
X003210Y006000D01*
X003210Y005883D02*
X004096Y005883D01*
X004096Y005767D02*
X003210Y005767D01*
X003210Y005650D02*
X004096Y005650D01*
X004066Y005534D02*
X003210Y005534D01*
X003210Y005417D02*
X003986Y005417D01*
X003957Y005300D02*
X003210Y005300D01*
X003210Y005184D02*
X003966Y005184D01*
X004020Y005067D02*
X003210Y005067D01*
X003210Y004951D02*
X004172Y004951D01*
X004233Y004834D02*
X003210Y004834D01*
X003210Y004717D02*
X004233Y004717D01*
X004271Y004601D02*
X003267Y004601D01*
X003320Y004484D02*
X004367Y004484D01*
X004588Y004765D02*
X007659Y004765D01*
X009490Y006596D01*
X009490Y008446D01*
X012383Y011340D01*
X012836Y011813D01*
X012585Y012064D02*
X010415Y012064D01*
X010415Y012180D02*
X018713Y012180D01*
X018829Y012297D02*
X010415Y012297D01*
X010415Y012414D02*
X018946Y012414D01*
X018965Y012530D02*
X013506Y012530D01*
X013592Y012647D02*
X019013Y012647D01*
X019143Y012763D02*
X013625Y012763D01*
X013712Y012880D02*
X025710Y012880D01*
X025710Y012763D02*
X019490Y012763D01*
X019620Y012647D02*
X025710Y012647D01*
X025710Y012530D02*
X019668Y012530D01*
X019672Y012414D02*
X025710Y012414D01*
X025710Y012297D02*
X019638Y012297D01*
X019755Y012180D02*
X025710Y012180D01*
X025710Y012064D02*
X019823Y012064D01*
X019843Y011947D02*
X025710Y011947D01*
X025710Y011831D02*
X019826Y011831D01*
X019760Y011714D02*
X025710Y011714D01*
X025710Y011597D02*
X019579Y011597D01*
X019358Y011481D02*
X025710Y011481D01*
X025592Y011124D02*
X025592Y006458D01*
X024509Y005376D01*
X024509Y004943D01*
X023250Y003683D01*
X023580Y003551D02*
X026212Y003551D01*
X026236Y003609D02*
X026181Y003478D01*
X026181Y003336D01*
X026236Y003206D01*
X026336Y003106D01*
X026466Y003051D01*
X026608Y003051D01*
X026738Y003106D01*
X026838Y003206D01*
X026893Y003336D01*
X026893Y003429D01*
X027128Y003664D01*
X027128Y005707D01*
X027179Y005656D01*
X027564Y005656D01*
X027836Y005927D01*
X027836Y006312D01*
X027634Y006513D01*
X027836Y006715D01*
X027836Y007099D01*
X027564Y007371D01*
X027179Y007371D01*
X027128Y007319D01*
X027128Y007505D01*
X027172Y007460D01*
X027303Y007406D01*
X027444Y007406D01*
X027575Y007460D01*
X027636Y007521D01*
X028210Y007521D01*
X028348Y007660D01*
X028584Y007896D01*
X028584Y008318D01*
X028649Y008383D01*
X028704Y008514D01*
X028704Y008655D01*
X028649Y008786D01*
X028549Y008886D01*
X028419Y008940D01*
X028277Y008940D01*
X028147Y008886D01*
X028047Y008786D01*
X027992Y008655D01*
X027992Y008514D01*
X028047Y008383D01*
X028112Y008318D01*
X028112Y008092D01*
X028014Y007994D01*
X027644Y007994D01*
X027575Y008063D01*
X027444Y008117D01*
X027427Y008117D01*
X027483Y008173D01*
X027550Y008227D01*
X027551Y008241D01*
X027561Y008250D01*
X027561Y008336D01*
X027569Y008422D01*
X027561Y008432D01*
X027561Y010503D01*
X027626Y010568D01*
X027680Y010699D01*
X027680Y010840D01*
X027626Y010971D01*
X027526Y011071D01*
X027395Y011125D01*
X027254Y011125D01*
X027123Y011071D01*
X027023Y010971D01*
X026969Y010840D01*
X026969Y010699D01*
X027023Y010568D01*
X027088Y010503D01*
X027088Y008460D01*
X026807Y008230D01*
X026793Y008230D01*
X026791Y008227D01*
X026801Y012195D01*
X027972Y013366D01*
X028064Y013366D01*
X028195Y013421D01*
X028295Y013521D01*
X028349Y013651D01*
X028349Y013793D01*
X028295Y013923D01*
X028195Y014024D01*
X028064Y014078D01*
X027923Y014078D01*
X027792Y014024D01*
X027692Y013923D01*
X027638Y013793D01*
X027638Y013701D01*
X026397Y012460D01*
X026329Y012391D01*
X026328Y012391D01*
X026328Y012293D01*
X026311Y005247D01*
X026197Y005523D01*
X025964Y005756D01*
X025659Y005883D01*
X025351Y005883D01*
X025828Y006360D01*
X025828Y009882D01*
X025876Y009863D01*
X026017Y009863D01*
X026148Y009917D01*
X026248Y010017D01*
X026302Y010147D01*
X026302Y010289D01*
X026248Y010420D01*
X026183Y010485D01*
X026183Y013191D01*
X027008Y014016D01*
X027100Y014016D01*
X027231Y014070D01*
X027331Y014170D01*
X027385Y014301D01*
X027385Y014442D01*
X027353Y014519D01*
X027810Y014519D01*
X027948Y014658D01*
X031891Y018601D01*
X031891Y024893D01*
X032338Y025399D01*
X032338Y009791D01*
X031517Y010611D01*
X031379Y010750D01*
X030780Y010750D01*
X030695Y010835D01*
X030564Y010889D01*
X030423Y010889D01*
X030292Y010835D01*
X030192Y010734D01*
X030138Y010604D01*
X030138Y010462D01*
X030192Y010332D01*
X030292Y010232D01*
X030423Y010177D01*
X030564Y010177D01*
X030695Y010232D01*
X030741Y010277D01*
X031183Y010277D01*
X032009Y009451D01*
X032009Y005336D01*
X029663Y002989D01*
X023274Y002953D01*
X023274Y003109D01*
X023201Y003284D01*
X023145Y003341D01*
X023179Y003327D01*
X023320Y003327D01*
X023451Y003381D01*
X023551Y003481D01*
X023605Y003612D01*
X023605Y003704D01*
X024700Y004799D01*
X024790Y004583D01*
X025024Y004349D01*
X025329Y004223D01*
X025659Y004223D01*
X025964Y004349D01*
X026197Y004583D01*
X026310Y004856D01*
X026309Y004363D01*
X026243Y004297D01*
X026189Y004167D01*
X026189Y004025D01*
X026243Y003895D01*
X026343Y003795D01*
X026443Y003753D01*
X026336Y003709D01*
X026236Y003609D01*
X026295Y003668D02*
X023605Y003668D01*
X023685Y003784D02*
X026368Y003784D01*
X026241Y003901D02*
X023802Y003901D01*
X023919Y004018D02*
X026192Y004018D01*
X026189Y004134D02*
X024035Y004134D01*
X024152Y004251D02*
X025261Y004251D01*
X025005Y004368D02*
X024269Y004368D01*
X024385Y004484D02*
X024889Y004484D01*
X024783Y004601D02*
X024502Y004601D01*
X024618Y004717D02*
X024734Y004717D01*
X024273Y005067D02*
X021517Y005067D01*
X021517Y004951D02*
X024183Y004951D01*
X024067Y004834D02*
X021517Y004834D01*
X021517Y004717D02*
X023950Y004717D01*
X023834Y004601D02*
X021517Y004601D01*
X021517Y004484D02*
X023717Y004484D01*
X023600Y004368D02*
X021517Y004368D01*
X021517Y004251D02*
X023484Y004251D01*
X023367Y004134D02*
X021517Y004134D01*
X021517Y004018D02*
X023129Y004018D01*
X022965Y003901D02*
X021517Y003901D01*
X021517Y003784D02*
X022907Y003784D01*
X022894Y003668D02*
X021517Y003668D01*
X021517Y003551D02*
X022919Y003551D01*
X023168Y003318D02*
X026189Y003318D01*
X026181Y003435D02*
X023504Y003435D01*
X023236Y003201D02*
X026240Y003201D01*
X026386Y003085D02*
X023274Y003085D01*
X023274Y002968D02*
X025947Y002968D01*
X026537Y003407D02*
X026891Y003761D01*
X026891Y007994D01*
X027324Y008348D01*
X027324Y010769D01*
X026993Y010898D02*
X026797Y010898D01*
X026798Y011014D02*
X027067Y011014D01*
X026969Y010781D02*
X026797Y010781D01*
X026797Y010664D02*
X026983Y010664D01*
X027043Y010548D02*
X026797Y010548D01*
X026796Y010431D02*
X027088Y010431D01*
X027088Y010315D02*
X026796Y010315D01*
X026796Y010198D02*
X027088Y010198D01*
X027088Y010081D02*
X026795Y010081D01*
X026795Y009965D02*
X027088Y009965D01*
X027088Y009848D02*
X026795Y009848D01*
X026795Y009732D02*
X027088Y009732D01*
X027088Y009615D02*
X026794Y009615D01*
X026794Y009498D02*
X027088Y009498D01*
X027088Y009382D02*
X026794Y009382D01*
X026794Y009265D02*
X027088Y009265D01*
X027088Y009149D02*
X026793Y009149D01*
X026793Y009032D02*
X027088Y009032D01*
X027088Y008915D02*
X026793Y008915D01*
X026792Y008799D02*
X027088Y008799D01*
X027088Y008682D02*
X026792Y008682D01*
X026792Y008566D02*
X027088Y008566D01*
X027075Y008449D02*
X026792Y008449D01*
X026791Y008332D02*
X026932Y008332D01*
X026319Y008332D02*
X025828Y008332D01*
X025828Y008216D02*
X026319Y008216D01*
X026318Y008099D02*
X025828Y008099D01*
X025828Y007982D02*
X026318Y007982D01*
X026318Y007866D02*
X025828Y007866D01*
X025828Y007749D02*
X026317Y007749D01*
X026317Y007633D02*
X025828Y007633D01*
X025828Y007516D02*
X026317Y007516D01*
X026317Y007399D02*
X025828Y007399D01*
X025828Y007283D02*
X026316Y007283D01*
X026316Y007166D02*
X025828Y007166D01*
X025828Y007050D02*
X026316Y007050D01*
X026315Y006933D02*
X025828Y006933D01*
X025828Y006816D02*
X026315Y006816D01*
X026315Y006700D02*
X025828Y006700D01*
X025828Y006583D02*
X026315Y006583D01*
X026314Y006467D02*
X025828Y006467D01*
X025818Y006350D02*
X026314Y006350D01*
X026314Y006233D02*
X025701Y006233D01*
X025585Y006117D02*
X026314Y006117D01*
X026313Y006000D02*
X025468Y006000D01*
X025351Y005883D02*
X026313Y005883D01*
X026313Y005767D02*
X025938Y005767D01*
X026070Y005650D02*
X026312Y005650D01*
X026312Y005534D02*
X026187Y005534D01*
X026241Y005417D02*
X026312Y005417D01*
X026312Y005300D02*
X026289Y005300D01*
X026301Y004834D02*
X026310Y004834D01*
X026310Y004717D02*
X026253Y004717D01*
X026205Y004601D02*
X026310Y004601D01*
X026310Y004484D02*
X026099Y004484D01*
X025982Y004368D02*
X026309Y004368D01*
X026224Y004251D02*
X025727Y004251D01*
X026545Y004096D02*
X026565Y012293D01*
X027994Y013722D01*
X028320Y013580D02*
X032338Y013580D01*
X032338Y013696D02*
X028349Y013696D01*
X028341Y013813D02*
X032338Y013813D01*
X032338Y013930D02*
X028289Y013930D01*
X028140Y014046D02*
X032338Y014046D01*
X032338Y014163D02*
X027323Y014163D01*
X027376Y014279D02*
X032338Y014279D01*
X032338Y014396D02*
X027385Y014396D01*
X027356Y014513D02*
X032338Y014513D01*
X032338Y014629D02*
X027920Y014629D01*
X028037Y014746D02*
X032338Y014746D01*
X032338Y014862D02*
X028153Y014862D01*
X028270Y014979D02*
X032338Y014979D01*
X032338Y015096D02*
X028386Y015096D01*
X028503Y015212D02*
X032338Y015212D01*
X032338Y015329D02*
X028620Y015329D01*
X028736Y015446D02*
X032338Y015446D01*
X032338Y015562D02*
X028853Y015562D01*
X028970Y015679D02*
X032338Y015679D01*
X032338Y015795D02*
X029086Y015795D01*
X029203Y015912D02*
X032338Y015912D01*
X032338Y016029D02*
X029319Y016029D01*
X029436Y016145D02*
X032338Y016145D01*
X032338Y016262D02*
X029553Y016262D01*
X029669Y016378D02*
X032338Y016378D01*
X032338Y016495D02*
X029786Y016495D01*
X029902Y016612D02*
X032338Y016612D01*
X032338Y016728D02*
X030019Y016728D01*
X030136Y016845D02*
X032338Y016845D01*
X032338Y016961D02*
X030252Y016961D01*
X030369Y017078D02*
X032338Y017078D01*
X032338Y017195D02*
X030485Y017195D01*
X030602Y017311D02*
X032338Y017311D01*
X032338Y017428D02*
X030719Y017428D01*
X030835Y017545D02*
X032338Y017545D01*
X032338Y017661D02*
X030952Y017661D01*
X031068Y017778D02*
X032338Y017778D01*
X032338Y017894D02*
X031185Y017894D01*
X031302Y018011D02*
X032338Y018011D01*
X032338Y018128D02*
X031418Y018128D01*
X031535Y018244D02*
X032338Y018244D01*
X032338Y018361D02*
X031652Y018361D01*
X031768Y018477D02*
X032338Y018477D01*
X032338Y018594D02*
X031885Y018594D01*
X031891Y018711D02*
X032338Y018711D01*
X032338Y018827D02*
X031891Y018827D01*
X031891Y018944D02*
X032338Y018944D01*
X032338Y019060D02*
X031891Y019060D01*
X031891Y019177D02*
X032338Y019177D01*
X032338Y019294D02*
X031891Y019294D01*
X031891Y019410D02*
X032338Y019410D01*
X032338Y019527D02*
X031891Y019527D01*
X031891Y019644D02*
X032338Y019644D01*
X032338Y019760D02*
X031891Y019760D01*
X031891Y019877D02*
X032338Y019877D01*
X032338Y019993D02*
X031891Y019993D01*
X031891Y020110D02*
X032338Y020110D01*
X032338Y020227D02*
X031891Y020227D01*
X031891Y020343D02*
X032338Y020343D01*
X032338Y020460D02*
X031891Y020460D01*
X031891Y020576D02*
X032338Y020576D01*
X032338Y020693D02*
X031891Y020693D01*
X031891Y020810D02*
X032338Y020810D01*
X032338Y020926D02*
X031891Y020926D01*
X031891Y021043D02*
X032338Y021043D01*
X032338Y021159D02*
X031891Y021159D01*
X031891Y021276D02*
X032338Y021276D01*
X032338Y021393D02*
X031891Y021393D01*
X031891Y021509D02*
X032338Y021509D01*
X032338Y021626D02*
X031891Y021626D01*
X031891Y021742D02*
X032338Y021742D01*
X032338Y021859D02*
X031891Y021859D01*
X031891Y021976D02*
X032338Y021976D01*
X032338Y022092D02*
X031891Y022092D01*
X031891Y022209D02*
X032338Y022209D01*
X032338Y022326D02*
X031891Y022326D01*
X031891Y022442D02*
X032338Y022442D01*
X032338Y022559D02*
X031891Y022559D01*
X031891Y022675D02*
X032338Y022675D01*
X032338Y022792D02*
X031891Y022792D01*
X031891Y022909D02*
X032338Y022909D01*
X032338Y023025D02*
X031891Y023025D01*
X031891Y023142D02*
X032338Y023142D01*
X032338Y023258D02*
X031891Y023258D01*
X031891Y023375D02*
X032338Y023375D01*
X032338Y023492D02*
X031891Y023492D01*
X031891Y023608D02*
X032338Y023608D01*
X032338Y023725D02*
X031891Y023725D01*
X031891Y023841D02*
X032338Y023841D01*
X032338Y023958D02*
X031891Y023958D01*
X031891Y024075D02*
X032338Y024075D01*
X032338Y024191D02*
X031891Y024191D01*
X031891Y024308D02*
X032338Y024308D01*
X032338Y024425D02*
X031891Y024425D01*
X031891Y024541D02*
X032338Y024541D01*
X032338Y024658D02*
X031891Y024658D01*
X031891Y024774D02*
X032338Y024774D01*
X032338Y024891D02*
X031891Y024891D01*
X031993Y025008D02*
X032338Y025008D01*
X032338Y025124D02*
X032096Y025124D01*
X032199Y025241D02*
X032338Y025241D01*
X032338Y025357D02*
X032301Y025357D01*
X032246Y025651D02*
X032246Y027147D01*
X032187Y027206D01*
X032187Y027226D01*
X031891Y026852D02*
X031773Y026970D01*
X026675Y026970D01*
X026807Y026640D02*
X031600Y026640D01*
X031590Y026651D02*
X031690Y026551D01*
X031821Y026496D01*
X031962Y026496D01*
X032009Y026516D01*
X032009Y025740D01*
X031483Y025144D01*
X031419Y025080D01*
X031419Y025071D01*
X031413Y025065D01*
X031419Y024975D01*
X031419Y018796D01*
X027614Y014992D01*
X015430Y014992D01*
X015338Y014996D01*
X015334Y014992D01*
X015327Y014992D01*
X015262Y014927D01*
X014525Y014257D01*
X014476Y014376D01*
X014411Y014441D01*
X014411Y014892D01*
X014446Y014858D01*
X014577Y014803D01*
X014718Y014803D01*
X014849Y014858D01*
X014949Y014958D01*
X015003Y015088D01*
X015003Y015230D01*
X014949Y015360D01*
X014883Y015426D01*
X014883Y015896D01*
X014958Y015822D01*
X015088Y015768D01*
X015230Y015768D01*
X015360Y015822D01*
X015461Y015922D01*
X015515Y016053D01*
X015515Y016145D01*
X028768Y016145D01*
X028651Y016029D02*
X015505Y016029D01*
X015515Y016145D02*
X020433Y021063D01*
X020505Y021063D01*
X020636Y021117D01*
X020736Y021217D01*
X020790Y021348D01*
X020790Y021490D01*
X020736Y021620D01*
X020636Y021720D01*
X020567Y021749D01*
X026024Y027187D01*
X026388Y027187D01*
X026373Y027172D01*
X026319Y027041D01*
X026319Y026899D01*
X026373Y026769D01*
X026473Y026669D01*
X026604Y026614D01*
X026746Y026614D01*
X026876Y026669D01*
X026941Y026734D01*
X031555Y026734D01*
X031590Y026651D01*
X031755Y026524D02*
X025359Y026524D01*
X025476Y026640D02*
X026542Y026640D01*
X026385Y026757D02*
X025593Y026757D01*
X025710Y026873D02*
X026330Y026873D01*
X026319Y026990D02*
X025827Y026990D01*
X025944Y027107D02*
X026346Y027107D01*
X025927Y027423D02*
X014647Y016183D01*
X014647Y015159D01*
X014962Y015329D02*
X027952Y015329D01*
X028068Y015446D02*
X014883Y015446D01*
X014883Y015562D02*
X028185Y015562D01*
X028301Y015679D02*
X014883Y015679D01*
X014883Y015795D02*
X015022Y015795D01*
X015296Y015795D02*
X028418Y015795D01*
X028535Y015912D02*
X015450Y015912D01*
X015159Y016124D02*
X020435Y021399D01*
X020435Y021419D01*
X020760Y021276D02*
X026687Y021276D01*
X026674Y021309D02*
X026728Y021178D01*
X026793Y021113D01*
X026793Y018359D01*
X026728Y018294D01*
X026674Y018163D01*
X026674Y018021D01*
X026728Y017891D01*
X026793Y017825D01*
X026793Y017119D01*
X026728Y017053D01*
X026674Y016923D01*
X026674Y016781D01*
X026728Y016651D01*
X026828Y016551D01*
X026958Y016496D01*
X027100Y016496D01*
X027231Y016551D01*
X027331Y016651D01*
X027385Y016781D01*
X027385Y016923D01*
X027331Y017053D01*
X027265Y017119D01*
X027265Y017825D01*
X027331Y017891D01*
X027385Y018021D01*
X027385Y018163D01*
X027331Y018294D01*
X027265Y018359D01*
X027265Y021113D01*
X027331Y021178D01*
X027385Y021309D01*
X027385Y021450D01*
X027331Y021581D01*
X027231Y021681D01*
X027100Y021735D01*
X026958Y021735D01*
X026828Y021681D01*
X026728Y021581D01*
X026674Y021450D01*
X026674Y021309D01*
X026674Y021393D02*
X020790Y021393D01*
X020782Y021509D02*
X026698Y021509D01*
X026773Y021626D02*
X020731Y021626D01*
X020583Y021742D02*
X031419Y021742D01*
X031419Y021626D02*
X027286Y021626D01*
X027360Y021509D02*
X031419Y021509D01*
X031419Y021393D02*
X027385Y021393D01*
X027371Y021276D02*
X031419Y021276D01*
X031419Y021159D02*
X027312Y021159D01*
X027265Y021043D02*
X031419Y021043D01*
X031419Y020926D02*
X027265Y020926D01*
X027265Y020810D02*
X031419Y020810D01*
X031419Y020693D02*
X027265Y020693D01*
X027265Y020576D02*
X031419Y020576D01*
X031419Y020460D02*
X027265Y020460D01*
X027265Y020343D02*
X031419Y020343D01*
X031419Y020227D02*
X027265Y020227D01*
X027265Y020110D02*
X031419Y020110D01*
X031419Y019993D02*
X027265Y019993D01*
X027265Y019877D02*
X031419Y019877D01*
X031419Y019760D02*
X027265Y019760D01*
X027265Y019644D02*
X031419Y019644D01*
X031419Y019527D02*
X027265Y019527D01*
X027265Y019410D02*
X031419Y019410D01*
X031419Y019294D02*
X027265Y019294D01*
X027265Y019177D02*
X031419Y019177D01*
X031419Y019060D02*
X027265Y019060D01*
X027265Y018944D02*
X031419Y018944D01*
X031419Y018827D02*
X027265Y018827D01*
X027265Y018711D02*
X031333Y018711D01*
X031217Y018594D02*
X027265Y018594D01*
X027265Y018477D02*
X031100Y018477D01*
X030983Y018361D02*
X027265Y018361D01*
X027351Y018244D02*
X030867Y018244D01*
X030750Y018128D02*
X027385Y018128D01*
X027380Y018011D02*
X030634Y018011D01*
X030517Y017894D02*
X027332Y017894D01*
X027265Y017778D02*
X030400Y017778D01*
X030284Y017661D02*
X027265Y017661D01*
X027265Y017545D02*
X030167Y017545D01*
X030051Y017428D02*
X027265Y017428D01*
X027265Y017311D02*
X029934Y017311D01*
X029817Y017195D02*
X027265Y017195D01*
X027306Y017078D02*
X029701Y017078D01*
X029584Y016961D02*
X027369Y016961D01*
X027385Y016845D02*
X029467Y016845D01*
X029351Y016728D02*
X027363Y016728D01*
X027292Y016612D02*
X029234Y016612D01*
X029118Y016495D02*
X015865Y016495D01*
X015981Y016612D02*
X026767Y016612D01*
X026695Y016728D02*
X016098Y016728D01*
X016214Y016845D02*
X026674Y016845D01*
X026690Y016961D02*
X016331Y016961D01*
X016448Y017078D02*
X026752Y017078D01*
X026793Y017195D02*
X016564Y017195D01*
X016681Y017311D02*
X026793Y017311D01*
X026793Y017428D02*
X016797Y017428D01*
X016914Y017545D02*
X026092Y017545D01*
X026151Y017520D02*
X026293Y017520D01*
X026423Y017574D01*
X026524Y017674D01*
X026578Y017805D01*
X026578Y017946D01*
X026524Y018077D01*
X026423Y018177D01*
X026337Y018213D01*
X025612Y018938D01*
X025473Y019076D01*
X024481Y019076D01*
X024450Y019107D01*
X024450Y019833D01*
X024516Y019899D01*
X024570Y020029D01*
X024570Y020171D01*
X024516Y020301D01*
X024416Y020401D01*
X024285Y020456D01*
X024143Y020456D01*
X024013Y020401D01*
X023913Y020301D01*
X023859Y020171D01*
X023859Y020029D01*
X023913Y019899D01*
X023978Y019833D01*
X023978Y019107D01*
X023913Y019042D01*
X023859Y018911D01*
X023859Y018769D01*
X023913Y018639D01*
X024013Y018539D01*
X024143Y018485D01*
X024285Y018485D01*
X024416Y018539D01*
X024481Y018604D01*
X025278Y018604D01*
X025887Y017995D01*
X025866Y017946D01*
X025866Y017805D01*
X025921Y017674D01*
X026021Y017574D01*
X026151Y017520D01*
X026352Y017545D02*
X026793Y017545D01*
X026793Y017661D02*
X026510Y017661D01*
X026566Y017778D02*
X026793Y017778D01*
X026726Y017894D02*
X026578Y017894D01*
X026551Y018011D02*
X026678Y018011D01*
X026674Y018128D02*
X026473Y018128D01*
X026306Y018244D02*
X026707Y018244D01*
X026793Y018361D02*
X026189Y018361D01*
X026072Y018477D02*
X026793Y018477D01*
X026793Y018594D02*
X025956Y018594D01*
X025839Y018711D02*
X026793Y018711D01*
X026793Y018827D02*
X025723Y018827D01*
X025606Y018944D02*
X026793Y018944D01*
X026793Y019060D02*
X025489Y019060D01*
X025376Y018840D02*
X024214Y018840D01*
X024214Y020100D01*
X023859Y020110D02*
X019479Y020110D01*
X019363Y019993D02*
X023873Y019993D01*
X023935Y019877D02*
X019246Y019877D01*
X019130Y019760D02*
X023978Y019760D01*
X023978Y019644D02*
X019013Y019644D01*
X018896Y019527D02*
X023978Y019527D01*
X023978Y019410D02*
X018780Y019410D01*
X018663Y019294D02*
X023978Y019294D01*
X023978Y019177D02*
X018547Y019177D01*
X018430Y019060D02*
X023932Y019060D01*
X023872Y018944D02*
X018313Y018944D01*
X018197Y018827D02*
X023859Y018827D01*
X023883Y018711D02*
X018080Y018711D01*
X017964Y018594D02*
X023957Y018594D01*
X024471Y018594D02*
X025288Y018594D01*
X025404Y018477D02*
X017847Y018477D01*
X017730Y018361D02*
X025521Y018361D01*
X025638Y018244D02*
X017614Y018244D01*
X017497Y018128D02*
X025754Y018128D01*
X025871Y018011D02*
X017380Y018011D01*
X017264Y017894D02*
X025866Y017894D01*
X025878Y017778D02*
X017147Y017778D01*
X017031Y017661D02*
X025934Y017661D01*
X026222Y017876D02*
X026222Y017994D01*
X025376Y018840D01*
X024450Y019177D02*
X026793Y019177D01*
X026793Y019294D02*
X024450Y019294D01*
X024450Y019410D02*
X026793Y019410D01*
X026793Y019527D02*
X024450Y019527D01*
X024450Y019644D02*
X026793Y019644D01*
X026793Y019760D02*
X024450Y019760D01*
X024494Y019877D02*
X026793Y019877D01*
X026793Y019993D02*
X024555Y019993D01*
X024570Y020110D02*
X026793Y020110D01*
X026793Y020227D02*
X024547Y020227D01*
X024474Y020343D02*
X026793Y020343D01*
X026793Y020460D02*
X019829Y020460D01*
X019713Y020343D02*
X023954Y020343D01*
X023882Y020227D02*
X019596Y020227D01*
X019946Y020576D02*
X026793Y020576D01*
X026793Y020693D02*
X020062Y020693D01*
X020179Y020810D02*
X026793Y020810D01*
X026793Y020926D02*
X020296Y020926D01*
X020412Y021043D02*
X026793Y021043D01*
X026746Y021159D02*
X020678Y021159D01*
X020678Y021859D02*
X031419Y021859D01*
X031419Y021976D02*
X020795Y021976D01*
X020912Y022092D02*
X031419Y022092D01*
X031419Y022209D02*
X021029Y022209D01*
X021146Y022326D02*
X031419Y022326D01*
X031419Y022442D02*
X021263Y022442D01*
X021380Y022559D02*
X031419Y022559D01*
X031419Y022675D02*
X021497Y022675D01*
X021614Y022792D02*
X031419Y022792D01*
X031419Y022909D02*
X021731Y022909D01*
X021848Y023025D02*
X031419Y023025D01*
X031419Y023142D02*
X021965Y023142D01*
X022082Y023258D02*
X031419Y023258D01*
X031419Y023375D02*
X022199Y023375D01*
X022316Y023492D02*
X031419Y023492D01*
X031419Y023608D02*
X022433Y023608D01*
X022551Y023725D02*
X031419Y023725D01*
X031419Y023841D02*
X022668Y023841D01*
X022785Y023958D02*
X031419Y023958D01*
X031419Y024075D02*
X022902Y024075D01*
X023019Y024191D02*
X031419Y024191D01*
X031419Y024308D02*
X023136Y024308D01*
X023253Y024425D02*
X031419Y024425D01*
X031419Y024541D02*
X023370Y024541D01*
X023487Y024658D02*
X031419Y024658D01*
X031419Y024774D02*
X023604Y024774D01*
X023721Y024891D02*
X031419Y024891D01*
X031417Y025008D02*
X023838Y025008D01*
X023955Y025124D02*
X031463Y025124D01*
X031569Y025241D02*
X024072Y025241D01*
X024189Y025357D02*
X031671Y025357D01*
X031774Y025474D02*
X024306Y025474D01*
X024423Y025591D02*
X031877Y025591D01*
X031980Y025707D02*
X024540Y025707D01*
X024657Y025824D02*
X032009Y025824D01*
X032009Y025940D02*
X024774Y025940D01*
X024891Y026057D02*
X032009Y026057D01*
X032009Y026174D02*
X025008Y026174D01*
X025125Y026290D02*
X032009Y026290D01*
X032009Y026407D02*
X025242Y026407D01*
X024715Y026990D02*
X019704Y026990D01*
X019708Y026982D02*
X019653Y027112D01*
X019553Y027212D01*
X019423Y027267D01*
X019281Y027267D01*
X019151Y027212D01*
X019051Y027112D01*
X018996Y026982D01*
X018996Y026840D01*
X019051Y026710D01*
X019116Y026644D01*
X019116Y022404D01*
X019331Y022188D01*
X019331Y022096D01*
X019385Y021966D01*
X019485Y021865D01*
X019537Y021844D01*
X018053Y020370D01*
X018053Y030020D01*
X018143Y029930D01*
X018453Y029930D01*
X019021Y029300D01*
X019021Y029293D01*
X019086Y029229D01*
X019148Y029160D01*
X019155Y029160D01*
X019160Y029155D01*
X019251Y029155D01*
X019343Y029150D01*
X019348Y029155D01*
X021642Y029155D01*
X021614Y029088D01*
X021614Y028947D01*
X021669Y028816D01*
X021769Y028716D01*
X021899Y028662D01*
X022025Y028662D01*
X022138Y028566D01*
X022126Y028537D01*
X022126Y028395D01*
X022180Y028265D01*
X022280Y028165D01*
X022411Y028111D01*
X022553Y028111D01*
X022683Y028165D01*
X022783Y028265D01*
X022837Y028395D01*
X022837Y028537D01*
X022783Y028668D01*
X022683Y028768D01*
X022597Y028803D01*
X022580Y028820D01*
X022568Y028820D01*
X022326Y029026D01*
X022326Y029088D01*
X022298Y029155D01*
X026419Y029155D01*
X026125Y028861D01*
X026033Y028861D01*
X025903Y028807D01*
X025802Y028707D01*
X025748Y028576D01*
X025748Y028435D01*
X025802Y028304D01*
X025903Y028204D01*
X025926Y028194D01*
X020010Y022315D01*
X019988Y022368D01*
X019888Y022468D01*
X019757Y022523D01*
X019665Y022523D01*
X019588Y022599D01*
X019588Y026644D01*
X019653Y026710D01*
X019708Y026840D01*
X019708Y026982D01*
X019708Y026873D02*
X024597Y026873D01*
X024480Y026757D02*
X019673Y026757D01*
X019588Y026640D02*
X024363Y026640D01*
X024245Y026524D02*
X019588Y026524D01*
X019588Y026407D02*
X024128Y026407D01*
X024010Y026290D02*
X019588Y026290D01*
X019588Y026174D02*
X023893Y026174D01*
X023776Y026057D02*
X019588Y026057D01*
X019588Y025940D02*
X023658Y025940D01*
X023541Y025824D02*
X019588Y025824D01*
X019588Y025707D02*
X023424Y025707D01*
X023306Y025591D02*
X019588Y025591D01*
X019588Y025474D02*
X023189Y025474D01*
X023072Y025357D02*
X019588Y025357D01*
X019588Y025241D02*
X022954Y025241D01*
X022837Y025124D02*
X019588Y025124D01*
X019588Y025008D02*
X022720Y025008D01*
X022602Y024891D02*
X019588Y024891D01*
X019588Y024774D02*
X022485Y024774D01*
X022368Y024658D02*
X019588Y024658D01*
X019588Y024541D02*
X022250Y024541D01*
X022133Y024425D02*
X019588Y024425D01*
X019588Y024308D02*
X022016Y024308D01*
X021898Y024191D02*
X019588Y024191D01*
X019588Y024075D02*
X021781Y024075D01*
X021664Y023958D02*
X019588Y023958D01*
X019588Y023841D02*
X021546Y023841D01*
X021429Y023725D02*
X019588Y023725D01*
X019588Y023608D02*
X021312Y023608D01*
X021194Y023492D02*
X019588Y023492D01*
X019588Y023375D02*
X021077Y023375D01*
X020960Y023258D02*
X019588Y023258D01*
X019588Y023142D02*
X020842Y023142D01*
X020725Y023025D02*
X019588Y023025D01*
X019588Y022909D02*
X020608Y022909D01*
X020490Y022792D02*
X019588Y022792D01*
X019588Y022675D02*
X020373Y022675D01*
X020256Y022559D02*
X019629Y022559D01*
X019352Y022502D02*
X019687Y022167D01*
X020006Y022326D02*
X020021Y022326D01*
X019914Y022442D02*
X020138Y022442D01*
X019352Y022502D02*
X019352Y026911D01*
X019031Y026757D02*
X018053Y026757D01*
X018053Y026873D02*
X018996Y026873D01*
X019000Y026990D02*
X018053Y026990D01*
X018053Y027107D02*
X019048Y027107D01*
X019176Y027223D02*
X018053Y027223D01*
X018053Y027340D02*
X025067Y027340D01*
X025184Y027456D02*
X018053Y027456D01*
X018053Y027573D02*
X025301Y027573D01*
X025419Y027690D02*
X018053Y027690D01*
X018053Y027806D02*
X025536Y027806D01*
X025653Y027923D02*
X018053Y027923D01*
X018053Y028039D02*
X025771Y028039D01*
X025888Y028156D02*
X022663Y028156D01*
X022787Y028273D02*
X025834Y028273D01*
X025767Y028389D02*
X022835Y028389D01*
X022837Y028506D02*
X025748Y028506D01*
X025768Y028623D02*
X022802Y028623D01*
X022712Y028739D02*
X025835Y028739D01*
X026020Y028856D02*
X022527Y028856D01*
X022389Y028972D02*
X026237Y028972D01*
X026353Y029089D02*
X022325Y029089D01*
X021970Y029017D02*
X022482Y028584D01*
X022482Y028466D01*
X022126Y028506D02*
X018053Y028506D01*
X018053Y028623D02*
X022071Y028623D01*
X022129Y028389D02*
X018053Y028389D01*
X018053Y028273D02*
X022177Y028273D01*
X022301Y028156D02*
X018053Y028156D01*
X018053Y028739D02*
X021745Y028739D01*
X021652Y028856D02*
X018053Y028856D01*
X018053Y028972D02*
X021614Y028972D01*
X021615Y029089D02*
X018053Y029089D01*
X018053Y029206D02*
X019107Y029206D01*
X019002Y029322D02*
X018053Y029322D01*
X018053Y029439D02*
X018896Y029439D01*
X018791Y029555D02*
X018053Y029555D01*
X018053Y029672D02*
X018686Y029672D01*
X018580Y029789D02*
X018053Y029789D01*
X018053Y029905D02*
X018475Y029905D01*
X018817Y030231D02*
X018817Y030605D01*
X018863Y030605D01*
X018863Y030209D01*
X019143Y029930D01*
X019538Y029930D01*
X019779Y030171D01*
X020229Y030171D01*
X020769Y030710D01*
X021069Y030710D01*
X020997Y030638D01*
X020997Y030243D01*
X021276Y029963D01*
X021672Y029963D01*
X021951Y030243D01*
X021951Y030638D01*
X021879Y030710D01*
X022069Y030710D01*
X021997Y030638D01*
X021997Y030243D01*
X022276Y029963D01*
X022672Y029963D01*
X022951Y030243D01*
X022951Y030638D01*
X022879Y030710D01*
X023069Y030710D01*
X022997Y030638D01*
X022997Y030243D01*
X023276Y029963D01*
X023595Y029963D01*
X023583Y029935D01*
X023583Y029793D01*
X023637Y029662D01*
X023672Y029628D01*
X019362Y029628D01*
X018817Y030231D01*
X018817Y030255D02*
X018863Y030255D01*
X018863Y030372D02*
X018817Y030372D01*
X018817Y030488D02*
X018863Y030488D01*
X018863Y030605D02*
X019143Y030884D01*
X019538Y030884D01*
X019779Y030643D01*
X020034Y030643D01*
X020435Y031044D01*
X020573Y031183D01*
X021083Y031183D01*
X021015Y031250D01*
X021015Y031400D01*
X021433Y031400D01*
X021433Y031481D01*
X021015Y031481D01*
X021015Y031631D01*
X021079Y031694D01*
X019702Y031694D01*
X019799Y031597D01*
X019799Y031448D01*
X019381Y031448D01*
X019381Y031366D01*
X019381Y030948D01*
X019530Y030948D01*
X019799Y031217D01*
X019799Y031366D01*
X019381Y031366D01*
X019299Y031366D01*
X018881Y031366D01*
X018881Y031217D01*
X019150Y030948D01*
X019299Y030948D01*
X019299Y031366D01*
X019299Y031448D01*
X018881Y031448D01*
X018881Y031597D01*
X018978Y031694D01*
X018728Y031694D01*
X018817Y031605D01*
X018817Y031209D01*
X018538Y030930D01*
X018143Y030930D01*
X018138Y030934D01*
X018053Y030849D01*
X018053Y030794D01*
X018143Y030884D01*
X018538Y030884D01*
X018817Y030605D01*
X018701Y030721D02*
X018980Y030721D01*
X019096Y030838D02*
X018584Y030838D01*
X018563Y030955D02*
X019143Y030955D01*
X019299Y030955D02*
X019381Y030955D01*
X019381Y031071D02*
X019299Y031071D01*
X019299Y031188D02*
X019381Y031188D01*
X019381Y031305D02*
X019299Y031305D01*
X019340Y031407D02*
X021441Y031407D01*
X021474Y031441D01*
X021433Y031421D02*
X019381Y031421D01*
X019299Y031421D02*
X018817Y031421D01*
X018817Y031305D02*
X018881Y031305D01*
X018910Y031188D02*
X018796Y031188D01*
X018679Y031071D02*
X019027Y031071D01*
X018881Y031538D02*
X018817Y031538D01*
X018768Y031654D02*
X018938Y031654D01*
X018340Y031407D02*
X018277Y031407D01*
X017817Y030946D01*
X017817Y020198D01*
X015612Y017954D01*
X014608Y017954D01*
X014313Y018289D01*
X013995Y018128D02*
X011046Y018128D01*
X011078Y018244D02*
X013957Y018244D01*
X013957Y018361D02*
X011195Y018361D01*
X011311Y018477D02*
X014006Y018477D01*
X014120Y018594D02*
X011428Y018594D01*
X011545Y018711D02*
X014205Y018711D01*
X014222Y018827D02*
X011661Y018827D01*
X011778Y018944D02*
X014234Y018944D01*
X014234Y019060D02*
X011895Y019060D01*
X012011Y019177D02*
X014234Y019177D01*
X014470Y019177D02*
X016048Y019177D01*
X016164Y019294D02*
X014470Y019294D01*
X014470Y019410D02*
X015697Y019410D01*
X015699Y019410D02*
X015840Y019410D01*
X015971Y019464D01*
X016071Y019564D01*
X016125Y019695D01*
X016125Y019836D01*
X016071Y019967D01*
X016006Y020032D01*
X016006Y021694D01*
X015867Y021832D01*
X015751Y021949D01*
X015751Y022041D01*
X015697Y022172D01*
X015597Y022272D01*
X015466Y022326D01*
X015325Y022326D01*
X015194Y022272D01*
X015094Y022172D01*
X015080Y022138D01*
X015046Y022173D01*
X015009Y022188D01*
X016303Y023487D01*
X016309Y023485D01*
X016450Y023485D01*
X016478Y023496D01*
X016478Y022306D01*
X016388Y022306D01*
X016257Y022252D01*
X016157Y022152D01*
X016103Y022021D01*
X016103Y021880D01*
X016157Y021749D01*
X016257Y021649D01*
X016388Y021595D01*
X016529Y021595D01*
X016660Y021649D01*
X016760Y021749D01*
X016814Y021880D01*
X016814Y021972D01*
X016950Y022108D01*
X016950Y025365D01*
X016976Y025391D01*
X017030Y025521D01*
X017030Y025663D01*
X016976Y025794D01*
X016876Y025894D01*
X016746Y025948D01*
X016604Y025948D01*
X016473Y025894D01*
X016373Y025794D01*
X016319Y025663D01*
X016319Y025521D01*
X016373Y025391D01*
X016473Y025291D01*
X016478Y025289D01*
X016478Y024184D01*
X016450Y024196D01*
X016309Y024196D01*
X016178Y024142D01*
X016078Y024042D01*
X016024Y023911D01*
X016024Y023877D01*
X011695Y019529D01*
X010769Y019529D01*
X010769Y021773D01*
X008584Y021773D01*
X008584Y023525D01*
X010750Y023525D01*
X010750Y024923D01*
X011675Y025848D01*
X013072Y025848D01*
X013525Y026301D01*
X017104Y026301D01*
X017104Y020233D01*
X015553Y018683D01*
X014490Y018683D01*
X014470Y018663D01*
X014450Y018722D01*
X014470Y018722D01*
X014470Y019529D01*
X013605Y019529D01*
X013605Y019570D01*
X014061Y020026D01*
X014055Y020013D01*
X014055Y019872D01*
X014110Y019741D01*
X014210Y019641D01*
X014340Y019587D01*
X014482Y019587D01*
X014612Y019641D01*
X014678Y019706D01*
X014784Y019706D01*
X015533Y020455D01*
X015533Y020032D01*
X015468Y019967D01*
X015414Y019836D01*
X015414Y019695D01*
X015468Y019564D01*
X015568Y019464D01*
X015699Y019410D01*
X015841Y019410D02*
X016281Y019410D01*
X016398Y019527D02*
X016034Y019527D01*
X016104Y019644D02*
X016514Y019644D01*
X016631Y019760D02*
X016125Y019760D01*
X016108Y019877D02*
X016747Y019877D01*
X016864Y019993D02*
X016044Y019993D01*
X016006Y020110D02*
X016981Y020110D01*
X017097Y020227D02*
X016006Y020227D01*
X016006Y020343D02*
X017104Y020343D01*
X017104Y020460D02*
X016006Y020460D01*
X016006Y020576D02*
X017104Y020576D01*
X017104Y020693D02*
X016006Y020693D01*
X016006Y020810D02*
X017104Y020810D01*
X017104Y020926D02*
X016006Y020926D01*
X016006Y021043D02*
X017104Y021043D01*
X017104Y021159D02*
X016006Y021159D01*
X016006Y021276D02*
X017104Y021276D01*
X017104Y021393D02*
X016006Y021393D01*
X016006Y021509D02*
X017104Y021509D01*
X017104Y021626D02*
X016604Y021626D01*
X016753Y021742D02*
X017104Y021742D01*
X017104Y021859D02*
X016805Y021859D01*
X016818Y021976D02*
X017104Y021976D01*
X017104Y022092D02*
X016934Y022092D01*
X016950Y022209D02*
X017104Y022209D01*
X017104Y022326D02*
X016950Y022326D01*
X016950Y022442D02*
X017104Y022442D01*
X017104Y022559D02*
X016950Y022559D01*
X016950Y022675D02*
X017104Y022675D01*
X017104Y022792D02*
X016950Y022792D01*
X016950Y022909D02*
X017104Y022909D01*
X017104Y023025D02*
X016950Y023025D01*
X016950Y023142D02*
X017104Y023142D01*
X017104Y023258D02*
X016950Y023258D01*
X016950Y023375D02*
X017104Y023375D01*
X017104Y023492D02*
X016950Y023492D01*
X016950Y023608D02*
X017104Y023608D01*
X017104Y023725D02*
X016950Y023725D01*
X016950Y023841D02*
X017104Y023841D01*
X017104Y023958D02*
X016950Y023958D01*
X016950Y024075D02*
X017104Y024075D01*
X017104Y024191D02*
X016950Y024191D01*
X016950Y024308D02*
X017104Y024308D01*
X017104Y024425D02*
X016950Y024425D01*
X016950Y024541D02*
X017104Y024541D01*
X017104Y024658D02*
X016950Y024658D01*
X016950Y024774D02*
X017104Y024774D01*
X017104Y024891D02*
X016950Y024891D01*
X016950Y025008D02*
X017104Y025008D01*
X017104Y025124D02*
X016950Y025124D01*
X016950Y025241D02*
X017104Y025241D01*
X017104Y025357D02*
X016950Y025357D01*
X017011Y025474D02*
X017104Y025474D01*
X017104Y025591D02*
X017030Y025591D01*
X017012Y025707D02*
X017104Y025707D01*
X017104Y025824D02*
X016946Y025824D01*
X017104Y025940D02*
X016763Y025940D01*
X016587Y025940D02*
X013165Y025940D01*
X013281Y026057D02*
X017104Y026057D01*
X017104Y026174D02*
X013398Y026174D01*
X013515Y026290D02*
X017104Y026290D01*
X017104Y026537D02*
X013427Y026537D01*
X013289Y026399D01*
X012975Y026084D01*
X011577Y026084D01*
X011439Y025946D01*
X010513Y025021D01*
X010513Y023761D01*
X008564Y023761D01*
X010415Y025612D01*
X010415Y031379D01*
X010277Y031517D01*
X009863Y031931D01*
X006902Y031931D01*
X006837Y031996D01*
X006706Y032050D01*
X006565Y032050D01*
X006434Y031996D01*
X006334Y031896D01*
X006309Y031835D01*
X006227Y031917D01*
X006096Y031971D01*
X005954Y031971D01*
X005824Y031917D01*
X005759Y031852D01*
X004817Y031852D01*
X004795Y031867D01*
X004722Y031852D01*
X004648Y031852D01*
X004629Y031833D01*
X004603Y031828D01*
X004562Y031766D01*
X004509Y031714D01*
X004509Y031687D01*
X004366Y031471D01*
X004313Y031420D01*
X004313Y031393D01*
X004298Y031370D01*
X004312Y031298D01*
X004294Y027868D01*
X004247Y027821D01*
X004294Y027923D02*
X001220Y027923D01*
X001220Y028039D02*
X004295Y028039D01*
X004296Y028156D02*
X001220Y028156D01*
X001220Y028273D02*
X004296Y028273D01*
X004297Y028389D02*
X001220Y028389D01*
X001220Y028506D02*
X004298Y028506D01*
X004298Y028623D02*
X001220Y028623D01*
X001220Y028739D02*
X004299Y028739D01*
X004299Y028856D02*
X001220Y028856D01*
X001220Y028972D02*
X004300Y028972D01*
X004301Y029089D02*
X001220Y029089D01*
X001220Y029206D02*
X004301Y029206D01*
X004302Y029322D02*
X001220Y029322D01*
X001220Y029439D02*
X004303Y029439D01*
X004303Y029555D02*
X001220Y029555D01*
X001220Y029672D02*
X004304Y029672D01*
X004304Y029789D02*
X001220Y029789D01*
X001220Y029905D02*
X004305Y029905D01*
X004306Y030022D02*
X001220Y030022D01*
X001220Y030138D02*
X004306Y030138D01*
X004307Y030255D02*
X002436Y030255D01*
X002422Y030247D02*
X002670Y030390D01*
X002873Y030593D01*
X003016Y030841D01*
X003091Y031118D01*
X003091Y031405D01*
X003016Y031682D01*
X002873Y031930D01*
X002701Y032102D01*
X017701Y032102D01*
X017483Y031884D01*
X017143Y031884D01*
X016863Y031605D01*
X016863Y031209D01*
X017143Y030930D01*
X017538Y030930D01*
X017580Y030972D01*
X017580Y030842D01*
X017538Y030884D01*
X017143Y030884D01*
X016863Y030605D01*
X010415Y030605D01*
X010415Y030721D02*
X016980Y030721D01*
X016863Y030605D02*
X016863Y030209D01*
X017104Y029968D01*
X017104Y026537D01*
X017104Y026640D02*
X010415Y026640D01*
X010415Y026524D02*
X013414Y026524D01*
X013297Y026407D02*
X010415Y026407D01*
X010415Y026290D02*
X013181Y026290D01*
X013064Y026174D02*
X010415Y026174D01*
X010415Y026057D02*
X011550Y026057D01*
X011433Y025940D02*
X010415Y025940D01*
X010415Y025824D02*
X011317Y025824D01*
X011200Y025707D02*
X010415Y025707D01*
X010393Y025591D02*
X011083Y025591D01*
X010967Y025474D02*
X010277Y025474D01*
X010160Y025357D02*
X010850Y025357D01*
X010734Y025241D02*
X010043Y025241D01*
X009927Y025124D02*
X010617Y025124D01*
X010513Y025008D02*
X009810Y025008D01*
X009694Y024891D02*
X010513Y024891D01*
X010513Y024774D02*
X009577Y024774D01*
X009460Y024658D02*
X010513Y024658D01*
X010513Y024541D02*
X009344Y024541D01*
X009227Y024425D02*
X010513Y024425D01*
X010513Y024308D02*
X009110Y024308D01*
X008994Y024191D02*
X010513Y024191D01*
X010513Y024075D02*
X008877Y024075D01*
X008761Y023958D02*
X010513Y023958D01*
X010513Y023841D02*
X008644Y023841D01*
X008584Y023492D02*
X013284Y023492D01*
X013289Y023497D02*
X013224Y023431D01*
X013170Y023301D01*
X013170Y023159D01*
X013224Y023028D01*
X013324Y022928D01*
X013454Y022874D01*
X013596Y022874D01*
X013727Y022928D01*
X013827Y023028D01*
X013881Y023159D01*
X013881Y023301D01*
X013827Y023431D01*
X013761Y023497D01*
X013761Y024273D01*
X013605Y024429D01*
X013605Y024521D01*
X013551Y024652D01*
X013451Y024752D01*
X013320Y024806D01*
X013179Y024806D01*
X013048Y024752D01*
X012948Y024652D01*
X012894Y024521D01*
X012894Y024380D01*
X012948Y024249D01*
X013048Y024149D01*
X013179Y024095D01*
X013271Y024095D01*
X013289Y024077D01*
X013289Y023497D01*
X013289Y023608D02*
X010750Y023608D01*
X010750Y023725D02*
X013289Y023725D01*
X013289Y023841D02*
X010750Y023841D01*
X010750Y023958D02*
X013289Y023958D01*
X013289Y024075D02*
X010750Y024075D01*
X010750Y024191D02*
X013006Y024191D01*
X012924Y024308D02*
X010750Y024308D01*
X010750Y024425D02*
X012894Y024425D01*
X012902Y024541D02*
X010750Y024541D01*
X010750Y024658D02*
X012954Y024658D01*
X013103Y024774D02*
X010750Y024774D01*
X010750Y024891D02*
X016478Y024891D01*
X016478Y025008D02*
X010834Y025008D01*
X010951Y025124D02*
X016478Y025124D01*
X016478Y025241D02*
X011068Y025241D01*
X011184Y025357D02*
X016407Y025357D01*
X016339Y025474D02*
X011301Y025474D01*
X011417Y025591D02*
X016319Y025591D01*
X016338Y025707D02*
X011534Y025707D01*
X011651Y025824D02*
X016404Y025824D01*
X016675Y025592D02*
X016714Y025553D01*
X016714Y022206D01*
X016458Y021950D01*
X016313Y021626D02*
X016006Y021626D01*
X015957Y021742D02*
X016163Y021742D01*
X016111Y021859D02*
X015840Y021859D01*
X015867Y021832D02*
X015867Y021832D01*
X015751Y021976D02*
X016103Y021976D01*
X016132Y022092D02*
X015730Y022092D01*
X015659Y022209D02*
X016214Y022209D01*
X016478Y022326D02*
X015466Y022326D01*
X015324Y022326D02*
X015146Y022326D01*
X015131Y022209D02*
X015030Y022209D01*
X015262Y022442D02*
X016478Y022442D01*
X016478Y022559D02*
X015378Y022559D01*
X015494Y022675D02*
X016478Y022675D01*
X016478Y022792D02*
X015610Y022792D01*
X015727Y022909D02*
X016478Y022909D01*
X016478Y023025D02*
X015843Y023025D01*
X015959Y023142D02*
X016478Y023142D01*
X016478Y023258D02*
X016075Y023258D01*
X016191Y023375D02*
X016478Y023375D01*
X016467Y023492D02*
X016478Y023492D01*
X016380Y023840D02*
X016399Y023919D01*
X011773Y019273D01*
X010691Y018191D01*
X010376Y018361D02*
X009042Y018361D01*
X008926Y018477D02*
X010475Y018477D01*
X010335Y018244D02*
X009159Y018244D01*
X009276Y018128D02*
X010335Y018128D01*
X010380Y018011D02*
X009392Y018011D01*
X009509Y017894D02*
X010484Y017894D01*
X010897Y017894D02*
X014346Y017894D01*
X014449Y017778D02*
X009625Y017778D01*
X009742Y017661D02*
X015327Y017661D01*
X015210Y017545D02*
X009859Y017545D01*
X009975Y017428D02*
X015093Y017428D01*
X014975Y017311D02*
X010092Y017311D01*
X010208Y017195D02*
X014858Y017195D01*
X014741Y017078D02*
X010326Y017078D01*
X010442Y016961D02*
X014623Y016961D01*
X014506Y016845D02*
X010555Y016845D01*
X010669Y016728D02*
X014389Y016728D01*
X014271Y016612D02*
X010783Y016612D01*
X010897Y016495D02*
X014154Y016495D01*
X014077Y016419D02*
X014077Y016419D01*
X014036Y016378D02*
X011012Y016378D01*
X011126Y016262D02*
X013939Y016262D01*
X013938Y016145D02*
X011240Y016145D01*
X011354Y016029D02*
X013939Y016029D01*
X013939Y015912D02*
X011468Y015912D01*
X011582Y015795D02*
X013939Y015795D01*
X013939Y015679D02*
X011697Y015679D01*
X011811Y015562D02*
X013939Y015562D01*
X013939Y015446D02*
X011925Y015446D01*
X012039Y015329D02*
X013939Y015329D01*
X014411Y014862D02*
X014441Y014862D01*
X014411Y014746D02*
X015063Y014746D01*
X015191Y014862D02*
X014854Y014862D01*
X014958Y014979D02*
X015314Y014979D01*
X015425Y014756D02*
X013269Y012797D01*
X012947Y012647D02*
X010415Y012647D01*
X010415Y012763D02*
X010655Y012763D01*
X010500Y012880D02*
X010458Y012938D01*
X010428Y012997D02*
X010415Y012997D01*
X010415Y012530D02*
X013033Y012530D01*
X013088Y012064D02*
X018596Y012064D01*
X018479Y011947D02*
X013165Y011947D01*
X013192Y011831D02*
X018363Y011831D01*
X018246Y011714D02*
X013180Y011714D01*
X013124Y011597D02*
X018129Y011597D01*
X018013Y011481D02*
X012964Y011481D01*
X012734Y011364D02*
X017896Y011364D01*
X017780Y011248D02*
X017585Y011248D01*
X017324Y011006D02*
X017872Y011006D01*
X019317Y012450D01*
X019488Y011944D02*
X016813Y009269D01*
X016813Y005110D01*
X016494Y004951D02*
X010376Y004951D01*
X010376Y005067D02*
X016457Y005067D01*
X016458Y005184D02*
X010376Y005184D01*
X010376Y005225D02*
X014683Y009532D01*
X014775Y009532D01*
X014906Y009586D01*
X015006Y009686D01*
X015060Y009817D01*
X015060Y009958D01*
X015006Y010089D01*
X014906Y010189D01*
X014775Y010243D01*
X014634Y010243D01*
X014503Y010189D01*
X014403Y010089D01*
X014349Y009958D01*
X014349Y009866D01*
X012454Y007971D01*
X012483Y008041D01*
X012483Y008183D01*
X012429Y008313D01*
X012329Y008413D01*
X012198Y008467D01*
X012057Y008467D01*
X011926Y008413D01*
X011861Y008348D01*
X010504Y008348D01*
X010439Y008413D01*
X010309Y008467D01*
X010167Y008467D01*
X010036Y008413D01*
X009936Y008313D01*
X009882Y008183D01*
X009882Y008041D01*
X009936Y007910D01*
X010036Y007810D01*
X010167Y007756D01*
X010309Y007756D01*
X010439Y007810D01*
X010504Y007876D01*
X011861Y007876D01*
X011926Y007810D01*
X012057Y007756D01*
X012198Y007756D01*
X012268Y007785D01*
X009903Y005420D01*
X009903Y004146D01*
X009838Y004081D01*
X009784Y003950D01*
X009784Y003809D01*
X009838Y003678D01*
X009938Y003578D01*
X010069Y003524D01*
X010210Y003524D01*
X010341Y003578D01*
X010441Y003678D01*
X010495Y003809D01*
X010495Y003950D01*
X010441Y004081D01*
X010376Y004146D01*
X010376Y005225D01*
X010451Y005300D02*
X016507Y005300D01*
X016576Y005417D02*
X010568Y005417D01*
X010685Y005534D02*
X016576Y005534D01*
X016576Y005650D02*
X010801Y005650D01*
X010918Y005767D02*
X016576Y005767D01*
X016576Y005883D02*
X011034Y005883D01*
X011151Y006000D02*
X016576Y006000D01*
X016576Y006117D02*
X011268Y006117D01*
X011384Y006233D02*
X016576Y006233D01*
X016576Y006350D02*
X011501Y006350D01*
X011618Y006467D02*
X016576Y006467D01*
X016576Y006583D02*
X011734Y006583D01*
X011851Y006700D02*
X016576Y006700D01*
X016576Y006816D02*
X011967Y006816D01*
X012084Y006933D02*
X016576Y006933D01*
X016576Y007050D02*
X012201Y007050D01*
X012317Y007166D02*
X016576Y007166D01*
X016576Y007283D02*
X012434Y007283D01*
X012550Y007399D02*
X016576Y007399D01*
X016576Y007516D02*
X012667Y007516D01*
X012784Y007633D02*
X016576Y007633D01*
X016576Y007749D02*
X012900Y007749D01*
X013017Y007866D02*
X016576Y007866D01*
X016576Y007982D02*
X013133Y007982D01*
X013250Y008099D02*
X016576Y008099D01*
X016576Y008216D02*
X013367Y008216D01*
X013483Y008332D02*
X016576Y008332D01*
X016576Y008449D02*
X013600Y008449D01*
X013717Y008566D02*
X016576Y008566D01*
X016576Y008682D02*
X013833Y008682D01*
X013950Y008799D02*
X016576Y008799D01*
X016576Y008915D02*
X014066Y008915D01*
X014183Y009032D02*
X016576Y009032D01*
X016576Y009149D02*
X014300Y009149D01*
X014416Y009265D02*
X016576Y009265D01*
X016591Y009382D02*
X014533Y009382D01*
X014649Y009498D02*
X016708Y009498D01*
X016824Y009615D02*
X014935Y009615D01*
X015025Y009732D02*
X016941Y009732D01*
X017057Y009848D02*
X015060Y009848D01*
X015057Y009965D02*
X017174Y009965D01*
X017291Y010081D02*
X015009Y010081D01*
X014884Y010198D02*
X017407Y010198D01*
X017524Y010315D02*
X011692Y010315D01*
X011809Y010431D02*
X017641Y010431D01*
X017757Y010548D02*
X011925Y010548D01*
X012042Y010664D02*
X017218Y010664D01*
X017046Y010781D02*
X012158Y010781D01*
X012275Y010898D02*
X016984Y010898D01*
X016969Y011014D02*
X012392Y011014D01*
X012510Y011131D02*
X016991Y011131D01*
X017064Y011248D02*
X012625Y011248D01*
X012403Y011360D02*
X012383Y011340D01*
X012190Y011481D02*
X011228Y011481D01*
X011286Y011364D02*
X012073Y011364D01*
X011957Y011248D02*
X011310Y011248D01*
X011310Y011131D02*
X011840Y011131D01*
X011724Y011014D02*
X011310Y011014D01*
X011310Y010781D02*
X011490Y010781D01*
X011374Y010664D02*
X011310Y010664D01*
X011607Y010898D02*
X010892Y010898D01*
X010892Y010878D02*
X010892Y010182D01*
X009254Y008544D01*
X009254Y008349D01*
X009254Y006875D01*
X009220Y006955D01*
X009155Y007020D01*
X009155Y009156D01*
X010277Y010277D01*
X010415Y010416D01*
X010415Y010474D01*
X010425Y010443D01*
X010458Y010378D01*
X010500Y010320D01*
X010552Y010269D01*
X010610Y010226D01*
X010674Y010193D01*
X010743Y010171D01*
X010810Y010161D01*
X010810Y010878D01*
X010892Y010878D01*
X010892Y010781D02*
X010810Y010781D01*
X010810Y010664D02*
X010892Y010664D01*
X010892Y010548D02*
X010810Y010548D01*
X010810Y010431D02*
X010892Y010431D01*
X010892Y010315D02*
X010810Y010315D01*
X010810Y010198D02*
X010892Y010198D01*
X010791Y010081D02*
X010081Y010081D01*
X009964Y009965D02*
X010674Y009965D01*
X010557Y009848D02*
X009848Y009848D01*
X009731Y009732D02*
X010441Y009732D01*
X010324Y009615D02*
X009614Y009615D01*
X009498Y009498D02*
X010208Y009498D01*
X010091Y009382D02*
X009381Y009382D01*
X009265Y009265D02*
X009974Y009265D01*
X009858Y009149D02*
X009155Y009149D01*
X009155Y009032D02*
X009741Y009032D01*
X009625Y008915D02*
X009155Y008915D01*
X009155Y008799D02*
X009508Y008799D01*
X009391Y008682D02*
X009155Y008682D01*
X009155Y008566D02*
X009275Y008566D01*
X009254Y008449D02*
X009155Y008449D01*
X009155Y008332D02*
X009254Y008332D01*
X009254Y008216D02*
X009155Y008216D01*
X009155Y008099D02*
X009254Y008099D01*
X009254Y007982D02*
X009155Y007982D01*
X009155Y007866D02*
X009254Y007866D01*
X009254Y007749D02*
X009155Y007749D01*
X009155Y007633D02*
X009254Y007633D01*
X009254Y007516D02*
X009155Y007516D01*
X009155Y007399D02*
X009254Y007399D01*
X009254Y007283D02*
X009155Y007283D01*
X009155Y007166D02*
X009254Y007166D01*
X009254Y007050D02*
X009155Y007050D01*
X009229Y006933D02*
X009254Y006933D01*
X008919Y006754D02*
X008919Y009254D01*
X010179Y010513D01*
X010179Y014962D01*
X010376Y015159D01*
X010257Y015277D01*
X008722Y015277D01*
X008191Y014785D02*
X009628Y014785D01*
X009858Y014513D02*
X009943Y014513D01*
X009943Y014396D02*
X007447Y014396D01*
X007563Y014513D02*
X007960Y014513D01*
X007870Y014629D02*
X007680Y014629D01*
X007796Y014746D02*
X007835Y014746D01*
X007478Y015096D02*
X007110Y015096D01*
X007132Y015086D02*
X007001Y015141D01*
X006907Y015141D01*
X005553Y016478D01*
X005553Y022865D01*
X005627Y022791D01*
X005758Y022737D01*
X005899Y022737D01*
X006030Y022791D01*
X006095Y022856D01*
X007127Y022856D01*
X007265Y022994D01*
X007265Y022994D01*
X007994Y023723D01*
X007994Y018741D01*
X010061Y016674D01*
X010129Y016605D01*
X010696Y016025D01*
X008408Y016025D01*
X007272Y014890D01*
X007232Y014986D01*
X007132Y015086D01*
X007235Y014979D02*
X007362Y014979D01*
X007595Y015212D02*
X006834Y015212D01*
X006716Y015329D02*
X007711Y015329D01*
X007828Y015446D02*
X006598Y015446D01*
X006480Y015562D02*
X007945Y015562D01*
X008061Y015679D02*
X006362Y015679D01*
X006244Y015795D02*
X008178Y015795D01*
X008294Y015912D02*
X006126Y015912D01*
X006007Y016029D02*
X010693Y016029D01*
X010579Y016145D02*
X005889Y016145D01*
X005771Y016262D02*
X010465Y016262D01*
X010350Y016378D02*
X005653Y016378D01*
X005553Y016495D02*
X010236Y016495D01*
X010129Y016605D02*
X010129Y016605D01*
X010122Y016612D02*
X005553Y016612D01*
X005553Y016728D02*
X010007Y016728D01*
X009890Y016845D02*
X005553Y016845D01*
X005553Y016961D02*
X009773Y016961D01*
X009657Y017078D02*
X005553Y017078D01*
X005553Y017195D02*
X009540Y017195D01*
X009424Y017311D02*
X005553Y017311D01*
X005553Y017428D02*
X009307Y017428D01*
X009190Y017545D02*
X005553Y017545D01*
X005553Y017661D02*
X009074Y017661D01*
X008957Y017778D02*
X005553Y017778D01*
X005553Y017894D02*
X008841Y017894D01*
X008724Y018011D02*
X005553Y018011D01*
X005553Y018128D02*
X008607Y018128D01*
X008491Y018244D02*
X005553Y018244D01*
X005553Y018361D02*
X008374Y018361D01*
X008258Y018477D02*
X005553Y018477D01*
X005553Y018594D02*
X008141Y018594D01*
X008024Y018711D02*
X005553Y018711D01*
X005553Y018827D02*
X007994Y018827D01*
X007994Y018944D02*
X005553Y018944D01*
X005553Y019060D02*
X007994Y019060D01*
X007994Y019177D02*
X005553Y019177D01*
X005553Y019294D02*
X007994Y019294D01*
X007994Y019410D02*
X005553Y019410D01*
X005553Y019527D02*
X007994Y019527D01*
X007994Y019644D02*
X005553Y019644D01*
X005553Y019760D02*
X007994Y019760D01*
X007994Y019877D02*
X005553Y019877D01*
X005553Y019993D02*
X007994Y019993D01*
X007994Y020110D02*
X005553Y020110D01*
X005553Y020227D02*
X007994Y020227D01*
X007994Y020343D02*
X005553Y020343D01*
X005553Y020460D02*
X007994Y020460D01*
X007994Y020576D02*
X005553Y020576D01*
X005553Y020693D02*
X007994Y020693D01*
X007994Y020810D02*
X005553Y020810D01*
X005553Y020926D02*
X007994Y020926D01*
X007994Y021043D02*
X005553Y021043D01*
X005553Y021159D02*
X007994Y021159D01*
X007994Y021276D02*
X005553Y021276D01*
X005553Y021393D02*
X007994Y021393D01*
X007994Y021509D02*
X005553Y021509D01*
X005553Y021626D02*
X007994Y021626D01*
X007994Y021742D02*
X005553Y021742D01*
X005553Y021859D02*
X007994Y021859D01*
X007994Y021976D02*
X005553Y021976D01*
X005553Y022092D02*
X007994Y022092D01*
X007994Y022209D02*
X005553Y022209D01*
X005553Y022326D02*
X007994Y022326D01*
X007994Y022442D02*
X005553Y022442D01*
X005553Y022559D02*
X007994Y022559D01*
X007994Y022675D02*
X005553Y022675D01*
X005553Y022792D02*
X005626Y022792D01*
X005828Y023092D02*
X007029Y023092D01*
X009529Y025592D01*
X009529Y027187D01*
X009208Y027340D02*
X008658Y027340D01*
X008722Y027456D02*
X009296Y027456D01*
X009174Y027223D02*
X008542Y027223D01*
X008425Y027107D02*
X009177Y027107D01*
X009226Y026990D02*
X008308Y026990D01*
X008192Y026873D02*
X009293Y026873D01*
X009293Y026757D02*
X008075Y026757D01*
X007958Y026640D02*
X009293Y026640D01*
X009293Y026524D02*
X007842Y026524D01*
X007725Y026407D02*
X009293Y026407D01*
X009293Y026290D02*
X007609Y026290D01*
X007492Y026174D02*
X009293Y026174D01*
X009293Y026057D02*
X007375Y026057D01*
X007259Y025940D02*
X009293Y025940D01*
X009293Y025824D02*
X007142Y025824D01*
X007026Y025707D02*
X009293Y025707D01*
X009194Y025591D02*
X006971Y025591D01*
X006944Y025474D02*
X009077Y025474D01*
X008960Y025357D02*
X006864Y025357D01*
X006616Y025612D02*
X006616Y025631D01*
X008486Y027502D01*
X008486Y028053D01*
X008033Y028506D01*
X006202Y028506D01*
X006119Y028856D02*
X005755Y028856D01*
X005587Y028856D02*
X005190Y028856D01*
X005190Y028972D02*
X009943Y028972D01*
X009943Y028856D02*
X006286Y028856D01*
X005691Y028486D02*
X005671Y028506D01*
X005691Y028486D02*
X005691Y024490D01*
X006006Y024658D02*
X008261Y024658D01*
X008377Y024774D02*
X005927Y024774D01*
X005927Y024891D02*
X008494Y024891D01*
X008611Y025008D02*
X005927Y025008D01*
X005927Y025124D02*
X008727Y025124D01*
X008844Y025241D02*
X005927Y025241D01*
X005927Y025357D02*
X006367Y025357D01*
X006288Y025474D02*
X005927Y025474D01*
X005927Y025591D02*
X006260Y025591D01*
X006270Y025707D02*
X005927Y025707D01*
X005927Y025824D02*
X006325Y025824D01*
X006480Y025940D02*
X005927Y025940D01*
X005927Y026057D02*
X006707Y026057D01*
X006824Y026174D02*
X005927Y026174D01*
X005927Y026290D02*
X006940Y026290D01*
X007057Y026407D02*
X005927Y026407D01*
X005927Y026524D02*
X007174Y026524D01*
X007290Y026640D02*
X005927Y026640D01*
X005927Y026757D02*
X007407Y026757D01*
X007524Y026873D02*
X005927Y026873D01*
X005927Y026990D02*
X007408Y026990D01*
X007556Y026990D02*
X007640Y026990D01*
X007747Y027107D02*
X007757Y027107D01*
X007817Y027223D02*
X007873Y027223D01*
X007837Y027340D02*
X007990Y027340D01*
X008107Y027456D02*
X007820Y027456D01*
X007756Y027573D02*
X008223Y027573D01*
X008250Y027690D02*
X007577Y027690D01*
X007383Y027806D02*
X008229Y027806D01*
X008155Y027923D02*
X007267Y027923D01*
X007150Y028039D02*
X008130Y028039D01*
X008048Y028156D02*
X007034Y028156D01*
X006773Y027690D02*
X006350Y027690D01*
X006055Y027690D02*
X005927Y027690D01*
X005927Y027573D02*
X006889Y027573D01*
X007006Y027456D02*
X005927Y027456D01*
X005927Y027340D02*
X007123Y027340D01*
X007147Y027223D02*
X005927Y027223D01*
X005927Y027107D02*
X007217Y027107D01*
X008367Y028506D02*
X009943Y028506D01*
X009943Y028623D02*
X008250Y028623D01*
X008134Y028739D02*
X009943Y028739D01*
X009943Y028389D02*
X008603Y028389D01*
X008769Y028273D02*
X009943Y028273D01*
X009943Y028156D02*
X008828Y028156D01*
X008841Y028039D02*
X009943Y028039D01*
X009943Y027923D02*
X008817Y027923D01*
X008742Y027806D02*
X009943Y027806D01*
X009943Y027690D02*
X008722Y027690D01*
X008722Y027573D02*
X009943Y027573D01*
X009943Y027456D02*
X009762Y027456D01*
X009851Y027340D02*
X009943Y027340D01*
X009943Y027223D02*
X009885Y027223D01*
X009881Y027107D02*
X009943Y027107D01*
X009943Y026990D02*
X009833Y026990D01*
X009765Y026873D02*
X009943Y026873D01*
X009943Y026757D02*
X009765Y026757D01*
X009765Y026640D02*
X009943Y026640D01*
X009943Y026524D02*
X009765Y026524D01*
X009765Y026407D02*
X009943Y026407D01*
X009943Y026290D02*
X009765Y026290D01*
X009765Y026174D02*
X009943Y026174D01*
X009943Y026057D02*
X009765Y026057D01*
X009765Y025940D02*
X009943Y025940D01*
X009943Y025824D02*
X009765Y025824D01*
X009765Y025707D02*
X009842Y025707D01*
X010415Y026757D02*
X017104Y026757D01*
X017104Y026873D02*
X010415Y026873D01*
X010415Y026990D02*
X017104Y026990D01*
X017104Y027107D02*
X010415Y027107D01*
X010415Y027223D02*
X017104Y027223D01*
X017104Y027340D02*
X010415Y027340D01*
X010415Y027456D02*
X017104Y027456D01*
X017104Y027573D02*
X010415Y027573D01*
X010415Y027690D02*
X017104Y027690D01*
X017104Y027806D02*
X010415Y027806D01*
X010415Y027923D02*
X017104Y027923D01*
X017104Y028039D02*
X010415Y028039D01*
X010415Y028156D02*
X017104Y028156D01*
X017104Y028273D02*
X010415Y028273D01*
X010415Y028389D02*
X017104Y028389D01*
X017104Y028506D02*
X010415Y028506D01*
X010415Y028623D02*
X017104Y028623D01*
X017104Y028739D02*
X010415Y028739D01*
X010415Y028856D02*
X017104Y028856D01*
X017104Y028972D02*
X010415Y028972D01*
X010415Y029089D02*
X017104Y029089D01*
X017104Y029206D02*
X010415Y029206D01*
X010415Y029322D02*
X017104Y029322D01*
X017104Y029439D02*
X010415Y029439D01*
X010415Y029555D02*
X017104Y029555D01*
X017104Y029672D02*
X010415Y029672D01*
X010415Y029789D02*
X017104Y029789D01*
X017104Y029905D02*
X010415Y029905D01*
X010415Y030022D02*
X017051Y030022D01*
X016934Y030138D02*
X010415Y030138D01*
X010415Y030255D02*
X016863Y030255D01*
X016863Y030372D02*
X010415Y030372D01*
X010415Y030488D02*
X016863Y030488D01*
X017096Y030838D02*
X010415Y030838D01*
X010415Y030955D02*
X017118Y030955D01*
X017001Y031071D02*
X010415Y031071D01*
X010415Y031188D02*
X016884Y031188D01*
X016863Y031305D02*
X010415Y031305D01*
X010373Y031421D02*
X016863Y031421D01*
X016863Y031538D02*
X010256Y031538D01*
X010140Y031654D02*
X016913Y031654D01*
X017029Y031771D02*
X010023Y031771D01*
X009906Y031888D02*
X017487Y031888D01*
X017603Y032004D02*
X006817Y032004D01*
X006454Y032004D02*
X002799Y032004D01*
X002897Y031888D02*
X005794Y031888D01*
X006025Y031616D02*
X004746Y031616D01*
X004549Y031320D01*
X004529Y027639D01*
X004549Y027620D01*
X004569Y027639D01*
X005297Y027856D02*
X005415Y027738D01*
X005415Y024785D01*
X005317Y024687D01*
X005317Y016380D01*
X005376Y016320D01*
X006931Y014785D01*
X006610Y014629D02*
X001217Y014629D01*
X001217Y014513D02*
X006700Y014513D01*
X006779Y014396D02*
X001217Y014396D01*
X001217Y014279D02*
X006662Y014279D01*
X006545Y014163D02*
X001217Y014163D01*
X001217Y014046D02*
X006429Y014046D01*
X006312Y013930D02*
X001217Y013930D01*
X001217Y013813D02*
X006195Y013813D01*
X006079Y013696D02*
X001217Y013696D01*
X001217Y013580D02*
X005962Y013580D01*
X005846Y013463D02*
X001217Y013463D01*
X001217Y013347D02*
X005729Y013347D01*
X005612Y013230D02*
X001217Y013230D01*
X001217Y013113D02*
X005496Y013113D01*
X005379Y012997D02*
X001217Y012997D01*
X001217Y012880D02*
X005263Y012880D01*
X005146Y012763D02*
X001217Y012763D01*
X001217Y012647D02*
X005029Y012647D01*
X004913Y012530D02*
X001217Y012530D01*
X001217Y012414D02*
X004796Y012414D01*
X004680Y012297D02*
X001217Y012297D01*
X001217Y012180D02*
X004563Y012180D01*
X004446Y012064D02*
X001217Y012064D01*
X001217Y011947D02*
X004330Y011947D01*
X004213Y011831D02*
X001217Y011831D01*
X001217Y011714D02*
X004096Y011714D01*
X004096Y011597D02*
X001217Y011597D01*
X001217Y011481D02*
X004096Y011481D01*
X004096Y011364D02*
X001217Y011364D01*
X001216Y011248D02*
X004096Y011248D01*
X004096Y011131D02*
X001216Y011131D01*
X001216Y011014D02*
X004096Y011014D01*
X004096Y010898D02*
X001216Y010898D01*
X001216Y010781D02*
X004096Y010781D01*
X004096Y010664D02*
X001216Y010664D01*
X001216Y010548D02*
X004096Y010548D01*
X004096Y010431D02*
X001216Y010431D01*
X001216Y010315D02*
X004096Y010315D01*
X004765Y011714D02*
X009943Y011714D01*
X009943Y011831D02*
X004881Y011831D01*
X004998Y011947D02*
X009943Y011947D01*
X009943Y012064D02*
X005114Y012064D01*
X005231Y012180D02*
X009943Y012180D01*
X009943Y012297D02*
X005348Y012297D01*
X005464Y012414D02*
X009943Y012414D01*
X009943Y012530D02*
X005581Y012530D01*
X005697Y012647D02*
X009943Y012647D01*
X009943Y012763D02*
X009315Y012763D01*
X009341Y012774D02*
X009475Y012909D01*
X009548Y013084D01*
X009548Y013874D01*
X009475Y014049D01*
X009341Y014183D01*
X009166Y014256D01*
X008976Y014256D01*
X008800Y014183D01*
X008666Y014049D01*
X008593Y013874D01*
X008593Y013084D01*
X008666Y012909D01*
X008800Y012774D01*
X008976Y012702D01*
X009166Y012702D01*
X009341Y012774D01*
X009447Y012880D02*
X009943Y012880D01*
X009943Y012997D02*
X009512Y012997D01*
X009548Y013113D02*
X009943Y013113D01*
X009943Y013230D02*
X009548Y013230D01*
X009548Y013347D02*
X009943Y013347D01*
X009943Y013463D02*
X009548Y013463D01*
X009548Y013580D02*
X009943Y013580D01*
X009943Y013696D02*
X009548Y013696D01*
X009548Y013813D02*
X009943Y013813D01*
X009943Y013930D02*
X009525Y013930D01*
X009476Y014046D02*
X009943Y014046D01*
X009943Y014163D02*
X009361Y014163D01*
X009397Y014513D02*
X008421Y014513D01*
X008780Y014163D02*
X007213Y014163D01*
X007097Y014046D02*
X008665Y014046D01*
X008617Y013930D02*
X006980Y013930D01*
X006864Y013813D02*
X008593Y013813D01*
X008593Y013696D02*
X006747Y013696D01*
X006630Y013580D02*
X008593Y013580D01*
X008593Y013463D02*
X006514Y013463D01*
X006397Y013347D02*
X008593Y013347D01*
X008593Y013230D02*
X006281Y013230D01*
X006164Y013113D02*
X008593Y013113D01*
X008630Y012997D02*
X006047Y012997D01*
X005931Y012880D02*
X008695Y012880D01*
X008826Y012763D02*
X005814Y012763D01*
X007330Y014279D02*
X009943Y014279D01*
X010415Y014279D02*
X011945Y014279D01*
X012061Y014163D02*
X011103Y014163D01*
X011224Y014046D02*
X012178Y014046D01*
X012401Y013930D02*
X011284Y013930D01*
X010892Y013930D02*
X010810Y013930D01*
X010810Y014046D02*
X010892Y014046D01*
X010892Y014163D02*
X010810Y014163D01*
X010598Y014163D02*
X010415Y014163D01*
X010415Y014046D02*
X010477Y014046D01*
X010417Y013930D02*
X010415Y013930D01*
X010415Y014396D02*
X011828Y014396D01*
X011712Y014513D02*
X010415Y014513D01*
X010415Y014629D02*
X011595Y014629D01*
X011478Y014746D02*
X010415Y014746D01*
X010582Y014862D02*
X011362Y014862D01*
X011245Y014979D02*
X010686Y014979D01*
X010731Y015096D02*
X011129Y015096D01*
X011012Y015212D02*
X010731Y015212D01*
X010690Y015329D02*
X010895Y015329D01*
X010779Y015446D02*
X010592Y015446D01*
X010229Y016840D02*
X010179Y016891D01*
X011001Y018011D02*
X014088Y018011D01*
X014454Y018711D02*
X015581Y018711D01*
X015698Y018827D02*
X014470Y018827D01*
X014470Y018944D02*
X015814Y018944D01*
X015931Y019060D02*
X014470Y019060D01*
X014470Y019527D02*
X015505Y019527D01*
X015435Y019644D02*
X014615Y019644D01*
X014838Y019760D02*
X015414Y019760D01*
X015431Y019877D02*
X014955Y019877D01*
X015071Y019993D02*
X015494Y019993D01*
X015533Y020110D02*
X015188Y020110D01*
X015305Y020227D02*
X015533Y020227D01*
X015533Y020343D02*
X015421Y020343D01*
X015454Y020710D02*
X015454Y021261D01*
X014844Y021872D01*
X015395Y021970D02*
X015769Y021596D01*
X015769Y019765D01*
X015454Y020710D02*
X014687Y019943D01*
X014411Y019943D01*
X014055Y019993D02*
X014028Y019993D01*
X014055Y019877D02*
X013912Y019877D01*
X013795Y019760D02*
X014102Y019760D01*
X014207Y019644D02*
X013678Y019644D01*
X013269Y019569D02*
X014864Y021163D01*
X014247Y022092D02*
X008584Y022092D01*
X008584Y021976D02*
X014131Y021976D01*
X014015Y021859D02*
X008584Y021859D01*
X008584Y022209D02*
X014363Y022209D01*
X014479Y022326D02*
X008584Y022326D01*
X008584Y022442D02*
X014595Y022442D01*
X014711Y022559D02*
X008584Y022559D01*
X008584Y022675D02*
X014828Y022675D01*
X014944Y022792D02*
X008584Y022792D01*
X008584Y022909D02*
X013372Y022909D01*
X013227Y023025D02*
X008584Y023025D01*
X008584Y023142D02*
X013177Y023142D01*
X013170Y023258D02*
X008584Y023258D01*
X008584Y023375D02*
X013200Y023375D01*
X013525Y023230D02*
X013525Y024175D01*
X013250Y024450D01*
X013397Y024774D02*
X016478Y024774D01*
X016478Y024658D02*
X013545Y024658D01*
X013597Y024541D02*
X016478Y024541D01*
X016478Y024425D02*
X013610Y024425D01*
X013726Y024308D02*
X016478Y024308D01*
X016478Y024191D02*
X016461Y024191D01*
X016298Y024191D02*
X013761Y024191D01*
X013761Y024075D02*
X016111Y024075D01*
X016043Y023958D02*
X013761Y023958D01*
X013761Y023841D02*
X015989Y023841D01*
X015873Y023725D02*
X013761Y023725D01*
X013761Y023608D02*
X015757Y023608D01*
X015640Y023492D02*
X013766Y023492D01*
X013850Y023375D02*
X015524Y023375D01*
X015408Y023258D02*
X013881Y023258D01*
X013874Y023142D02*
X015292Y023142D01*
X015176Y023025D02*
X013823Y023025D01*
X013679Y022909D02*
X015060Y022909D01*
X013899Y021742D02*
X010769Y021742D01*
X010769Y021626D02*
X013783Y021626D01*
X013666Y021509D02*
X010769Y021509D01*
X010769Y021393D02*
X013550Y021393D01*
X013434Y021276D02*
X010769Y021276D01*
X010769Y021159D02*
X013318Y021159D01*
X013202Y021043D02*
X010769Y021043D01*
X010769Y020926D02*
X013086Y020926D01*
X012970Y020810D02*
X010769Y020810D01*
X010769Y020693D02*
X012854Y020693D01*
X012738Y020576D02*
X010769Y020576D01*
X010769Y020460D02*
X012621Y020460D01*
X012505Y020343D02*
X010769Y020343D01*
X010769Y020227D02*
X012389Y020227D01*
X012273Y020110D02*
X010769Y020110D01*
X010769Y019993D02*
X012157Y019993D01*
X012041Y019877D02*
X010769Y019877D01*
X010769Y019760D02*
X011925Y019760D01*
X011809Y019644D02*
X010769Y019644D01*
X010533Y019644D02*
X008466Y019644D01*
X008466Y019760D02*
X010533Y019760D01*
X010533Y019877D02*
X008466Y019877D01*
X008466Y019993D02*
X010533Y019993D01*
X010533Y020110D02*
X008466Y020110D01*
X008466Y020227D02*
X010533Y020227D01*
X010533Y020343D02*
X008466Y020343D01*
X008466Y020460D02*
X010533Y020460D01*
X010533Y020576D02*
X008466Y020576D01*
X008466Y020693D02*
X010533Y020693D01*
X010533Y020810D02*
X008466Y020810D01*
X008466Y020926D02*
X010533Y020926D01*
X010533Y021043D02*
X008466Y021043D01*
X008466Y021159D02*
X010533Y021159D01*
X010533Y021276D02*
X008466Y021276D01*
X008466Y021393D02*
X010533Y021393D01*
X010533Y021509D02*
X008466Y021509D01*
X007994Y022792D02*
X006031Y022792D01*
X006048Y023375D02*
X006978Y023375D01*
X007095Y023492D02*
X005553Y023492D01*
X005553Y023608D02*
X007211Y023608D01*
X007328Y023725D02*
X005553Y023725D01*
X005553Y023841D02*
X007444Y023841D01*
X007561Y023958D02*
X005553Y023958D01*
X005553Y024075D02*
X007678Y024075D01*
X007794Y024191D02*
X005895Y024191D01*
X006000Y024308D02*
X007911Y024308D01*
X008027Y024425D02*
X006046Y024425D01*
X006046Y024541D02*
X008144Y024541D01*
X007994Y023608D02*
X007879Y023608D01*
X007994Y023492D02*
X007763Y023492D01*
X007646Y023375D02*
X007994Y023375D01*
X007994Y023258D02*
X007530Y023258D01*
X007413Y023142D02*
X007994Y023142D01*
X007994Y023025D02*
X007296Y023025D01*
X007180Y022909D02*
X007994Y022909D01*
X005608Y023375D02*
X005553Y023375D01*
X005080Y023375D02*
X001219Y023375D01*
X001219Y023258D02*
X005080Y023258D01*
X005080Y023142D02*
X001219Y023142D01*
X001219Y023025D02*
X005080Y023025D01*
X005080Y022909D02*
X001219Y022909D01*
X001219Y022792D02*
X005080Y022792D01*
X005080Y022675D02*
X001219Y022675D01*
X001219Y022559D02*
X005080Y022559D01*
X005080Y022442D02*
X001219Y022442D01*
X001219Y022326D02*
X005080Y022326D01*
X005080Y022209D02*
X001219Y022209D01*
X001219Y022092D02*
X005080Y022092D01*
X005080Y021976D02*
X001218Y021976D01*
X001218Y021859D02*
X005080Y021859D01*
X005080Y021742D02*
X001218Y021742D01*
X001218Y021626D02*
X005080Y021626D01*
X005080Y021509D02*
X001218Y021509D01*
X001218Y021393D02*
X005080Y021393D01*
X005080Y021276D02*
X001218Y021276D01*
X001218Y021159D02*
X005080Y021159D01*
X005080Y021043D02*
X001218Y021043D01*
X001218Y020926D02*
X005080Y020926D01*
X005080Y020810D02*
X001218Y020810D01*
X001218Y020693D02*
X005080Y020693D01*
X005080Y020576D02*
X001218Y020576D01*
X001218Y020460D02*
X005080Y020460D01*
X005080Y020343D02*
X001218Y020343D01*
X001218Y020227D02*
X005080Y020227D01*
X005080Y020110D02*
X001218Y020110D01*
X001218Y019993D02*
X005080Y019993D01*
X005080Y019877D02*
X001218Y019877D01*
X001218Y019760D02*
X005080Y019760D01*
X005080Y019644D02*
X001218Y019644D01*
X001218Y019527D02*
X005080Y019527D01*
X005080Y019410D02*
X001218Y019410D01*
X001218Y019294D02*
X005080Y019294D01*
X005080Y019177D02*
X001218Y019177D01*
X001218Y019060D02*
X005080Y019060D01*
X005080Y018944D02*
X001218Y018944D01*
X001218Y018827D02*
X005080Y018827D01*
X005080Y018711D02*
X001218Y018711D01*
X001218Y018594D02*
X005080Y018594D01*
X005080Y018477D02*
X001218Y018477D01*
X001218Y018361D02*
X005080Y018361D01*
X005080Y018244D02*
X001218Y018244D01*
X001218Y018128D02*
X005080Y018128D01*
X005080Y018011D02*
X001218Y018011D01*
X001218Y017894D02*
X005080Y017894D01*
X005080Y017778D02*
X001218Y017778D01*
X001218Y017661D02*
X005080Y017661D01*
X005080Y017545D02*
X001218Y017545D01*
X001218Y017428D02*
X005080Y017428D01*
X005080Y017311D02*
X001218Y017311D01*
X001218Y017195D02*
X005080Y017195D01*
X005080Y017078D02*
X001218Y017078D01*
X001218Y016961D02*
X005080Y016961D01*
X005080Y016845D02*
X001218Y016845D01*
X001218Y016728D02*
X005080Y016728D01*
X005080Y016612D02*
X001217Y016612D01*
X001217Y016495D02*
X005080Y016495D01*
X005080Y016378D02*
X001217Y016378D01*
X001217Y016262D02*
X005100Y016262D01*
X005217Y016145D02*
X001217Y016145D01*
X001217Y016029D02*
X005335Y016029D01*
X005453Y015912D02*
X001217Y015912D01*
X001217Y015795D02*
X005571Y015795D01*
X005689Y015679D02*
X001217Y015679D01*
X001217Y015562D02*
X005807Y015562D01*
X005926Y015446D02*
X001217Y015446D01*
X001217Y015329D02*
X006044Y015329D01*
X006162Y015212D02*
X001217Y015212D01*
X001217Y015096D02*
X006280Y015096D01*
X006398Y014979D02*
X001217Y014979D01*
X001217Y014862D02*
X006516Y014862D01*
X006575Y014746D02*
X001217Y014746D01*
X001216Y008099D02*
X002842Y008099D01*
X002696Y007982D02*
X001216Y007982D01*
X001216Y007866D02*
X002646Y007866D01*
X002638Y007749D02*
X001216Y007749D01*
X001216Y007633D02*
X002669Y007633D01*
X002738Y007516D02*
X001216Y007516D01*
X001216Y007399D02*
X002738Y007399D01*
X002738Y007283D02*
X001216Y007283D01*
X001216Y007166D02*
X002738Y007166D01*
X002738Y007050D02*
X001216Y007050D01*
X001216Y006933D02*
X002738Y006933D01*
X002738Y006816D02*
X001216Y006816D01*
X001216Y006700D02*
X002738Y006700D01*
X002738Y006583D02*
X001216Y006583D01*
X001216Y006467D02*
X002738Y006467D01*
X002738Y006350D02*
X001216Y006350D01*
X001216Y006233D02*
X002738Y006233D01*
X002738Y006117D02*
X001216Y006117D01*
X001216Y006000D02*
X002738Y006000D01*
X002738Y005883D02*
X001215Y005883D01*
X001215Y005767D02*
X002738Y005767D01*
X002738Y005650D02*
X001215Y005650D01*
X001215Y005534D02*
X002738Y005534D01*
X002738Y005417D02*
X001215Y005417D01*
X001215Y005300D02*
X002738Y005300D01*
X002738Y005184D02*
X001215Y005184D01*
X001215Y005067D02*
X002738Y005067D01*
X002738Y004951D02*
X001215Y004951D01*
X001215Y004834D02*
X002738Y004834D01*
X002738Y004717D02*
X001215Y004717D01*
X001215Y004601D02*
X002681Y004601D01*
X002628Y004484D02*
X001215Y004484D01*
X001215Y004368D02*
X002618Y004368D01*
X002647Y004251D02*
X001215Y004251D01*
X001215Y004134D02*
X002728Y004134D01*
X002974Y004391D02*
X002974Y007757D01*
X002994Y007777D01*
X004569Y007283D02*
X008013Y007283D01*
X007992Y007399D02*
X006879Y007399D01*
X008082Y007166D02*
X004569Y007166D01*
X004668Y005300D02*
X007860Y005300D01*
X007743Y005184D02*
X004659Y005184D01*
X004789Y005067D02*
X007627Y005067D01*
X007945Y004717D02*
X009903Y004717D01*
X009903Y004601D02*
X007829Y004601D01*
X008062Y004834D02*
X009903Y004834D01*
X009903Y004951D02*
X008178Y004951D01*
X008295Y005067D02*
X009903Y005067D01*
X009903Y005184D02*
X008412Y005184D01*
X008528Y005300D02*
X009903Y005300D01*
X009903Y005417D02*
X008645Y005417D01*
X008761Y005534D02*
X010016Y005534D01*
X010133Y005650D02*
X008878Y005650D01*
X008995Y005767D02*
X010250Y005767D01*
X010366Y005883D02*
X009111Y005883D01*
X009228Y006000D02*
X010483Y006000D01*
X010600Y006117D02*
X009344Y006117D01*
X009461Y006233D02*
X010716Y006233D01*
X010833Y006350D02*
X009578Y006350D01*
X009694Y006467D02*
X010949Y006467D01*
X011066Y006583D02*
X009726Y006583D01*
X009726Y006700D02*
X011183Y006700D01*
X011299Y006816D02*
X009726Y006816D01*
X009726Y006933D02*
X011416Y006933D01*
X011532Y007050D02*
X009726Y007050D01*
X009726Y007166D02*
X011649Y007166D01*
X011766Y007283D02*
X009726Y007283D01*
X009726Y007399D02*
X011882Y007399D01*
X011999Y007516D02*
X009726Y007516D01*
X009726Y007633D02*
X012115Y007633D01*
X012232Y007749D02*
X009726Y007749D01*
X009726Y007866D02*
X009981Y007866D01*
X009906Y007982D02*
X009726Y007982D01*
X009726Y008099D02*
X009882Y008099D01*
X009896Y008216D02*
X009726Y008216D01*
X009726Y008332D02*
X009955Y008332D01*
X009826Y008449D02*
X010122Y008449D01*
X009943Y008566D02*
X013048Y008566D01*
X013165Y008682D02*
X010059Y008682D01*
X010176Y008799D02*
X013282Y008799D01*
X013398Y008915D02*
X010293Y008915D01*
X010409Y009032D02*
X013515Y009032D01*
X013631Y009149D02*
X010526Y009149D01*
X010643Y009265D02*
X013748Y009265D01*
X013865Y009382D02*
X010759Y009382D01*
X010876Y009498D02*
X013981Y009498D01*
X014098Y009615D02*
X010992Y009615D01*
X011109Y009732D02*
X014214Y009732D01*
X014331Y009848D02*
X011226Y009848D01*
X011342Y009965D02*
X014352Y009965D01*
X014400Y010081D02*
X011459Y010081D01*
X011575Y010198D02*
X014525Y010198D01*
X014704Y009887D02*
X010139Y005322D01*
X010139Y003880D01*
X009891Y004134D02*
X003220Y004134D01*
X003301Y004251D02*
X009903Y004251D01*
X009903Y004368D02*
X003330Y004368D01*
X002713Y003085D02*
X008398Y003085D01*
X008398Y003119D02*
X008471Y003295D01*
X008605Y003429D01*
X008780Y003502D01*
X008970Y003502D01*
X009145Y003429D01*
X009280Y003295D01*
X009352Y003119D01*
X009352Y002329D01*
X009280Y002154D01*
X009145Y002020D01*
X008970Y001947D01*
X008780Y001947D01*
X008605Y002020D01*
X008471Y002154D01*
X008398Y002329D01*
X008398Y003119D01*
X008432Y003201D02*
X002507Y003201D01*
X002851Y002968D02*
X008398Y002968D01*
X008398Y002852D02*
X002966Y002852D01*
X003034Y002735D02*
X008398Y002735D01*
X008398Y002618D02*
X003101Y002618D01*
X003137Y002502D02*
X008398Y002502D01*
X008398Y002385D02*
X003168Y002385D01*
X003183Y002269D02*
X008423Y002269D01*
X008473Y002152D02*
X003183Y002152D01*
X003181Y002035D02*
X008589Y002035D01*
X009161Y002035D02*
X009589Y002035D01*
X009605Y002020D02*
X009780Y001947D01*
X009970Y001947D01*
X010145Y002020D01*
X010280Y002154D01*
X010352Y002329D01*
X010352Y003119D01*
X010280Y003295D01*
X010145Y003429D01*
X009970Y003502D01*
X009780Y003502D01*
X009605Y003429D01*
X009471Y003295D01*
X009398Y003119D01*
X009398Y002329D01*
X009471Y002154D01*
X009605Y002020D01*
X009473Y002152D02*
X009278Y002152D01*
X009327Y002269D02*
X009423Y002269D01*
X009398Y002385D02*
X009352Y002385D01*
X009352Y002502D02*
X009398Y002502D01*
X009398Y002618D02*
X009352Y002618D01*
X009352Y002735D02*
X009398Y002735D01*
X009398Y002852D02*
X009352Y002852D01*
X009352Y002968D02*
X009398Y002968D01*
X009398Y003085D02*
X009352Y003085D01*
X009318Y003201D02*
X009432Y003201D01*
X009494Y003318D02*
X009256Y003318D01*
X009132Y003435D02*
X009619Y003435D01*
X009848Y003668D02*
X001215Y003668D01*
X001215Y003784D02*
X009794Y003784D01*
X009784Y003901D02*
X001215Y003901D01*
X001215Y004018D02*
X009812Y004018D01*
X010003Y003551D02*
X001215Y003551D01*
X001215Y003435D02*
X008619Y003435D01*
X008494Y003318D02*
X001215Y003318D01*
X001215Y003201D02*
X001681Y003201D01*
X001475Y003085D02*
X001215Y003085D01*
X001215Y002968D02*
X001338Y002968D01*
X001222Y002852D02*
X001215Y002852D01*
X002902Y001452D02*
X021020Y001452D01*
X020971Y001569D02*
X002996Y001569D01*
X003063Y001685D02*
X020965Y001685D01*
X020996Y001802D02*
X003119Y001802D01*
X003150Y001919D02*
X021045Y001919D01*
X021281Y001694D02*
X021281Y007108D01*
X024372Y010198D01*
X024727Y010198D02*
X025356Y010198D01*
X025356Y010081D02*
X024708Y010081D01*
X024641Y009965D02*
X025356Y009965D01*
X025356Y009848D02*
X024455Y009848D01*
X024239Y009732D02*
X025356Y009732D01*
X025356Y009615D02*
X024122Y009615D01*
X024006Y009498D02*
X025356Y009498D01*
X025356Y009382D02*
X023889Y009382D01*
X023772Y009265D02*
X025356Y009265D01*
X025356Y009149D02*
X023656Y009149D01*
X023539Y009032D02*
X025356Y009032D01*
X025356Y008915D02*
X023423Y008915D01*
X023306Y008799D02*
X025356Y008799D01*
X025356Y008682D02*
X023189Y008682D01*
X023073Y008566D02*
X025356Y008566D01*
X025356Y008449D02*
X022956Y008449D01*
X022840Y008332D02*
X025356Y008332D01*
X025356Y008216D02*
X022723Y008216D01*
X022606Y008099D02*
X025356Y008099D01*
X025356Y007982D02*
X022490Y007982D01*
X022373Y007866D02*
X025356Y007866D01*
X025356Y007749D02*
X022257Y007749D01*
X022140Y007633D02*
X025356Y007633D01*
X025356Y007516D02*
X022023Y007516D01*
X021907Y007399D02*
X025356Y007399D01*
X025356Y007283D02*
X021790Y007283D01*
X021673Y007166D02*
X025356Y007166D01*
X025356Y007050D02*
X021557Y007050D01*
X021517Y006933D02*
X025356Y006933D01*
X025356Y006816D02*
X021517Y006816D01*
X021517Y006700D02*
X025356Y006700D01*
X025356Y006583D02*
X021517Y006583D01*
X021517Y006467D02*
X025266Y006467D01*
X025150Y006350D02*
X021517Y006350D01*
X021517Y006233D02*
X025033Y006233D01*
X024916Y006117D02*
X021517Y006117D01*
X021517Y006000D02*
X024800Y006000D01*
X024683Y005883D02*
X021517Y005883D01*
X021517Y005767D02*
X024567Y005767D01*
X024450Y005650D02*
X021517Y005650D01*
X021517Y005534D02*
X024333Y005534D01*
X024273Y005417D02*
X021517Y005417D01*
X021517Y005300D02*
X024273Y005300D01*
X024273Y005184D02*
X021517Y005184D01*
X021045Y005184D02*
X020804Y005184D01*
X020804Y005300D02*
X021045Y005300D01*
X021045Y005417D02*
X020784Y005417D01*
X020753Y005534D02*
X021045Y005534D01*
X021045Y005650D02*
X020707Y005650D01*
X020640Y005767D02*
X021045Y005767D01*
X021045Y005883D02*
X020553Y005883D01*
X020436Y006000D02*
X021045Y006000D01*
X021045Y006117D02*
X020255Y006117D01*
X020229Y006233D02*
X021045Y006233D01*
X021045Y006350D02*
X020345Y006350D01*
X020462Y006467D02*
X021045Y006467D01*
X021045Y006583D02*
X020579Y006583D01*
X020695Y006700D02*
X021045Y006700D01*
X021045Y006816D02*
X020812Y006816D01*
X020928Y006933D02*
X021045Y006933D01*
X020610Y007283D02*
X018430Y007283D01*
X018601Y007166D02*
X020494Y007166D01*
X020377Y007050D02*
X018717Y007050D01*
X018798Y006933D02*
X020260Y006933D01*
X020144Y006816D02*
X018865Y006816D01*
X018906Y006700D02*
X020027Y006700D01*
X020061Y006399D02*
X022305Y008643D01*
X022625Y008799D02*
X022638Y008799D01*
X022536Y008915D02*
X022755Y008915D01*
X022871Y009032D02*
X017049Y009032D01*
X017049Y009149D02*
X022988Y009149D01*
X023104Y009265D02*
X017143Y009265D01*
X017259Y009382D02*
X023221Y009382D01*
X023338Y009498D02*
X017376Y009498D01*
X017492Y009615D02*
X023454Y009615D01*
X023571Y009732D02*
X017609Y009732D01*
X017726Y009848D02*
X023687Y009848D01*
X023804Y009965D02*
X017842Y009965D01*
X017959Y010081D02*
X023921Y010081D01*
X024016Y010198D02*
X018075Y010198D01*
X018192Y010315D02*
X024035Y010315D01*
X024102Y010431D02*
X018309Y010431D01*
X018425Y010548D02*
X024286Y010548D01*
X024457Y010548D02*
X025356Y010548D01*
X025356Y010664D02*
X018542Y010664D01*
X018658Y010781D02*
X025356Y010781D01*
X025315Y010898D02*
X018775Y010898D01*
X018892Y011014D02*
X025253Y011014D01*
X025237Y011131D02*
X019008Y011131D01*
X019125Y011248D02*
X025259Y011248D01*
X025330Y011364D02*
X019242Y011364D01*
X018923Y011714D02*
X018914Y011714D01*
X018807Y011597D02*
X018798Y011597D01*
X018690Y011481D02*
X018681Y011481D01*
X018573Y011364D02*
X018564Y011364D01*
X018457Y011248D02*
X018448Y011248D01*
X018340Y011131D02*
X018331Y011131D01*
X018224Y011014D02*
X018215Y011014D01*
X018107Y010898D02*
X018098Y010898D01*
X017990Y010781D02*
X017981Y010781D01*
X017874Y010664D02*
X017430Y010664D01*
X017049Y008915D02*
X022074Y008915D01*
X021984Y008799D02*
X017049Y008799D01*
X017049Y008682D02*
X021949Y008682D01*
X021893Y008566D02*
X017049Y008566D01*
X017049Y008449D02*
X021776Y008449D01*
X021660Y008332D02*
X017049Y008332D01*
X017049Y008216D02*
X021543Y008216D01*
X021426Y008099D02*
X017049Y008099D01*
X017049Y007982D02*
X021310Y007982D01*
X021193Y007866D02*
X017049Y007866D01*
X017049Y007749D02*
X021077Y007749D01*
X020960Y007633D02*
X017049Y007633D01*
X017049Y007516D02*
X020843Y007516D01*
X020727Y007399D02*
X018119Y007399D01*
X017735Y007399D02*
X017049Y007399D01*
X017049Y007283D02*
X017423Y007283D01*
X017253Y007166D02*
X017049Y007166D01*
X017049Y007050D02*
X017136Y007050D01*
X017056Y006933D02*
X017049Y006933D01*
X017403Y005179D02*
X018230Y005179D01*
X019450Y006399D01*
X020061Y006399D01*
X019300Y006583D02*
X018938Y006583D01*
X018954Y006467D02*
X019184Y006467D01*
X019067Y006350D02*
X018954Y006350D01*
X018949Y006233D02*
X018950Y006233D01*
X018750Y005300D02*
X018686Y005300D01*
X018750Y005184D02*
X018569Y005184D01*
X018452Y005067D02*
X018751Y005067D01*
X018782Y004951D02*
X018378Y004951D01*
X018571Y004834D02*
X018814Y004834D01*
X018873Y004717D02*
X018687Y004717D01*
X018781Y004601D02*
X018941Y004601D01*
X018848Y004484D02*
X019047Y004484D01*
X019176Y004368D02*
X018898Y004368D01*
X018930Y004251D02*
X019378Y004251D01*
X018954Y004134D02*
X021045Y004134D01*
X021045Y004018D02*
X018954Y004018D01*
X018954Y003901D02*
X021045Y003901D01*
X021045Y003784D02*
X018926Y003784D01*
X018894Y003668D02*
X021045Y003668D01*
X021045Y003551D02*
X018839Y003551D01*
X018772Y003435D02*
X020565Y003435D01*
X020426Y003318D02*
X018672Y003318D01*
X018554Y003201D02*
X020358Y003201D01*
X020320Y003085D02*
X018352Y003085D01*
X017501Y003085D02*
X015636Y003085D01*
X015636Y003122D02*
X015564Y003298D01*
X015429Y003432D01*
X015254Y003505D01*
X015064Y003505D01*
X014889Y003432D01*
X014755Y003298D01*
X014682Y003122D01*
X014682Y002333D01*
X014755Y002157D01*
X014889Y002023D01*
X015064Y001950D01*
X015254Y001950D01*
X015429Y002023D01*
X015564Y002157D01*
X015636Y002333D01*
X015636Y003122D01*
X015604Y003201D02*
X017299Y003201D01*
X017181Y003318D02*
X015543Y003318D01*
X015423Y003435D02*
X017082Y003435D01*
X017014Y003551D02*
X014830Y003551D01*
X014895Y003435D02*
X014714Y003435D01*
X014775Y003318D02*
X014597Y003318D01*
X014604Y003201D02*
X014715Y003201D01*
X014682Y003085D02*
X014636Y003085D01*
X014636Y002968D02*
X014682Y002968D01*
X014682Y002852D02*
X014636Y002852D01*
X014636Y002735D02*
X014682Y002735D01*
X014682Y002618D02*
X014636Y002618D01*
X014636Y002502D02*
X014682Y002502D01*
X014682Y002385D02*
X014636Y002385D01*
X014610Y002269D02*
X014708Y002269D01*
X014760Y002152D02*
X014558Y002152D01*
X014442Y002035D02*
X014876Y002035D01*
X015442Y002035D02*
X020501Y002035D01*
X020389Y002152D02*
X015558Y002152D01*
X015610Y002269D02*
X020341Y002269D01*
X020320Y002385D02*
X015636Y002385D01*
X015636Y002502D02*
X020320Y002502D01*
X020320Y002618D02*
X015636Y002618D01*
X015636Y002735D02*
X020320Y002735D01*
X020320Y002852D02*
X015636Y002852D01*
X015636Y002968D02*
X020320Y002968D01*
X021029Y003435D02*
X021045Y003435D01*
X021517Y003435D02*
X021565Y003435D01*
X022029Y003435D02*
X022565Y003435D01*
X022426Y003318D02*
X022168Y003318D01*
X022236Y003201D02*
X022358Y003201D01*
X022320Y003085D02*
X022274Y003085D01*
X022274Y002968D02*
X022320Y002968D01*
X022320Y002852D02*
X022274Y002852D01*
X022274Y002735D02*
X022320Y002735D01*
X022320Y002618D02*
X022274Y002618D01*
X022274Y002502D02*
X022320Y002502D01*
X022320Y002385D02*
X022274Y002385D01*
X022253Y002269D02*
X022341Y002269D01*
X022389Y002152D02*
X022205Y002152D01*
X022093Y002035D02*
X022501Y002035D01*
X022797Y002714D02*
X029761Y002754D01*
X032246Y005238D01*
X032246Y009549D01*
X031281Y010513D01*
X030513Y010513D01*
X030494Y010533D01*
X030749Y010781D02*
X032338Y010781D01*
X032338Y010664D02*
X031464Y010664D01*
X031581Y010548D02*
X032338Y010548D01*
X032338Y010431D02*
X031697Y010431D01*
X031814Y010315D02*
X032338Y010315D01*
X032338Y010198D02*
X031930Y010198D01*
X032047Y010081D02*
X032338Y010081D01*
X032338Y009965D02*
X032164Y009965D01*
X032280Y009848D02*
X032338Y009848D01*
X031962Y009498D02*
X027561Y009498D01*
X027561Y009382D02*
X032009Y009382D01*
X032009Y009265D02*
X027561Y009265D01*
X027561Y009149D02*
X032009Y009149D01*
X032009Y009032D02*
X027561Y009032D01*
X027561Y008915D02*
X028218Y008915D01*
X028060Y008799D02*
X027561Y008799D01*
X027561Y008682D02*
X028004Y008682D01*
X027992Y008566D02*
X027561Y008566D01*
X027561Y008449D02*
X028019Y008449D01*
X028097Y008332D02*
X027561Y008332D01*
X027536Y008216D02*
X028112Y008216D01*
X028112Y008099D02*
X027488Y008099D01*
X027374Y007761D02*
X027378Y007757D01*
X028112Y007757D01*
X028348Y007994D01*
X028348Y008584D01*
X028599Y008332D02*
X032009Y008332D01*
X032009Y008216D02*
X028584Y008216D01*
X028584Y008099D02*
X032009Y008099D01*
X032009Y007982D02*
X028584Y007982D01*
X028554Y007866D02*
X032009Y007866D01*
X032009Y007749D02*
X028438Y007749D01*
X028321Y007633D02*
X032009Y007633D01*
X032009Y007516D02*
X027631Y007516D01*
X027652Y007283D02*
X028075Y007283D01*
X028164Y007371D02*
X027892Y007099D01*
X027892Y006715D01*
X028106Y006501D01*
X027910Y006304D01*
X027910Y006154D01*
X028321Y006154D01*
X028321Y006085D01*
X027910Y006085D01*
X027910Y005935D01*
X028171Y005674D01*
X028321Y005674D01*
X028321Y006085D01*
X028390Y006085D01*
X028390Y005674D01*
X028541Y005674D01*
X028802Y005935D01*
X028802Y006085D01*
X028390Y006085D01*
X028390Y006154D01*
X028802Y006154D01*
X028802Y006304D01*
X028606Y006501D01*
X028820Y006715D01*
X028820Y007099D01*
X028548Y007371D01*
X028164Y007371D01*
X027959Y007166D02*
X027769Y007166D01*
X027836Y007050D02*
X027892Y007050D01*
X027892Y006933D02*
X027836Y006933D01*
X027836Y006816D02*
X027892Y006816D01*
X027907Y006700D02*
X027821Y006700D01*
X027704Y006583D02*
X028023Y006583D01*
X028072Y006467D02*
X027681Y006467D01*
X027798Y006350D02*
X027955Y006350D01*
X027910Y006233D02*
X027836Y006233D01*
X027836Y006117D02*
X028321Y006117D01*
X028390Y006117D02*
X032009Y006117D01*
X032009Y006233D02*
X028802Y006233D01*
X028757Y006350D02*
X032009Y006350D01*
X032009Y006467D02*
X028640Y006467D01*
X028688Y006583D02*
X032009Y006583D01*
X032009Y006700D02*
X028805Y006700D01*
X028820Y006816D02*
X032009Y006816D01*
X032009Y006933D02*
X028820Y006933D01*
X028820Y007050D02*
X032009Y007050D01*
X032009Y007166D02*
X028753Y007166D01*
X028637Y007283D02*
X032009Y007283D01*
X032009Y007399D02*
X027128Y007399D01*
X026319Y008449D02*
X025828Y008449D01*
X025828Y008566D02*
X026319Y008566D01*
X026320Y008682D02*
X025828Y008682D01*
X025828Y008799D02*
X026320Y008799D01*
X026320Y008915D02*
X025828Y008915D01*
X025828Y009032D02*
X026321Y009032D01*
X026321Y009149D02*
X025828Y009149D01*
X025828Y009265D02*
X026321Y009265D01*
X026321Y009382D02*
X025828Y009382D01*
X025828Y009498D02*
X026322Y009498D01*
X026322Y009615D02*
X025828Y009615D01*
X025828Y009732D02*
X026322Y009732D01*
X026322Y009848D02*
X025828Y009848D01*
X026196Y009965D02*
X026323Y009965D01*
X026323Y010081D02*
X026275Y010081D01*
X026302Y010198D02*
X026323Y010198D01*
X026324Y010315D02*
X026291Y010315D01*
X026324Y010431D02*
X026236Y010431D01*
X026183Y010548D02*
X026324Y010548D01*
X026324Y010664D02*
X026183Y010664D01*
X026183Y010781D02*
X026325Y010781D01*
X026325Y010898D02*
X026183Y010898D01*
X026183Y011014D02*
X026325Y011014D01*
X026326Y011131D02*
X026183Y011131D01*
X026183Y011248D02*
X026326Y011248D01*
X026326Y011364D02*
X026183Y011364D01*
X026183Y011481D02*
X026326Y011481D01*
X026327Y011597D02*
X026183Y011597D01*
X026183Y011714D02*
X026327Y011714D01*
X026327Y011831D02*
X026183Y011831D01*
X026183Y011947D02*
X026328Y011947D01*
X026328Y012064D02*
X026183Y012064D01*
X026183Y012180D02*
X026328Y012180D01*
X026328Y012297D02*
X026183Y012297D01*
X026183Y012414D02*
X026351Y012414D01*
X026329Y012391D02*
X026329Y012391D01*
X026468Y012530D02*
X026183Y012530D01*
X026183Y012647D02*
X026584Y012647D01*
X026701Y012763D02*
X026183Y012763D01*
X026183Y012880D02*
X026818Y012880D01*
X026934Y012997D02*
X026183Y012997D01*
X026183Y013113D02*
X027051Y013113D01*
X027168Y013230D02*
X026221Y013230D01*
X026338Y013347D02*
X027284Y013347D01*
X027401Y013463D02*
X026455Y013463D01*
X026571Y013580D02*
X027517Y013580D01*
X027634Y013696D02*
X026688Y013696D01*
X026805Y013813D02*
X027646Y013813D01*
X027698Y013930D02*
X026921Y013930D01*
X027173Y014046D02*
X027847Y014046D01*
X028238Y013463D02*
X032338Y013463D01*
X032338Y013347D02*
X027952Y013347D01*
X027836Y013230D02*
X032338Y013230D01*
X032338Y013113D02*
X027719Y013113D01*
X027602Y012997D02*
X032338Y012997D01*
X032338Y012880D02*
X027486Y012880D01*
X027369Y012763D02*
X032338Y012763D01*
X032338Y012647D02*
X027253Y012647D01*
X027136Y012530D02*
X032338Y012530D01*
X032338Y012414D02*
X027019Y012414D01*
X026903Y012297D02*
X032338Y012297D01*
X032338Y012180D02*
X026801Y012180D01*
X026800Y012064D02*
X032338Y012064D01*
X032338Y011947D02*
X026800Y011947D01*
X026800Y011831D02*
X032338Y011831D01*
X032338Y011714D02*
X026799Y011714D01*
X026799Y011597D02*
X032338Y011597D01*
X032338Y011481D02*
X026799Y011481D01*
X026799Y011364D02*
X032338Y011364D01*
X032338Y011248D02*
X026798Y011248D01*
X026798Y011131D02*
X032338Y011131D01*
X032338Y011014D02*
X027582Y011014D01*
X027656Y010898D02*
X032338Y010898D01*
X031379Y010081D02*
X027561Y010081D01*
X027561Y009965D02*
X031496Y009965D01*
X031612Y009848D02*
X027561Y009848D01*
X027561Y009732D02*
X031729Y009732D01*
X031845Y009615D02*
X027561Y009615D01*
X027561Y010198D02*
X030373Y010198D01*
X030209Y010315D02*
X027561Y010315D01*
X027561Y010431D02*
X030151Y010431D01*
X030138Y010548D02*
X027606Y010548D01*
X027666Y010664D02*
X030163Y010664D01*
X030239Y010781D02*
X027680Y010781D01*
X028478Y008915D02*
X032009Y008915D01*
X032009Y008799D02*
X028636Y008799D01*
X028692Y008682D02*
X032009Y008682D01*
X032009Y008566D02*
X028704Y008566D01*
X028677Y008449D02*
X032009Y008449D01*
X031262Y010198D02*
X030614Y010198D01*
X027029Y014372D02*
X025946Y013289D01*
X025946Y010218D01*
X025356Y010315D02*
X024708Y010315D01*
X024642Y010431D02*
X025356Y010431D01*
X025710Y012997D02*
X013840Y012997D01*
X013969Y013113D02*
X025710Y013113D01*
X025710Y013230D02*
X014097Y013230D01*
X014225Y013347D02*
X025710Y013347D01*
X025787Y013463D02*
X014354Y013463D01*
X014482Y013580D02*
X025903Y013580D01*
X026020Y013696D02*
X014610Y013696D01*
X014739Y013813D02*
X026136Y013813D01*
X026253Y013930D02*
X014867Y013930D01*
X014995Y014046D02*
X026370Y014046D01*
X026486Y014163D02*
X015124Y014163D01*
X015252Y014279D02*
X026603Y014279D01*
X026674Y014396D02*
X015380Y014396D01*
X015509Y014513D02*
X026703Y014513D01*
X027712Y014756D02*
X015425Y014756D01*
X014935Y014629D02*
X014411Y014629D01*
X014411Y014513D02*
X014806Y014513D01*
X014678Y014396D02*
X014456Y014396D01*
X014516Y014279D02*
X014550Y014279D01*
X014175Y014175D02*
X014175Y016183D01*
X026852Y028781D01*
X028072Y028781D01*
X028604Y028250D01*
X028604Y028151D01*
X028466Y027777D02*
X032029Y027777D01*
X032069Y027817D01*
X032049Y028269D02*
X032049Y029155D01*
X031832Y029391D01*
X019257Y029391D01*
X018340Y030407D01*
X018096Y030838D02*
X018053Y030838D01*
X017580Y030955D02*
X017563Y030955D01*
X017340Y031407D02*
X017864Y031931D01*
X021970Y031931D01*
X022460Y031441D01*
X022474Y031441D01*
X022818Y031771D02*
X023130Y031771D01*
X023246Y031888D02*
X022702Y031888D01*
X022672Y031918D02*
X022317Y031918D01*
X022206Y032029D01*
X022133Y032102D01*
X030876Y032102D01*
X030705Y031930D01*
X030562Y031682D01*
X030487Y031405D01*
X030487Y031118D01*
X030562Y030841D01*
X030705Y030593D01*
X030908Y030390D01*
X031156Y030247D01*
X031433Y030172D01*
X031720Y030172D01*
X031997Y030247D01*
X032245Y030390D01*
X032338Y030483D01*
X032338Y028483D01*
X032285Y028536D01*
X032285Y029150D01*
X032289Y029243D01*
X032285Y029247D01*
X032285Y029253D01*
X032219Y029319D01*
X032069Y029483D01*
X032069Y029489D01*
X032003Y029555D01*
X031940Y029623D01*
X031934Y029623D01*
X031930Y029628D01*
X031837Y029628D01*
X031745Y029632D01*
X031740Y029628D01*
X025741Y029628D01*
X025775Y029662D01*
X025830Y029793D01*
X025830Y029935D01*
X025775Y030065D01*
X025774Y030066D01*
X025951Y030243D01*
X025951Y030638D01*
X025672Y030918D01*
X025276Y030918D01*
X024997Y030638D01*
X024997Y030243D01*
X025140Y030100D01*
X024808Y030100D01*
X024951Y030243D01*
X024951Y030638D01*
X024672Y030918D01*
X024276Y030918D01*
X023997Y030638D01*
X023997Y030243D01*
X024028Y030212D01*
X024009Y030219D01*
X023928Y030219D01*
X023951Y030243D01*
X023951Y030638D01*
X023672Y030918D01*
X023285Y030918D01*
X023331Y030963D01*
X023672Y030963D01*
X023951Y031243D01*
X023951Y031638D01*
X023672Y031918D01*
X023276Y031918D01*
X022997Y031638D01*
X022997Y031297D01*
X022951Y031252D01*
X022951Y031638D01*
X022672Y031918D01*
X022935Y031654D02*
X023013Y031654D01*
X022997Y031538D02*
X022951Y031538D01*
X022951Y031421D02*
X022997Y031421D01*
X022997Y031305D02*
X022951Y031305D01*
X022980Y030946D02*
X023474Y031441D01*
X023818Y031771D02*
X024130Y031771D01*
X024246Y031888D02*
X023702Y031888D01*
X023935Y031654D02*
X024013Y031654D01*
X023997Y031638D02*
X023997Y031243D01*
X024276Y030963D01*
X024672Y030963D01*
X024951Y031243D01*
X024951Y031638D01*
X024672Y031918D01*
X024276Y031918D01*
X023997Y031638D01*
X023997Y031538D02*
X023951Y031538D01*
X023951Y031421D02*
X023997Y031421D01*
X023997Y031305D02*
X023951Y031305D01*
X023896Y031188D02*
X024052Y031188D01*
X024168Y031071D02*
X023780Y031071D01*
X023751Y030838D02*
X024197Y030838D01*
X024080Y030721D02*
X023868Y030721D01*
X023951Y030605D02*
X023997Y030605D01*
X023997Y030488D02*
X023951Y030488D01*
X023951Y030372D02*
X023997Y030372D01*
X023997Y030255D02*
X023951Y030255D01*
X023939Y029864D02*
X025474Y029864D01*
X025793Y030022D02*
X032338Y030022D01*
X032338Y030138D02*
X025847Y030138D01*
X025951Y030255D02*
X031141Y030255D01*
X030940Y030372D02*
X025951Y030372D01*
X025951Y030488D02*
X030809Y030488D01*
X030698Y030605D02*
X025951Y030605D01*
X025868Y030721D02*
X030631Y030721D01*
X030563Y030838D02*
X025751Y030838D01*
X025664Y030981D02*
X025933Y031250D01*
X025933Y031400D01*
X025515Y031400D01*
X025515Y031481D01*
X025933Y031481D01*
X025933Y031631D01*
X025664Y031900D01*
X025515Y031900D01*
X025515Y031482D01*
X025433Y031482D01*
X025433Y031900D01*
X025284Y031900D01*
X025015Y031631D01*
X025015Y031481D01*
X025433Y031481D01*
X025433Y031400D01*
X025015Y031400D01*
X025015Y031250D01*
X025284Y030981D01*
X025433Y030981D01*
X025433Y031400D01*
X025515Y031400D01*
X025515Y030981D01*
X025664Y030981D01*
X025754Y031071D02*
X030500Y031071D01*
X030487Y031188D02*
X025871Y031188D01*
X025933Y031305D02*
X030487Y031305D01*
X030492Y031421D02*
X025515Y031421D01*
X025433Y031421D02*
X024951Y031421D01*
X024951Y031305D02*
X025015Y031305D01*
X025077Y031188D02*
X024896Y031188D01*
X024780Y031071D02*
X025194Y031071D01*
X025197Y030838D02*
X024751Y030838D01*
X024868Y030721D02*
X025080Y030721D01*
X024997Y030605D02*
X024951Y030605D01*
X024951Y030488D02*
X024997Y030488D01*
X024997Y030372D02*
X024951Y030372D01*
X024951Y030255D02*
X024997Y030255D01*
X025101Y030138D02*
X024847Y030138D01*
X025830Y029905D02*
X032338Y029905D01*
X032338Y029789D02*
X025828Y029789D01*
X025779Y029672D02*
X032338Y029672D01*
X032338Y029555D02*
X032002Y029555D01*
X032109Y029439D02*
X032338Y029439D01*
X032338Y029322D02*
X032216Y029322D01*
X032287Y029206D02*
X032338Y029206D01*
X032338Y029089D02*
X032285Y029089D01*
X032285Y028972D02*
X032338Y028972D01*
X032338Y028856D02*
X032285Y028856D01*
X032285Y028739D02*
X032338Y028739D01*
X032338Y028623D02*
X032285Y028623D01*
X032315Y028506D02*
X032338Y028506D01*
X032338Y030255D02*
X032011Y030255D01*
X032213Y030372D02*
X032338Y030372D01*
X030779Y032004D02*
X022231Y032004D01*
X021912Y031654D02*
X021909Y031654D01*
X021933Y031631D02*
X021869Y031694D01*
X021872Y031694D01*
X021997Y031570D01*
X021997Y031243D01*
X022057Y031183D01*
X021865Y031183D01*
X021933Y031250D01*
X021933Y031400D01*
X021515Y031400D01*
X021515Y031481D01*
X021933Y031481D01*
X021933Y031631D01*
X021933Y031538D02*
X021997Y031538D01*
X021997Y031421D02*
X021515Y031421D01*
X021871Y031188D02*
X022052Y031188D01*
X021997Y031305D02*
X021933Y031305D01*
X021951Y030605D02*
X021997Y030605D01*
X021997Y030488D02*
X021951Y030488D01*
X021951Y030372D02*
X021997Y030372D01*
X021997Y030255D02*
X021951Y030255D01*
X021847Y030138D02*
X022101Y030138D01*
X022218Y030022D02*
X021730Y030022D01*
X021218Y030022D02*
X019630Y030022D01*
X019746Y030138D02*
X021101Y030138D01*
X020997Y030255D02*
X020314Y030255D01*
X020430Y030372D02*
X020997Y030372D01*
X020997Y030488D02*
X020547Y030488D01*
X020663Y030605D02*
X020997Y030605D01*
X020671Y030946D02*
X022980Y030946D01*
X022997Y030605D02*
X022951Y030605D01*
X022951Y030488D02*
X022997Y030488D01*
X022997Y030372D02*
X022951Y030372D01*
X022951Y030255D02*
X022997Y030255D01*
X023101Y030138D02*
X022847Y030138D01*
X022730Y030022D02*
X023218Y030022D01*
X023583Y029905D02*
X019112Y029905D01*
X019051Y030022D02*
X019006Y030022D01*
X018934Y030138D02*
X018901Y030138D01*
X019217Y029789D02*
X023585Y029789D01*
X023633Y029672D02*
X019322Y029672D01*
X019340Y030407D02*
X020131Y030407D01*
X020671Y030946D01*
X020462Y031071D02*
X019654Y031071D01*
X019770Y031188D02*
X021077Y031188D01*
X021015Y031305D02*
X019799Y031305D01*
X019799Y031538D02*
X021015Y031538D01*
X021039Y031654D02*
X019742Y031654D01*
X019537Y030955D02*
X020345Y030955D01*
X020228Y030838D02*
X019584Y030838D01*
X019701Y030721D02*
X020112Y030721D01*
X017340Y030407D02*
X017340Y020135D01*
X015513Y018309D01*
X015159Y018309D01*
X015748Y016378D02*
X029001Y016378D01*
X028884Y016262D02*
X015631Y016262D01*
X015003Y015212D02*
X027835Y015212D01*
X027718Y015096D02*
X015003Y015096D01*
X012507Y011947D02*
X010415Y011947D01*
X010415Y011831D02*
X012481Y011831D01*
X012415Y011714D02*
X010415Y011714D01*
X010415Y011597D02*
X010591Y011597D01*
X010474Y011481D02*
X010415Y011481D01*
X010415Y011364D02*
X010415Y011364D01*
X010810Y011364D02*
X010892Y011364D01*
X010892Y011248D02*
X010810Y011248D01*
X010810Y011131D02*
X010892Y011131D01*
X010892Y011014D02*
X010810Y011014D01*
X010810Y011481D02*
X010892Y011481D01*
X010892Y011597D02*
X010810Y011597D01*
X011111Y011597D02*
X012303Y011597D01*
X010665Y010198D02*
X010197Y010198D01*
X010314Y010315D02*
X010506Y010315D01*
X010431Y010431D02*
X010415Y010431D01*
X010353Y008449D02*
X012012Y008449D01*
X012243Y008449D02*
X012932Y008449D01*
X012815Y008332D02*
X012410Y008332D01*
X012469Y008216D02*
X012699Y008216D01*
X012582Y008099D02*
X012483Y008099D01*
X012465Y007982D02*
X012459Y007982D01*
X012128Y008112D02*
X010238Y008112D01*
X010495Y007866D02*
X011871Y007866D01*
X010376Y004834D02*
X015445Y004834D01*
X015328Y004717D02*
X010376Y004717D01*
X010376Y004601D02*
X015212Y004601D01*
X015095Y004484D02*
X010376Y004484D01*
X010376Y004368D02*
X014978Y004368D01*
X014862Y004251D02*
X010376Y004251D01*
X010387Y004134D02*
X014745Y004134D01*
X014629Y004018D02*
X010467Y004018D01*
X010495Y003901D02*
X014512Y003901D01*
X014395Y003784D02*
X010485Y003784D01*
X010431Y003668D02*
X014279Y003668D01*
X014162Y003551D02*
X010276Y003551D01*
X010132Y003435D02*
X010669Y003435D01*
X010699Y003450D02*
X010635Y003417D01*
X010576Y003375D01*
X010525Y003323D01*
X010483Y003265D01*
X010450Y003201D01*
X010427Y003132D01*
X010416Y003061D01*
X010416Y002765D01*
X010834Y002765D01*
X010834Y002683D01*
X010916Y002683D01*
X010916Y001966D01*
X010983Y001977D01*
X011051Y001999D01*
X011116Y002032D01*
X011174Y002074D01*
X011225Y002125D01*
X011268Y002184D01*
X011301Y002248D01*
X011323Y002317D01*
X011334Y002388D01*
X011334Y002683D01*
X010916Y002683D01*
X010916Y002765D01*
X011334Y002765D01*
X011334Y003061D01*
X011323Y003132D01*
X011301Y003201D01*
X011268Y003265D01*
X011225Y003323D01*
X011174Y003375D01*
X011116Y003417D01*
X011051Y003450D01*
X010983Y003472D01*
X010916Y003483D01*
X010916Y002765D01*
X010834Y002765D01*
X010834Y003483D01*
X010768Y003472D01*
X010699Y003450D01*
X010834Y003435D02*
X010916Y003435D01*
X010916Y003318D02*
X010834Y003318D01*
X010834Y003201D02*
X010916Y003201D01*
X010916Y003085D02*
X010834Y003085D01*
X010834Y002968D02*
X010916Y002968D01*
X010916Y002852D02*
X010834Y002852D01*
X010834Y002735D02*
X010352Y002735D01*
X010416Y002683D02*
X010416Y002388D01*
X010427Y002317D01*
X010450Y002248D01*
X010483Y002184D01*
X010525Y002125D01*
X010576Y002074D01*
X010635Y002032D01*
X010699Y001999D01*
X010768Y001977D01*
X010834Y001966D01*
X010834Y002683D01*
X010416Y002683D01*
X010416Y002618D02*
X010352Y002618D01*
X010352Y002502D02*
X010416Y002502D01*
X010417Y002385D02*
X010352Y002385D01*
X010327Y002269D02*
X010443Y002269D01*
X010506Y002152D02*
X010278Y002152D01*
X010161Y002035D02*
X010630Y002035D01*
X010834Y002035D02*
X010916Y002035D01*
X010916Y002152D02*
X010834Y002152D01*
X010834Y002269D02*
X010916Y002269D01*
X010916Y002385D02*
X010834Y002385D01*
X010834Y002502D02*
X010916Y002502D01*
X010916Y002618D02*
X010834Y002618D01*
X010916Y002735D02*
X012118Y002735D01*
X012118Y002769D02*
X012118Y002687D01*
X011700Y002687D01*
X011700Y002391D01*
X011711Y002320D01*
X011734Y002251D01*
X011766Y002187D01*
X011809Y002129D01*
X011860Y002077D01*
X011918Y002035D01*
X011121Y002035D01*
X011245Y002152D02*
X011792Y002152D01*
X011728Y002269D02*
X011307Y002269D01*
X011334Y002385D02*
X011701Y002385D01*
X011700Y002502D02*
X011334Y002502D01*
X011334Y002618D02*
X011700Y002618D01*
X011700Y002769D02*
X012118Y002769D01*
X012118Y003486D01*
X012052Y003475D01*
X011983Y003453D01*
X011918Y003420D01*
X011860Y003378D01*
X011809Y003327D01*
X011766Y003268D01*
X011734Y003204D01*
X011711Y003135D01*
X011700Y003064D01*
X011700Y002769D01*
X011700Y002852D02*
X011334Y002852D01*
X011334Y002968D02*
X011700Y002968D01*
X011703Y003085D02*
X011330Y003085D01*
X011300Y003201D02*
X011733Y003201D01*
X011803Y003318D02*
X011229Y003318D01*
X011081Y003435D02*
X011947Y003435D01*
X012118Y003435D02*
X012200Y003435D01*
X012200Y003486D02*
X012200Y002769D01*
X012118Y002769D01*
X012200Y002769D02*
X012618Y002769D01*
X012618Y003064D01*
X012607Y003135D01*
X012584Y003204D01*
X012552Y003268D01*
X012509Y003327D01*
X012458Y003378D01*
X012400Y003420D01*
X012335Y003453D01*
X012267Y003475D01*
X012200Y003486D01*
X012200Y003318D02*
X012118Y003318D01*
X012118Y003201D02*
X012200Y003201D01*
X012200Y003085D02*
X012118Y003085D01*
X012118Y002968D02*
X012200Y002968D01*
X012200Y002852D02*
X012118Y002852D01*
X012200Y002769D02*
X012200Y002687D01*
X012618Y002687D01*
X012618Y002391D01*
X012607Y002320D01*
X012584Y002251D01*
X012552Y002187D01*
X012509Y002129D01*
X012458Y002077D01*
X012400Y002035D01*
X012335Y002002D01*
X012267Y001980D01*
X012200Y001969D01*
X012200Y002687D01*
X012118Y002687D01*
X012118Y001969D01*
X012052Y001980D01*
X011983Y002002D01*
X011918Y002035D01*
X012118Y002035D02*
X012200Y002035D01*
X012200Y002152D02*
X012118Y002152D01*
X012118Y002269D02*
X012200Y002269D01*
X012200Y002385D02*
X012118Y002385D01*
X012118Y002502D02*
X012200Y002502D01*
X012200Y002618D02*
X012118Y002618D01*
X012200Y002735D02*
X012682Y002735D01*
X012682Y002852D02*
X012618Y002852D01*
X012618Y002968D02*
X012682Y002968D01*
X012682Y003085D02*
X012615Y003085D01*
X012682Y003122D02*
X012682Y002333D01*
X012755Y002157D01*
X012889Y002023D01*
X013064Y001950D01*
X013254Y001950D01*
X013429Y002023D01*
X013564Y002157D01*
X013636Y002333D01*
X013636Y003122D01*
X013564Y003298D01*
X013429Y003432D01*
X013254Y003505D01*
X013064Y003505D01*
X012889Y003432D01*
X012755Y003298D01*
X012682Y003122D01*
X012715Y003201D02*
X012585Y003201D01*
X012515Y003318D02*
X012775Y003318D01*
X012895Y003435D02*
X012371Y003435D01*
X012618Y002618D02*
X012682Y002618D01*
X012682Y002502D02*
X012618Y002502D01*
X012617Y002385D02*
X012682Y002385D01*
X012708Y002269D02*
X012590Y002269D01*
X012526Y002152D02*
X012760Y002152D01*
X012876Y002035D02*
X012400Y002035D01*
X013442Y002035D02*
X013876Y002035D01*
X013760Y002152D02*
X013558Y002152D01*
X013610Y002269D02*
X013708Y002269D01*
X013682Y002385D02*
X013636Y002385D01*
X013636Y002502D02*
X013682Y002502D01*
X013682Y002618D02*
X013636Y002618D01*
X013636Y002735D02*
X013682Y002735D01*
X013682Y002852D02*
X013636Y002852D01*
X013636Y002968D02*
X013682Y002968D01*
X013682Y003085D02*
X013636Y003085D01*
X013604Y003201D02*
X013715Y003201D01*
X013775Y003318D02*
X013543Y003318D01*
X013423Y003435D02*
X013895Y003435D01*
X014159Y003214D02*
X015553Y004608D01*
X016832Y004608D01*
X017403Y005179D01*
X016955Y004368D02*
X015646Y004368D01*
X015530Y004251D02*
X016924Y004251D01*
X016900Y004134D02*
X015413Y004134D01*
X015297Y004018D02*
X016900Y004018D01*
X016900Y003901D02*
X015180Y003901D01*
X015063Y003784D02*
X016928Y003784D01*
X016959Y003668D02*
X014947Y003668D01*
X014159Y003214D02*
X014159Y002728D01*
X010521Y003318D02*
X010256Y003318D01*
X010318Y003201D02*
X010450Y003201D01*
X010420Y003085D02*
X010352Y003085D01*
X010352Y002968D02*
X010416Y002968D01*
X010416Y002852D02*
X010352Y002852D01*
X009903Y004484D02*
X004810Y004484D01*
X010810Y013580D02*
X010892Y013580D01*
X010892Y013696D02*
X010810Y013696D01*
X010810Y013813D02*
X010892Y013813D01*
X010760Y018594D02*
X008809Y018594D01*
X008692Y018711D02*
X010877Y018711D01*
X010993Y018827D02*
X008576Y018827D01*
X008466Y018944D02*
X011110Y018944D01*
X011226Y019060D02*
X008466Y019060D01*
X008466Y019177D02*
X011343Y019177D01*
X010671Y019294D02*
X008466Y019294D01*
X008466Y019410D02*
X010554Y019410D01*
X010533Y019527D02*
X008466Y019527D01*
X005080Y023492D02*
X001219Y023492D01*
X001219Y023608D02*
X005080Y023608D01*
X005080Y023725D02*
X001219Y023725D01*
X001219Y023841D02*
X005080Y023841D01*
X005080Y023958D02*
X001219Y023958D01*
X001219Y024075D02*
X005080Y024075D01*
X005080Y024191D02*
X001219Y024191D01*
X001219Y024308D02*
X005080Y024308D01*
X005190Y028273D02*
X005401Y028273D01*
X005334Y028389D02*
X005190Y028389D01*
X005190Y028506D02*
X005315Y028506D01*
X005334Y028623D02*
X005190Y028623D01*
X005190Y028739D02*
X005402Y028739D01*
X005190Y029089D02*
X009943Y029089D01*
X009943Y029206D02*
X005190Y029206D01*
X005190Y029322D02*
X009943Y029322D01*
X009943Y029439D02*
X005190Y029439D01*
X005190Y029555D02*
X009943Y029555D01*
X009943Y029672D02*
X005190Y029672D01*
X005190Y029789D02*
X009943Y029789D01*
X009943Y029905D02*
X005190Y029905D01*
X005190Y030022D02*
X009943Y030022D01*
X009943Y030138D02*
X005190Y030138D01*
X005190Y030255D02*
X009943Y030255D01*
X009943Y030372D02*
X005190Y030372D01*
X005190Y030488D02*
X009943Y030488D01*
X009943Y030605D02*
X005190Y030605D01*
X005190Y030721D02*
X009943Y030721D01*
X009943Y030838D02*
X005190Y030838D01*
X005190Y030955D02*
X009943Y030955D01*
X009943Y031071D02*
X005264Y031071D01*
X005310Y031188D02*
X009938Y031188D01*
X006406Y031421D02*
X006329Y031421D01*
X006331Y031888D02*
X006256Y031888D01*
X004565Y031771D02*
X002965Y031771D01*
X003024Y031654D02*
X004488Y031654D01*
X004410Y031538D02*
X003055Y031538D01*
X003086Y031421D02*
X004315Y031421D01*
X004311Y031305D02*
X003091Y031305D01*
X003091Y031188D02*
X004312Y031188D01*
X004311Y031071D02*
X003078Y031071D01*
X003047Y030955D02*
X004311Y030955D01*
X004310Y030838D02*
X003015Y030838D01*
X002947Y030721D02*
X004309Y030721D01*
X004309Y030605D02*
X002880Y030605D01*
X002768Y030488D02*
X004308Y030488D01*
X004308Y030372D02*
X002638Y030372D01*
X002422Y030247D02*
X002145Y030172D01*
X001858Y030172D01*
X001581Y030247D01*
X001333Y030390D01*
X001220Y030503D01*
X001220Y030488D02*
X001235Y030488D01*
X001220Y030372D02*
X001365Y030372D01*
X001220Y030255D02*
X001567Y030255D01*
X013250Y019569D02*
X013269Y019569D01*
X018053Y020460D02*
X018144Y020460D01*
X018053Y020576D02*
X018261Y020576D01*
X018378Y020693D02*
X018053Y020693D01*
X018053Y020810D02*
X018496Y020810D01*
X018613Y020926D02*
X018053Y020926D01*
X018053Y021043D02*
X018730Y021043D01*
X018848Y021159D02*
X018053Y021159D01*
X018053Y021276D02*
X018965Y021276D01*
X019082Y021393D02*
X018053Y021393D01*
X018053Y021509D02*
X019200Y021509D01*
X019317Y021626D02*
X018053Y021626D01*
X018053Y021742D02*
X019434Y021742D01*
X019501Y021859D02*
X018053Y021859D01*
X018053Y021976D02*
X019381Y021976D01*
X019333Y022092D02*
X018053Y022092D01*
X018053Y022209D02*
X019311Y022209D01*
X019194Y022326D02*
X018053Y022326D01*
X018053Y022442D02*
X019116Y022442D01*
X019116Y022559D02*
X018053Y022559D01*
X018053Y022675D02*
X019116Y022675D01*
X019116Y022792D02*
X018053Y022792D01*
X018053Y022909D02*
X019116Y022909D01*
X019116Y023025D02*
X018053Y023025D01*
X018053Y023142D02*
X019116Y023142D01*
X019116Y023258D02*
X018053Y023258D01*
X018053Y023375D02*
X019116Y023375D01*
X019116Y023492D02*
X018053Y023492D01*
X018053Y023608D02*
X019116Y023608D01*
X019116Y023725D02*
X018053Y023725D01*
X018053Y023841D02*
X019116Y023841D01*
X019116Y023958D02*
X018053Y023958D01*
X018053Y024075D02*
X019116Y024075D01*
X019116Y024191D02*
X018053Y024191D01*
X018053Y024308D02*
X019116Y024308D01*
X019116Y024425D02*
X018053Y024425D01*
X018053Y024541D02*
X019116Y024541D01*
X019116Y024658D02*
X018053Y024658D01*
X018053Y024774D02*
X019116Y024774D01*
X019116Y024891D02*
X018053Y024891D01*
X018053Y025008D02*
X019116Y025008D01*
X019116Y025124D02*
X018053Y025124D01*
X018053Y025241D02*
X019116Y025241D01*
X019116Y025357D02*
X018053Y025357D01*
X018053Y025474D02*
X019116Y025474D01*
X019116Y025591D02*
X018053Y025591D01*
X018053Y025707D02*
X019116Y025707D01*
X019116Y025824D02*
X018053Y025824D01*
X018053Y025940D02*
X019116Y025940D01*
X019116Y026057D02*
X018053Y026057D01*
X018053Y026174D02*
X019116Y026174D01*
X019116Y026290D02*
X018053Y026290D01*
X018053Y026407D02*
X019116Y026407D01*
X019116Y026524D02*
X018053Y026524D01*
X018053Y026640D02*
X019116Y026640D01*
X019528Y027223D02*
X024949Y027223D01*
X024832Y027107D02*
X019656Y027107D01*
X023322Y030955D02*
X030531Y030955D01*
X030523Y031538D02*
X025933Y031538D01*
X025909Y031654D02*
X030554Y031654D01*
X030613Y031771D02*
X025793Y031771D01*
X025676Y031888D02*
X030680Y031888D01*
X028210Y029116D02*
X026714Y029116D01*
X026104Y028506D01*
X025927Y027423D02*
X028269Y027423D01*
X028466Y027777D02*
X027974Y028269D01*
X028210Y029116D02*
X028834Y028492D01*
X028980Y028492D01*
X032246Y025651D02*
X031655Y024982D01*
X031655Y018698D01*
X027712Y014756D01*
X027029Y016852D02*
X027029Y018092D01*
X027029Y021380D01*
X025515Y031071D02*
X025433Y031071D01*
X025433Y031188D02*
X025515Y031188D01*
X025515Y031305D02*
X025433Y031305D01*
X025433Y031538D02*
X025515Y031538D01*
X025515Y031654D02*
X025433Y031654D01*
X025433Y031771D02*
X025515Y031771D01*
X025515Y031888D02*
X025433Y031888D01*
X025272Y031888D02*
X024702Y031888D01*
X024818Y031771D02*
X025155Y031771D01*
X025039Y031654D02*
X024935Y031654D01*
X024951Y031538D02*
X025015Y031538D01*
X019040Y011831D02*
X019031Y011831D01*
X020803Y005067D02*
X021045Y005067D01*
X021045Y004951D02*
X020772Y004951D01*
X020741Y004834D02*
X021045Y004834D01*
X021045Y004717D02*
X020681Y004717D01*
X020614Y004601D02*
X021045Y004601D01*
X021045Y004484D02*
X020508Y004484D01*
X020379Y004368D02*
X021045Y004368D01*
X021045Y004251D02*
X020177Y004251D01*
X021560Y001919D02*
X030421Y001919D01*
X030409Y002035D02*
X023093Y002035D01*
X023205Y002152D02*
X030409Y002152D01*
X030413Y002269D02*
X023253Y002269D01*
X023274Y002385D02*
X030445Y002385D01*
X030476Y002502D02*
X027009Y002502D01*
X026688Y003085D02*
X029759Y003085D01*
X029875Y003201D02*
X026834Y003201D01*
X026885Y003318D02*
X029992Y003318D01*
X030108Y003435D02*
X026899Y003435D01*
X027015Y003551D02*
X030225Y003551D01*
X030342Y003668D02*
X027128Y003668D01*
X027128Y003784D02*
X030458Y003784D01*
X030575Y003901D02*
X027128Y003901D01*
X027128Y004018D02*
X030692Y004018D01*
X030808Y004134D02*
X027128Y004134D01*
X027128Y004251D02*
X030001Y004251D01*
X030069Y004223D02*
X029764Y004349D01*
X029530Y004583D01*
X029404Y004888D01*
X029404Y005218D01*
X029530Y005523D01*
X029764Y005756D01*
X030069Y005883D01*
X030399Y005883D01*
X030704Y005756D01*
X030937Y005523D01*
X031064Y005218D01*
X031064Y004888D01*
X030937Y004583D01*
X030704Y004349D01*
X030399Y004223D01*
X030069Y004223D01*
X029745Y004368D02*
X027128Y004368D01*
X027128Y004484D02*
X029629Y004484D01*
X029523Y004601D02*
X027128Y004601D01*
X027128Y004717D02*
X029474Y004717D01*
X029426Y004834D02*
X027128Y004834D01*
X027128Y004951D02*
X029404Y004951D01*
X029404Y005067D02*
X027128Y005067D01*
X027128Y005184D02*
X029404Y005184D01*
X029438Y005300D02*
X027128Y005300D01*
X027128Y005417D02*
X029486Y005417D01*
X029541Y005534D02*
X027128Y005534D01*
X027128Y005650D02*
X029658Y005650D01*
X029789Y005767D02*
X028634Y005767D01*
X028751Y005883D02*
X032009Y005883D01*
X032009Y005767D02*
X030679Y005767D01*
X030810Y005650D02*
X032009Y005650D01*
X032009Y005534D02*
X030927Y005534D01*
X030981Y005417D02*
X032009Y005417D01*
X031974Y005300D02*
X031030Y005300D01*
X031064Y005184D02*
X031858Y005184D01*
X031741Y005067D02*
X031064Y005067D01*
X031064Y004951D02*
X031624Y004951D01*
X031508Y004834D02*
X031042Y004834D01*
X030993Y004717D02*
X031391Y004717D01*
X031275Y004601D02*
X030945Y004601D01*
X030839Y004484D02*
X031158Y004484D01*
X031041Y004368D02*
X030722Y004368D01*
X030925Y004251D02*
X030467Y004251D01*
X031010Y003668D02*
X032338Y003668D01*
X032338Y003784D02*
X031126Y003784D01*
X031243Y003901D02*
X032338Y003901D01*
X032338Y004018D02*
X031360Y004018D01*
X031476Y004134D02*
X032338Y004134D01*
X032338Y004251D02*
X031593Y004251D01*
X031709Y004368D02*
X032338Y004368D01*
X032338Y004484D02*
X031826Y004484D01*
X031943Y004601D02*
X032338Y004601D01*
X032338Y004717D02*
X032059Y004717D01*
X032176Y004834D02*
X032338Y004834D01*
X032338Y004951D02*
X032293Y004951D01*
X032009Y006000D02*
X028802Y006000D01*
X028390Y006000D02*
X028321Y006000D01*
X028321Y005883D02*
X028390Y005883D01*
X028390Y005767D02*
X028321Y005767D01*
X028078Y005767D02*
X027675Y005767D01*
X027792Y005883D02*
X027961Y005883D01*
X027910Y006000D02*
X027836Y006000D01*
X030310Y002968D02*
X030818Y002968D01*
X030701Y002852D02*
X030194Y002852D01*
X030077Y002735D02*
X030602Y002735D01*
X030535Y002618D02*
X029960Y002618D01*
X030427Y003085D02*
X031012Y003085D01*
X030777Y003435D02*
X032338Y003435D01*
X032338Y003551D02*
X030893Y003551D01*
X030660Y003318D02*
X032338Y003318D01*
X032338Y003201D02*
X030543Y003201D01*
X030452Y001802D02*
X021644Y001802D01*
X021676Y001685D02*
X030484Y001685D01*
X030551Y001569D02*
X021670Y001569D01*
X021621Y001452D02*
X030619Y001452D01*
X031983Y003085D02*
X032338Y003085D01*
X032338Y002968D02*
X032177Y002968D01*
X032294Y002852D02*
X032338Y002852D01*
X021320Y001655D02*
X021281Y001694D01*
D16*
X021320Y001655D03*
X023250Y003683D03*
X023998Y005395D03*
X024588Y008053D03*
X024372Y010198D03*
X025592Y011124D03*
X025317Y011852D03*
X025317Y012246D03*
X025317Y012639D03*
X025336Y013033D03*
X024923Y013053D03*
X024923Y012639D03*
X024923Y012246D03*
X024923Y011852D03*
X025946Y010218D03*
X027324Y010769D03*
X028348Y008584D03*
X027374Y007761D03*
X026545Y004096D03*
X026537Y003407D03*
X022305Y008643D03*
X019488Y011944D03*
X019317Y012450D03*
X021084Y013171D03*
X024411Y015336D03*
X024903Y015336D03*
X024923Y014391D03*
X025946Y013840D03*
X027029Y014372D03*
X027994Y013722D03*
X028545Y014588D03*
X027777Y015828D03*
X027029Y016852D03*
X027029Y018092D03*
X026222Y017876D03*
X024214Y018840D03*
X024214Y020100D03*
X022679Y021852D03*
X020435Y021419D03*
X019687Y022167D03*
X016675Y025592D03*
X016380Y023840D03*
X015376Y023683D03*
X014765Y023171D03*
X014135Y023683D03*
X013525Y023230D03*
X013407Y021990D03*
X012049Y021301D03*
X011517Y020572D03*
X012009Y020317D03*
X010946Y020592D03*
X010946Y021202D03*
X010946Y021793D03*
X009805Y021891D03*
X008742Y021950D03*
X009313Y023387D03*
X011537Y024313D03*
X011990Y025612D03*
X013250Y024450D03*
X014844Y021872D03*
X015395Y021970D03*
X016006Y022502D03*
X016458Y021950D03*
X014864Y021163D03*
X014411Y019943D03*
X013250Y019569D03*
X014313Y018289D03*
X015159Y018309D03*
X014155Y017128D03*
X015159Y016124D03*
X014647Y015159D03*
X014175Y014175D03*
X013171Y013387D03*
X013269Y012797D03*
X013683Y012069D03*
X012836Y011813D03*
X012797Y010238D03*
X012128Y008112D03*
X010238Y008112D03*
X008919Y006754D03*
X008348Y007403D03*
X006635Y007659D03*
X006084Y010317D03*
X002994Y007777D03*
X004313Y005277D03*
X004588Y004765D03*
X002974Y004391D03*
X010139Y003880D03*
X014704Y009887D03*
X017324Y011006D03*
X012639Y014194D03*
X010376Y015159D03*
X009628Y014785D03*
X008722Y015277D03*
X008191Y014785D03*
X006931Y014785D03*
X009254Y016281D03*
X009254Y017009D03*
X009450Y018683D03*
X010691Y018191D03*
X010828Y017344D03*
X012265Y017738D03*
X015769Y019765D03*
X019352Y026911D03*
X020356Y028840D03*
X021970Y029017D03*
X022482Y028466D03*
X021990Y027009D03*
X023939Y029864D03*
X025474Y029864D03*
X026104Y028506D03*
X026675Y026970D03*
X028269Y027423D03*
X028604Y028151D03*
X028980Y028492D03*
X027974Y028269D03*
X031891Y026852D03*
X032187Y027226D03*
X032069Y027817D03*
X032049Y028269D03*
X027029Y021380D03*
X022403Y018151D03*
X030494Y010533D03*
X016813Y005110D03*
X006655Y017580D03*
X006754Y020671D03*
X005828Y023092D03*
X005691Y024490D03*
X004962Y024726D03*
X006616Y025612D03*
X007482Y027344D03*
X008486Y028053D03*
X009529Y027187D03*
X008348Y029608D03*
X006635Y031694D03*
X006025Y031616D03*
X004954Y031253D03*
X003742Y031517D03*
X003013Y028998D03*
X004549Y027620D03*
X005297Y027856D03*
X005671Y028506D03*
X006202Y028506D03*
X006202Y028013D03*
X003230Y021498D03*
X003683Y014529D03*
X012029Y031065D03*
X020297Y031439D03*
D17*
X007482Y027344D02*
X006813Y028013D01*
X006202Y028013D01*
M02*
