G75*
G70*
%OFA0B0*%
%FSLAX24Y24*%
%IPPOS*%
%LPD*%
%AMOC8*
5,1,8,0,0,1.08239X$1,22.5*
%
%ADD10C,0.1340*%
%ADD11C,0.0680*%
%ADD12R,0.0690X0.1084*%
%ADD13R,0.0454X0.1084*%
%ADD14R,0.0297X0.1084*%
%ADD15R,0.0220X0.0420*%
%ADD16R,0.0420X0.0220*%
%ADD17R,0.0950X0.0950*%
%ADD18R,0.0746X0.0305*%
%ADD19R,0.0660X0.0280*%
%ADD20R,0.0280X0.0660*%
%ADD21C,0.1780*%
%ADD22OC8,0.0654*%
%ADD23C,0.1386*%
%ADD24R,0.0552X0.0552*%
%ADD25R,0.0781X0.1458*%
%ADD26R,0.1458X0.0781*%
%ADD27R,0.0560X0.0960*%
%ADD28R,0.1497X0.0946*%
%ADD29R,0.0474X0.0513*%
%ADD30R,0.0513X0.0474*%
%ADD31R,0.0631X0.0631*%
%ADD32R,0.1419X0.0828*%
%ADD33R,0.1084X0.0690*%
%ADD34R,0.1084X0.0454*%
%ADD35R,0.1084X0.0297*%
%ADD36R,0.0828X0.1419*%
%ADD37R,0.0671X0.0237*%
%ADD38R,0.0395X0.0395*%
%ADD39R,0.0710X0.1104*%
%ADD40R,0.0580X0.0659*%
%ADD41OC8,0.0680*%
%ADD42R,0.0710X0.1615*%
%ADD43R,0.0867X0.0710*%
D10*
X002094Y002185D03*
X002002Y031261D03*
X031576Y031261D03*
X031498Y002108D03*
D11*
X022797Y002414D02*
X022797Y003014D01*
X021797Y003014D02*
X021797Y002414D01*
X020797Y002414D02*
X020797Y003014D01*
X015159Y003028D02*
X015159Y002428D01*
X014159Y002428D02*
X014159Y003028D01*
X013159Y003028D02*
X013159Y002428D01*
X012159Y002428D02*
X012159Y003028D01*
X010875Y003024D02*
X010875Y002424D01*
X009875Y002424D02*
X009875Y003024D01*
X008875Y003024D02*
X008875Y002424D01*
X009071Y010619D02*
X009071Y011219D01*
X009071Y013179D02*
X009071Y013779D01*
X010851Y013779D02*
X010851Y013179D01*
X010851Y011219D02*
X010851Y010619D01*
D12*
X006607Y029298D03*
X006607Y030480D03*
X004009Y030480D03*
X004009Y029298D03*
D13*
X004600Y029298D03*
X004600Y030480D03*
X006017Y030480D03*
X006017Y029298D03*
D14*
X005623Y029298D03*
X005308Y029298D03*
X004993Y029298D03*
X004993Y030480D03*
X005308Y030480D03*
X005623Y030480D03*
D15*
X011752Y023597D03*
X012002Y023597D03*
X012262Y023597D03*
X012512Y023597D03*
X012512Y022077D03*
X012262Y022077D03*
X012002Y022077D03*
X011752Y022077D03*
D16*
X011372Y022457D03*
X011372Y022707D03*
X011372Y022967D03*
X011372Y023217D03*
X012892Y023217D03*
X012892Y022967D03*
X012892Y022707D03*
X012892Y022457D03*
D17*
X012132Y022837D03*
D18*
X007331Y006748D03*
X007331Y006248D03*
X007331Y005748D03*
X007331Y005248D03*
X007331Y004748D03*
X007331Y004248D03*
X007331Y003748D03*
X007331Y003248D03*
X003574Y003248D03*
X003574Y003748D03*
X003574Y004248D03*
X003574Y004748D03*
X003574Y005248D03*
X003574Y005748D03*
X003574Y006248D03*
X003574Y006748D03*
D19*
X013281Y013842D03*
X013281Y014152D03*
X013281Y014472D03*
X013281Y014782D03*
X013281Y015102D03*
X013281Y015412D03*
X013281Y015732D03*
X013281Y016042D03*
X013281Y016362D03*
X013281Y016672D03*
X013281Y016992D03*
X013281Y017302D03*
X013281Y017622D03*
X013281Y017932D03*
X013281Y018252D03*
X013281Y018562D03*
X019281Y018562D03*
X019281Y018252D03*
X019281Y017932D03*
X019281Y017622D03*
X019281Y017302D03*
X019281Y016992D03*
X019281Y016672D03*
X019281Y016362D03*
X019281Y016042D03*
X019281Y015732D03*
X019281Y015412D03*
X019281Y015102D03*
X019281Y014782D03*
X019281Y014472D03*
X019281Y014152D03*
X019281Y013842D03*
D20*
X018641Y013202D03*
X018331Y013202D03*
X018011Y013202D03*
X017701Y013202D03*
X017381Y013202D03*
X017071Y013202D03*
X016751Y013202D03*
X016441Y013202D03*
X016121Y013202D03*
X015811Y013202D03*
X015491Y013202D03*
X015181Y013202D03*
X014861Y013202D03*
X014551Y013202D03*
X014231Y013202D03*
X013921Y013202D03*
X013921Y019202D03*
X014231Y019202D03*
X014551Y019202D03*
X014861Y019202D03*
X015181Y019202D03*
X015491Y019202D03*
X015811Y019202D03*
X016121Y019202D03*
X016441Y019202D03*
X016751Y019202D03*
X017071Y019202D03*
X017381Y019202D03*
X017701Y019202D03*
X018011Y019202D03*
X018331Y019202D03*
X018641Y019202D03*
D21*
X017927Y006387D03*
X019777Y005206D03*
X017927Y004025D03*
D22*
X027372Y006120D03*
X027372Y006907D03*
X028356Y006907D03*
X028356Y006120D03*
D23*
X030234Y005053D03*
X025494Y005053D03*
D24*
X024734Y006167D03*
X024734Y007191D03*
X022332Y007191D03*
X022332Y006167D03*
D25*
X018613Y008482D03*
X016554Y008482D03*
D26*
X031106Y007803D03*
X031106Y009862D03*
D27*
X025833Y016207D03*
X024923Y016207D03*
X024013Y016207D03*
D28*
X024923Y013767D03*
D29*
X021218Y014254D03*
X020549Y014254D03*
X026360Y018845D03*
X027030Y018845D03*
X025533Y021380D03*
X024864Y021380D03*
X016604Y022488D03*
X016604Y023157D03*
X015380Y023177D03*
X015380Y022507D03*
X014145Y022511D03*
X014145Y023181D03*
X012618Y019155D03*
X012618Y018486D03*
X009319Y022234D03*
X009319Y022903D03*
X009521Y025939D03*
X009521Y026608D03*
X008486Y026633D03*
X008486Y025964D03*
X007482Y025968D03*
X007482Y026637D03*
X005954Y026850D03*
X005954Y027519D03*
X009045Y008100D03*
X009714Y008100D03*
X008935Y005746D03*
X008935Y005076D03*
X023849Y004761D03*
X023849Y004092D03*
D30*
X024037Y003395D03*
X024037Y002726D03*
X025021Y002730D03*
X025021Y003399D03*
X025506Y008067D03*
X026175Y008067D03*
X025521Y018844D03*
X024852Y018844D03*
X024858Y020104D03*
X025527Y020104D03*
X026527Y027779D03*
X027196Y027779D03*
X027200Y029153D03*
X027870Y029153D03*
X026336Y029161D03*
X025667Y029161D03*
X028848Y031206D03*
X029517Y031206D03*
X013941Y020194D03*
X013271Y020194D03*
X012668Y025156D03*
X011998Y025156D03*
X011535Y009281D03*
X010866Y009281D03*
X010874Y008106D03*
X011543Y008106D03*
X011541Y005572D03*
X010872Y005572D03*
X010876Y004399D03*
X011545Y004399D03*
X004952Y008051D03*
X004283Y008051D03*
X002578Y006750D03*
X001909Y006750D03*
D31*
X004736Y001850D03*
X006232Y001850D03*
X004513Y025533D03*
X004513Y027029D03*
X027214Y030198D03*
X027214Y031694D03*
D32*
X002891Y027021D03*
X002891Y025486D03*
D33*
X029929Y026479D03*
X031110Y026479D03*
X031110Y029078D03*
X029929Y029078D03*
D34*
X029929Y028487D03*
X029929Y027070D03*
X031110Y027070D03*
X031110Y028487D03*
D35*
X031110Y028093D03*
X031110Y027778D03*
X031110Y027463D03*
X029929Y027463D03*
X029929Y027778D03*
X029929Y028093D03*
D36*
X027198Y025687D03*
X025663Y025687D03*
X015415Y025159D03*
X013879Y025159D03*
X003147Y008968D03*
X001612Y008968D03*
X020085Y008490D03*
X021620Y008490D03*
X029568Y012340D03*
X031103Y012340D03*
D37*
X026563Y012452D03*
X026563Y012196D03*
X026563Y011941D03*
X026563Y011685D03*
X026563Y011429D03*
X026563Y011173D03*
X026563Y010917D03*
X026563Y010661D03*
X026563Y010405D03*
X026563Y010149D03*
X026563Y009893D03*
X026563Y009637D03*
X026563Y009381D03*
X026563Y009126D03*
X023708Y009126D03*
X023708Y009381D03*
X023708Y009637D03*
X023708Y009893D03*
X023708Y010149D03*
X023708Y010405D03*
X023708Y010661D03*
X023708Y010917D03*
X023708Y011173D03*
X023708Y011429D03*
X023708Y011685D03*
X023708Y011941D03*
X023708Y012196D03*
X023708Y012452D03*
D38*
X022724Y014252D03*
X022133Y014252D03*
X024037Y002206D03*
X024037Y001616D03*
X025021Y001616D03*
X025021Y002206D03*
D39*
X029296Y008989D03*
X029296Y010407D03*
D40*
X022659Y004761D03*
X020966Y004761D03*
D41*
X021474Y030441D03*
X021474Y031441D03*
X022474Y031441D03*
X023474Y031441D03*
X024474Y031441D03*
X025474Y031441D03*
X025474Y030441D03*
X024474Y030441D03*
X023474Y030441D03*
X022474Y030441D03*
X019340Y030407D03*
X019340Y031407D03*
X018340Y031407D03*
X018340Y030407D03*
X017340Y030407D03*
X017340Y031407D03*
D42*
X029923Y024647D03*
X029923Y021301D03*
X029872Y018852D03*
X029872Y015506D03*
D43*
X011202Y018860D03*
X011202Y019962D03*
M02*
