%
M48
M72
T01C0.0197
T02C0.0374
T03C0.0400
T04C0.0906
T05C0.1180
T06C0.1260
%
T01
X2974Y4391
X4313Y5277
X4588Y4765
X2994Y7777
X6084Y10317
X6635Y7659
X8348Y7403
X8919Y6754
X10238Y8112
X12128Y8112
X12797Y10238
X12836Y11813
X13683Y12069
X13269Y12797
X13171Y13387
X12639Y14194
X14175Y14175
X14647Y15159
X15159Y16124
X14155Y17128
X14313Y18289
X15159Y18309
X15769Y19765
X14864Y21163
X14844Y21872
X15395Y21970
X16006Y22502
X16458Y21950
X15376Y23683
X14765Y23171
X14135Y23683
X13525Y23230
X13407Y21990
X12049Y21301
X11517Y20572
X12009Y20317
X10946Y20592
X10946Y21202
X10946Y21793
X9805Y21891
X8742Y21950
X9313Y23387
X11537Y24313
X11990Y25612
X13250Y24450
X16380Y23840
X16675Y25592
X19352Y26911
X20356Y28840
X21970Y29017
X22482Y28466
X21990Y27009
X23939Y29864
X25474Y29864
X26104Y28506
X26675Y26970
X28269Y27423
X28604Y28151
X28980Y28492
X27974Y28269
X31891Y26852
X32187Y27226
X32069Y27817
X32049Y28269
X27029Y21380
X24214Y20100
X24214Y18840
X22403Y18151
X24411Y15336
X24903Y15336
X24923Y14391
X25946Y13840
X25336Y13033
X25317Y12639
X25317Y12246
X25317Y11852
X24923Y11852
X24923Y12246
X24923Y12639
X24923Y13053
X25592Y11124
X25946Y10218
X24372Y10198
X24588Y8053
X22305Y8643
X23998Y5395
X23250Y3683
X21320Y1655
X16813Y5110
X14704Y9887
X17324Y11006
X19488Y11944
X19317Y12450
X21084Y13171
X26222Y17876
X27029Y18092
X27029Y16852
X27777Y15828
X28545Y14588
X27994Y13722
X27029Y14372
X27324Y10769
X28348Y8584
X27374Y7761
X26545Y4096
X26537Y3407
X30494Y10533
X22679Y21852
X20435Y21419
X19687Y22167
X14411Y19943
X13250Y19569
X12265Y17738
X10828Y17344
X10691Y18191
X9450Y18683
X9254Y17009
X9254Y16281
X8722Y15277
X8191Y14785
X6931Y14785
X6655Y17580
X6754Y20671
X5828Y23092
X5691Y24490
X4962Y24726
X6616Y25612
X7482Y27344
X8486Y28053
X9529Y27187
X8348Y29608
X6635Y31694
X6025Y31616
X4954Y31253
X3742Y31517
X3013Y28998
X4549Y27620
X5297Y27856
X5671Y28506
X6202Y28506
X6202Y28013
X3230Y21498
X3683Y14529
X9628Y14785
X10376Y15159
X10139Y3880
X12029Y31065
X20297Y31439
T02
X27372Y6907
X27372Y6120
X28356Y6120
X28356Y6907
T03
X22797Y2714
X21797Y2714
X20797Y2714
X15159Y2728
X14159Y2728
X13159Y2728
X12159Y2728
X10875Y2724
X9875Y2724
X8875Y2724
X9071Y10919
X10851Y10919
X10851Y13479
X9071Y13479
X17340Y30407
X17340Y31407
X18340Y31407
X18340Y30407
X19340Y30407
X19340Y31407
X21474Y31441
X22474Y31441
X23474Y31441
X24474Y31441
X25474Y31441
X25474Y30441
X24474Y30441
X23474Y30441
X22474Y30441
X21474Y30441
T04
X25494Y5053
X30234Y5053
T05
X19777Y5206
X17927Y4025
X17927Y6387
T06
X2094Y2185
X2002Y31261
X31576Y31261
X31498Y2108
M30
